M48
;Layer_Color=9474304
;FILE_FORMAT=2:5
INCH,LZ
;TYPE=PLATED
T1F00S00C0.00787
T2F00S00C0.01181
T3F00S00C0.02000
T4F00S00C0.02953
T5F00S00C0.03200
T6F00S00C0.03400
T7F00S00C0.03504
T9F00S00C0.04016
T10F00S00C0.10900
T11F00S00C0.11811
%
T01
X02Y03235
T02
X01385Y0119
X01555Y01135
X0158772Y0107228
X01595Y01225
X0166Y01255
X0171Y01195
X0173875Y0128625
X0186878Y01285
Y01245
Y012
X0183Y0111
X019Y0106
X0204117Y0116696
X01935Y01355
X01885
X0179122Y0139029
X0177498Y0142001
X0173319Y0142181
X0165Y01475
X01855Y01545
X02195Y0148
X0224281Y0147281
X0228182Y0147181
X0232Y01465
X0236
Y0151
Y0155
X02605Y01545
Y0151
Y0147
X0255Y01425
X02635Y01345
X0264Y0131
X0281068Y0155569
X0368Y01525
X0402Y0106
X0422007Y011283
X0454811Y01475
X0514Y0147
X05335Y0154
X05565Y0144
X05675Y0143
Y01395
X0567397Y0147103
X0566222Y0152654
X0568Y01555
X05925Y0151
X0591Y0142
X05965Y01425
X06055Y0141
X0622074Y0138985
X0624161Y0119665
X0614461Y01175
X0604825Y0118624
X0609Y0124102
X0611546Y0127591
X0598Y0126
X0588Y01275
X0578Y01265
X0571Y0118
X057025Y0113
X0578Y0105
X0599Y011
X06315Y01055
X0639Y01095
X06325Y0142
X0627Y01415
X06295Y0146
X06255Y03
X06555Y028
X06245Y027
X0617555Y0270434
X0619Y03
X05785Y03075
X0573Y0284
X05465Y02805
X05275Y028
X05225Y0309
X0472Y02805
X0483695Y0218591
X0488Y0206158
X0487381Y0198441
X048025Y019975
X0478624Y0196124
X0479Y01915
X0481Y0187
X04845
X04885
X0488842Y0168622
X04805Y0171
X0501Y0173
X04985Y01775
X0507Y01825
X05065Y0189
X0521782Y0192039
X0522Y0196
Y01995
X0536684Y0200958
X0536013Y0208493
X05345Y0221
X054
X0553Y02155
X0552Y02065
X05575
X05605Y02035
X0557Y0201
X0553Y0187
X05455Y01895
X0541243Y0189678
X05435Y01765
X0550069Y0169931
X0533Y0173
X0537431Y0156569
X0559Y0158
X0577Y01645
X05955Y01615
X05985Y01665
X06065Y0169
X0606702Y0161
X06145Y0159
X0619696
X0623Y0191
Y0196
Y02005
Y02375
X06195Y0235
X0564408Y0230577
X055981Y0234053
X056Y02385
X0557Y0228
X05695Y0251
X0574Y02545
X0578Y0258
Y0201
Y01955
Y01905
X051Y01725
X0513Y0231
X0507
X0498Y02305
X051Y02395
X0467462Y0231462
X0464229Y0228977
X04555Y0229
X0439249Y0219503
X04435Y0206
X0442819Y0201486
X0436125Y0201375
X0436939Y0195811
X04365Y01915
X04445Y01885
X0444Y0175
X0453Y01795
X0458344Y0174344
X0465Y0172
Y0187
X04645Y0191
X0422Y01985
X0414
X0410191Y0183191
X04115Y01745
X0403Y01695
X04Y0189122
X03875Y01915
Y0196
X0388Y02015
X0395075Y0204274
X03995Y02055
X03955Y02195
X0414Y0228
X04185Y02315
X0423Y0235
X0374Y02325
X037Y023
X0366627Y0233351
X03305Y0233
X033Y0237
X03285Y02285
X0322341Y0228609
X03145Y0229
X0336Y0216
X0342
X0347Y0216055
X0349378Y0205254
X03495Y01985
X03605Y0200622
X03725Y01995
X03575Y01855
X0351979Y0183495
X0335622Y01798
X03325Y019
Y0195
Y01985
X0322Y01795
X0317Y0176
X0362Y0173
X0367887Y0172028
X0347Y0271
X0342Y02735
X0336Y02765
X0317823Y030739
X03905Y02995
X0402Y0295
X0406
X04095
X0412992Y029114
X0414Y0309829
X0418543Y0309725
X043Y0305663
X0447Y02845
X04535Y02885
X0309Y02915
X02935Y02815
X0281Y0281
X02515Y02965
X02525Y0306
X0223683Y0306105
X0210427Y0312495
X0193952Y0305567
X01855Y0305
X0175579Y0304998
X0177773Y0257859
X01855Y0258
X01625Y0241
X0162Y0217
X0172Y0198
X01755
X0179148Y0197965
X0190313Y0202813
X01985Y0215
X0203Y0218
X0206Y02205
X0213699Y0219267
X0232Y02165
X02425Y0214
X0258103Y0222007
X0262Y0222
X0282295Y0222048
X0296688Y0220021
X031Y0199
X03075Y0176
X02965Y0185
X02835Y01805
X02805Y0188406
X028Y01925
X0280713Y0196575
X02785Y0174
X0261Y0171
X02585Y01735
X026Y01845
X0255Y0189
X02565Y01975
X025686Y020086
X02455Y01855
X0244637Y0179637
X02455Y0173
X0237Y0164
X0236Y0159
X0243Y0157
X0240603Y01875
X02305Y0192
X02325Y0196
X023Y0199
X02085Y01885
X0207Y01845
X0204Y0182
X02Y018
X0198Y01885
X01845Y017
X0188Y0157
X0177066Y0160934
X01725Y01625
X0168Y0158
X01655Y0173899
X016529Y018271
X01625Y0185
X0212Y0163
X0225Y02635
Y02685
X02355Y0292
X0205Y0284
X0152Y03065
X0154Y0241
X01435Y0195
X0143Y018
X0133961Y018571
X01525Y0172
Y0166
X0163Y0341
X0159206Y0361546
X0163Y0372
X01865Y03445
X0199
X0194Y03305
X0214Y03365
X02235Y03425
X02295Y0338
X0222Y03285
X02385Y0353
X02125Y03765
X02085Y03805
X020651Y0433515
X02095Y04365
X0177Y04415
X018Y04445
X02385Y0453
X0238749Y0457797
X0298Y0398
X03035Y0392
X0308589Y0341567
X02945Y03305
X0294Y0326
X02895
X0327078Y0342059
X0351959Y0340511
X03565Y0345
Y03515
Y03645
Y03705
X0371Y037
Y0366
X0378Y0375
X0384446Y0375565
X0403Y03845
X04005Y0387
Y03935
X0421
X0426319Y0382681
X0414319Y0383182
X0405Y0361
X0403Y0358171
X04005Y03555
Y035
X0401Y0346
X04Y0342
X03885Y0348
X0375Y0352
X0362Y0339
X0366525Y0317491
X038Y03275
X03825Y03315
X03855Y0329
X03865Y0325
X0388Y0321
X0413457Y03195
X0414Y0315
X0427236
X0428Y0337
Y03415
X0428265Y03455
X0437597Y0329766
X0445Y03285
X04495
X0457Y03155
X0454149Y0362667
X04545Y0368
X0437Y0457
X0341124Y0461131
X03415Y044
X0321Y04325
X032Y04255
Y0419
Y0413
Y0406
X03275
Y0413
X0327Y0419
Y0426
X03325Y03875
X03535
X0485Y0388
X0488Y0385
Y0378
X0485Y03985
X0523672Y0403737
X0521Y0447
X0516Y04475
X04965Y0463
X04865Y04645
X0482
X0492184Y0352909
X0473Y03165
X0578Y0314517
X05745Y03515
X0600611Y0364335
X061Y0346
X0613103Y0407127
X06005Y0409
X05705Y043
X0559Y03775
X06265Y0406
X06635
X06675Y03995
X0678Y04205
X06775Y0373
X0677681Y0368682
X06765Y036
X0678Y03515
X06785Y03235
X0658139Y0329435
X06565Y0333
X0655863Y0337278
X0651872Y0338088
X05345Y0483
X05135Y04825
X0496951Y0469021
X02345Y0483
X02265
X02165Y04715
T03
X0253Y0438252
Y0446126
Y0454
T04
X0127Y0366752
Y0374626
Y03825
T05
X0246898Y0432346
X0267764
Y0475654
X0246898
T06
X0269768Y0116929
X0279768
X0289768
X0299768
X0309768
X0304768Y0124409
X0294768
X0284768
X0274768
X0264768
X0269768Y013189
X0279768
X0289768
X0299768
X0309768
X0304768Y013937
X0294768
X0284768
X0274768
X0264768
X0314768
X0324768
X0334768
X0344768
X0354768
X0364768
X0374768
X0384768
X0394768
X0404768
X0414768
X0424768
X0434768
X0444768
X0454768
X0464768
X0459768Y013189
X0449768
X0439768
X0429768
X0419768
X0409768
X0399768
X0389768
X0379768
X0369768
X0359768
X0349768
X0339768
X0329768
X0319768
X0314768Y0124409
X0324768
X0334768
X0344768
X0354768
X0364768
X0374768
X0384768
X0394768
X0404768
X0414768
X0424768
X0434768
X0444768
X0454768
X0464768
X0459768Y0116929
X0449768
X0439768
X0429768
X0419768
X0409768
X0399768
X0389768
X0379768
X0369768
X0359768
X0349768
X0339768
X0329768
X0319768
X0469768
X0479768
X0489768
X0499768
X0509768
X0504768Y0124409
X0494768
X0484768
X0474768
X0469768Y013189
X0479768
X0489768
X0499768
X0509768
X0504768Y013937
X0494768
X0484768
X0474768
T07
X0187Y0242
X0197
X022975Y0275
X023975
X01465Y02765
X01365
X0137Y03285
X0147
X02295Y03225
X02395
X0233Y03665
X0223
Y03815
X0233
X01915Y03965
X01815
X02525Y04205
X02625
X04065Y04165
X04165
X04625Y0444
Y0454
X0577Y0407
X0587
X06205Y03895
Y03795
Y0361
Y0351
T09
X0527922Y0436351
X0537922
Y0446351
Y0456351
Y0466351
X0527922
Y0456351
Y0446351
T10
X0233272Y0124409
X0541264
T11
X0141269Y0139349
X065308
X0397174Y0257459
X0140437Y045341
X0413Y04535
X06515Y0452
M30
