M48
;Layer_Color=9474304
;FILE_FORMAT=2:5
INCH,LZ
;TYPE=PLATED
T1F00S00C0.01181
T2F00S00C0.02000
T3F00S00C0.02953
T4F00S00C0.03200
T5F00S00C0.03400
T6F00S00C0.03937
T8F00S00C0.04016
T9F00S00C0.10900
T10F00S00C0.11811
%
T01
X01385Y0119
X01555Y01135
X0122882Y0137224
X0166Y01295
Y01255
X01595Y01225
X0171Y01195
X0173875Y0128625
X0186878Y01285
Y01245
Y012
X0183Y0111
X019Y0106
X0204117Y0116696
X02165Y0116
X02175Y01115
X0215779Y0121121
X0221307Y0137224
X02195Y0148
X0224281Y0147281
X0228182Y0147181
X0232Y01465
X0236
Y0151
Y0155
X02605Y01545
Y0151
Y0147
X02615Y01415
X0255Y01425
X02525Y01385
X0263Y0129
X0281068Y0155569
X01855Y01545
X0177498Y0142001
X0173319Y0142181
X0179122Y0139029
X01885Y01355
X01935
X0201622Y0137224
X0165Y01475
X0158772Y0107228
X0393Y01065
X0368Y01525
X0454811Y01475
X0514Y0147
X05335Y0154
X05305Y013
X054
X0543Y01355
X05535Y01375
X05675Y01395
Y0143
X0567397Y0147103
X0566222Y0152654
X0568Y01555
X0575638Y0137224
X0578Y01265
X0571Y0118
X057025Y0113
X05605Y01125
X0578Y0105
X05865Y01045
X0599Y011
X0598Y0115
X0604825Y0118624
X0609Y0124102
X0611546Y0127591
X0614461Y01175
X0624161Y0119665
X0622074Y0138985
X06055Y0141
X05995Y01415
X05905
X05925Y0151
X06Y0154
X0598Y0126
X0592Y01285
X0525884Y012142
X0627Y01415
X06325Y0142
X06295Y0146
X06315Y01055
X0639Y01095
X0674063Y0137224
X0683906Y0156909
X0664221
X0644535
X0654378Y0176594
X0674063
X0683906Y019628
X0664221
X0644535
X0654378Y0215965
X0674063
X0683906Y023565
X0664221
X0644535
X0654378Y0255335
X0674063
X0683906Y027502
X0674063Y0294705
X0654378
X06555Y028
X0644535Y027502
X0634693Y0294705
X0615008
X0619Y03
X06176Y02842
X0617555Y0270434
X062485Y027502
X0615008Y0255335
X0617647Y0252129
X0612777Y0242823
X0605165Y023565
X058548
X0564Y0236
X055981Y0234053
X056Y02385
X0557Y0228
X0553Y02155
X0552Y02065
X05575
X05605Y02035
X0557Y0201
X0553Y0187
X05455Y01895
X0541243Y0189678
X05435Y01765
X0550069Y0169931
X0533Y0173
X0537431Y0156569
X0526425Y0156909
X050674
X051Y01725
X0501Y0173
X04985Y01775
X0507Y01825
X05065Y0189
X0521782Y0192039
X0522Y0196
Y01995
X0536684Y0200958
X0536013Y0208493
X05345Y0221
X054
X0513Y0231
X0507
X050674Y023565
X051Y02395
X0498Y02305
X0496898Y0255335
X0477213
X0472Y02805
X0531Y028
X05465Y02805
X0555953Y0294705
X0575638
X0573Y0284
X05785Y03075
X0578Y0258
X0574Y02545
X05695Y0251
X0555953Y0255335
X0536268Y0294705
X05225Y0309
X0483695Y0218591
X0488Y0206158
X0487381Y0198441
X048025Y019975
X0478624Y0196124
X0479Y01915
X0481Y0187
X04845
X04885
X0488842Y0168622
X04805Y0171
X0477213Y0176594
X0487055Y0156909
X0559Y0158
X0577Y01645
X0575638Y0176594
X0578Y01905
Y01955
Y0201
X0595323Y0215965
X0615008
X0623Y02005
Y0196
Y0191
X0624452Y0169644
X06245Y01645
X0619696Y0159
X06145
X0606702Y0161
X06065Y0169
X05975Y01705
X05985Y01665
X05955Y01615
X046737Y0156909
X0465Y0172
X0458344Y0174344
X0453Y01795
X0444Y0175
X0437843Y0176594
X04365Y01915
X0436939Y0195811
X0436125Y0201375
X0442819Y0201486
X04435Y0206
X0439249Y0219503
X04555Y0229
X0464229Y0228977
X0467462Y0231462
X0457528Y0255335
X0450003Y0258126
X0447Y02845
X04535Y02885
X0457528Y0294705
X0431Y0305
X04305Y0309
X0418543Y0309725
X0414Y0309829
X0413Y02925
X04095Y0295
X0406
X0402
X03905Y02995
X0378787Y0294705
Y0255335
X0359102
X0339417
X0319732
X03185Y02335
X03265Y0234
X03305Y0233
X033Y0237
X0322341Y0228609
X0336Y0216
X0342
X0347Y0216055
X0359102Y0215965
X03605Y0200622
X03495Y01985
X0349378Y0205254
X03325Y01985
Y0195
Y019
X0332Y0185
X0335622Y01798
X0322Y01795
X03185Y01835
X0317Y0176
X0351479Y0183495
X03575Y01855
X0362Y0173
X0367887Y0172028
X03685Y01765
X0378787Y0176594
X0398472
X0403Y01695
X04115Y01745
X0410191Y0183191
X04Y0189122
X03875Y01915
Y0196
X0388Y02015
X0395075Y0204274
X03995Y02055
X0398472Y0215965
X03955Y02195
X038863Y023565
X0374Y02325
X037Y023
X0366627Y0233351
X03725Y01995
X0414Y01985
X0422
X04445Y01885
X0465Y0187
X04645Y0191
X0428Y0156909
X038863
X034926
X0347Y0271
X0342Y02735
X0336Y02765
X0329575Y027502
X0339417Y0294705
X0317823Y030739
X0418157Y0255335
X0417347Y0233825
X0423Y0235
X0428Y023565
X0414Y0228
X030989Y023565
X0290205
X027052
X0252Y0233
X0258103Y0222007
X0262Y0222
X0260677Y0215965
X025686Y020086
X02565Y01975
X0255Y0189
X026Y01845
X02585Y01735
X0261Y0171
X0266Y01625
X0269Y01795
X02785Y0174
X02835Y01805
X02805Y0188406
X028Y01925
X0280713Y0196575
X027762Y018608
X02965Y0185
X03075Y0176
X030989Y0156909
X031Y0199
X0296688Y0220021
X0282295Y0222048
X0280362Y0215965
X02425Y0214
X0232Y02165
X023Y0199
X02325Y0196
X02305Y0192
X0240603Y01875
X02455Y01855
X0244637Y0179637
X02455Y0173
X0239Y0174
X0237Y0164
X0236Y0159
X0243Y0157
X0212Y0163
X0221307Y0176594
X0207Y01845
X02085Y01885
X0198
X02Y018
X0204Y0182
X01845Y017
X0188Y0157
X0177066Y0160934
X01725Y01625
X01675Y0162
X0168Y0158
X01565Y0157
X01655Y0173899
X016529Y018271
X01625Y0185
X0172Y0198
X01755
X0179148Y0197965
X0190313Y0202813
X01985Y0215
X0203Y0218
X0206Y02205
X0213699Y0219267
X0211465Y023565
X023115
X0225Y02635
Y02685
X02355Y0292
X02515Y02965
X02525Y0306
X0223683Y0306105
X0210427Y0312495
X0193952Y0305567
X01855Y0305
X0175579Y0304998
X0177773Y0257859
X01855Y0258
X0172095Y023565
X01643Y0238135
Y0219852
X0181937Y0215965
X0205Y0284
X02535Y02545
X0300047Y0255335
X02935Y02815
X0281Y0281
X0309Y02915
X0156Y03015
X0142567Y0294705
X0122882
Y0255335
X0142567
X0154Y0241
X0132724Y023565
X0142567Y0215965
X0122882
X0133961Y018571
X0143Y018
X01435Y0195
X01525Y0172
Y0166
X0132724Y0156909
Y031439
X0142567Y0334075
X0122882
X01385Y03585
X0156Y036
X01385Y0379
Y0392
X0142567Y0412815
X0122882
X0132724Y04325
X0152409
X0122882Y0452185
X0162252
X0181937
X01825Y04475
X0191779Y04325
X0208938Y0430937
X0201622Y0412815
X0221307
X0240992
X0260677
X0280362
X0298Y0398
X03035Y0392
X030989Y039313
X0308589Y0341567
X02945Y03305
X0294Y0326
X02895
X0280362Y0334075
X0260677
X0250835Y031439
X0222Y03285
X02235Y03425
X02295Y0338
X0214Y03365
X0199Y03445
X01915
X01865
X0163Y0341
Y0372
X0198Y03675
Y03795
X02105Y03735
X02385Y0353
X02625Y03815
X0260677Y0452185
X0280362
X0282273Y0460703
X0218666Y0466
X0172095Y04325
X0181937Y0412815
X0162252
X032Y0413
Y0419
Y04255
X0327Y0426
Y0419
X03275Y0413
Y0406
X032
X031621Y0398135
X0329575Y039313
X03325Y03875
X0339417Y0373445
X03565Y03705
Y03645
X03585Y0375
X03665Y03705
X0371Y0366
X0378Y0375
X03785Y0379
X0384446Y0375565
X03985Y03805
X04025Y0381
X0414319Y0383182
X0420179Y0381099
X0426Y0383
X0421Y03935
X03985Y03975
X0398472Y0412815
X0408315Y04325
X0428
X0431881Y0415658
X0437843Y0452185
X0445Y04575
X0418157Y0452185
X0378787
X0359102
X0339417
X0341124Y0461131
X03415Y044
X034926Y04325
X0368945
X038863
X0359102Y0412815
X0368945Y039313
X03535Y03875
X03565Y03515
Y0345
X0351959Y0340511
X0362Y0339
X03695Y03385
X0375Y0344
X0378787Y0334075
X03825Y03315
X03855Y0329
X03865Y0325
X0388Y0321
X038Y03275
X03615Y0321
X0339417Y0334075
X0327078Y0342059
X03885Y0348
X04005Y035
X0401Y0346
X04Y0342
X04005Y03555
X0403Y0358171
X0405Y0361
X0411054Y0363077
X0417Y0362
X0420732Y0361914
X0428577Y0363052
X0428Y035376
X0432Y0356
X0428265Y03455
X0428Y03415
Y0337
X0437597Y0329766
X0442Y03285
X04465Y03275
X0457Y03155
X0437Y03125
X0427236Y0315
X0414
X0413457Y03195
X0405583Y0314245
X0402Y03145
X0408315Y035376
X0454149Y0362667
X04545Y0368
X04685Y0362
X0442437Y0378738
X04555Y04355
X04625
X0321Y04325
X0319732Y0452185
X0314855Y0460549
X048Y0453041
X0479982Y0447518
X0487013Y0454902
X04965Y0463
X0516Y04475
X05155Y0444
X050674Y04325
X05225Y0423
X0516583Y0412815
X0523672Y0403737
X0496898Y0412815
X0477213
X0485Y03985
Y0388
X0488Y0385
X0495561Y0373439
X0492184Y0352909
X0487055Y035376
X0526425
X054611
X05745Y03515
X0575638Y0373445
X0559Y03775
X0555953Y0412815
X0565795Y04325
X0565Y0443
X05625Y0452
Y0463
X0595323Y0452185
X0615008
X062485Y04325
X0605165
X058548
X0595323Y0412815
X06005Y0409
X0613103Y0407127
X0615008Y0412815
X0600611Y0364335
X061Y0346
X0615008Y0334075
X0595323
X0578Y0314517
X0617488Y0313403
X062485Y031439
X0473Y03165
X054611Y04325
X0644535
X0664221
X0683906
X0678Y04205
X0674063Y0412815
X06635Y0406
X06675Y03995
X0654378Y0412815
X0634693
X0628Y04095
X0634693Y0452185
X0674063
X06775Y0373
X0677681Y0368682
X06765Y036
X0678Y03515
X06795Y03385
X06785Y03235
X0683906Y031439
X0664221
X0644535
X0658139Y0329435
X0655863Y0337278
X0651872Y0338088
X0634693Y0334075
X0644535Y047187
X0664221
X0683906
X062485
X0605165
X058548
X0565795
X054611
X0538Y0473
X0526425Y047187
X05135Y04825
X0496951Y0469021
X0487055Y047187
X046737
X0447685
X0428
X0408315
X038863
X0368945
X034926
X0329575
X0315Y04705
X0281811Y0470539
X027052Y047187
X0250835
X0223373Y0479108
X0211465Y047187
X0191779
X0291853Y0481143
X0152409Y047187
X0132724
T02
X0253Y0438252
Y0446126
Y0454
T03
X0127Y0366752
Y0374626
Y03825
T04
X0246898Y0432346
X0267764
Y0475654
X0246898
T05
X0269768Y0112992
X0279768
X0289768
X0299768
X0309768
X0304768Y0120472
X0294768
X0284768
X0274768
X0264768
X0269768Y0127953
X0279768
X0289768
X0299768
X0309768
X0304768Y0135433
X0294768
X0284768
X0274768
X0264768
X0314768
X0324768
X0334768
X0344768
X0354768
X0364768
X0374768
X0384768
X0394768
X0404768
X0414768
X0424768
X0434768
X0444768
X0454768
X0464768
X0459768Y0127953
X0449768
X0439768
X0429768
X0419768
X0409768
X0399768
X0389768
X0379768
X0369768
X0359768
X0349768
X0339768
X0329768
X0319768
X0324768Y0120472
X0334768
X0344768
X0354768
X0364768
X0374768
X0384768
X0394768
X0404768
X0414768
X0424768
X0434768
X0444768
X0454768
X0464768
X0459768Y0112992
X0449768
X0439768
X0429768
X0419768
X0409768
X0399768
X0389768
X0379768
X0369768
X0359768
X0349768
X0339768
X0329768
X0319768
X0314768Y0120472
X0474768
X0484768
X0494768
X0504768
X0509768Y0112992
X0499768
X0489768
X0479768
X0469768
Y0127953
X0479768
X0489768
X0499768
X0509768
X0504768Y0135433
X0494768
X0484768
X0474768
T06
X0187Y0242
X0197
X022975Y0275
X023975
X01465Y02765
X01365
X0137Y03285
X0147
X02295Y03225
X02395
X0233Y03665
X0223
Y03815
X0233
X01915Y03965
X01815
X02525Y04205
X02625
X04065Y04165
X04165
X04625Y0444
Y0454
X0577Y0407
X0587
X06205Y03895
Y03795
Y0361
Y0351
T08
X0527922Y0436351
X0537922
Y0446351
Y0456351
Y0466351
X0527922
Y0456351
Y0446351
T09
X0233272Y0120472
X0541264
T10
X0141269Y0139349
X065308
X0397174Y0257459
X0140437Y045341
X0396343Y045341
X06515Y0452
M30
