%TF.GenerationSoftware,Altium Limited,Altium Designer,20.2.5 (213)*%
G04 Layer_Color=0*
%FSLAX26Y26*%
%MOIN*%
%TF.SameCoordinates,271AC680-9A3E-4A00-A3D7-6C105C8C782D*%
%TF.FilePolarity,Positive*%
%TF.FileFunction,Other,Top_Component_Center*%
%TF.Part,Single*%
G01*
G75*
%TA.AperFunction,NonConductor*%
%ADD99C,0.003937*%
D99*
X2657200Y3660000D02*
X2696570D01*
X2676886Y3640316D02*
Y3679686D01*
X3385000Y3240316D02*
Y3279686D01*
X3365316Y3260000D02*
X3404686D01*
X3680000Y3397816D02*
Y3437186D01*
X3660316Y3417500D02*
X3699686D01*
X3985316Y3760000D02*
X4024686D01*
X4005000Y3740316D02*
Y3779686D01*
X5290316Y4225000D02*
X5329686D01*
X5310000Y4205316D02*
Y4244686D01*
X3058632Y4094124D02*
X3098002D01*
X3078316Y4074440D02*
Y4113810D01*
X3056034Y4209124D02*
X3095404D01*
X3075718Y4189440D02*
Y4228810D01*
X2862482Y4209124D02*
X2901852D01*
X2882166Y4189440D02*
Y4228810D01*
X2250316Y4615000D02*
X2289686D01*
X2270000Y4595316D02*
Y4634686D01*
X2251782Y4735000D02*
X2291152D01*
X2271466Y4715316D02*
Y4754686D01*
X1480000Y3605316D02*
Y3644686D01*
X1460316Y3625000D02*
X1499686D01*
X1870000Y3620316D02*
Y3659686D01*
X1850316Y3640000D02*
X1889686D01*
X1580000Y1439842D02*
Y1479212D01*
X1560316Y1459528D02*
X1599686D01*
X5355000Y2880316D02*
Y2919686D01*
X5335316Y2900000D02*
X5374686D01*
X5065000Y4460316D02*
Y4499686D01*
X5045316Y4480000D02*
X5084686D01*
X5065000Y4365316D02*
Y4404686D01*
X5045316Y4385000D02*
X5084686D01*
X4435316Y3625000D02*
X4474686D01*
X4455000Y3605316D02*
Y3644686D01*
X3815000Y3365314D02*
Y3404684D01*
X3795316Y3385000D02*
X3834686D01*
X5558386Y2985000D02*
X5631614D01*
X5595000Y2948386D02*
Y3021614D01*
X3460316Y3255000D02*
X3499686D01*
X3480000Y3235316D02*
Y3274686D01*
X6760316Y4060000D02*
X6799686D01*
X6780000Y4040316D02*
Y4079686D01*
X3865000Y3515316D02*
Y3554686D01*
X3845316Y3535000D02*
X3884686D01*
X3625316Y3652500D02*
X3664686D01*
X3645000Y3632816D02*
Y3672186D01*
X3800000Y3482816D02*
Y3522186D01*
X3780316Y3502500D02*
X3819686D01*
X3168082Y3066210D02*
X3207452D01*
X3187768Y3046526D02*
Y3085896D01*
X2912768Y2806526D02*
Y2845896D01*
X2893082Y2826210D02*
X2932452D01*
X3037256Y2530316D02*
Y2569686D01*
X3017572Y2550000D02*
X3056942D01*
X3013082Y2676210D02*
X3052452D01*
X3032768Y2656526D02*
Y2695896D01*
X3910316Y3118552D02*
X3949686D01*
X3930000Y3098866D02*
Y3138236D01*
X3810000Y3095316D02*
Y3134686D01*
X3790316Y3115000D02*
X3829686D01*
X2640000Y3090316D02*
Y3129686D01*
X2620316Y3110000D02*
X2659686D01*
X1830000Y3145316D02*
Y3184686D01*
X1810316Y3165000D02*
X1849686D01*
X5935906Y1340000D02*
X5975276D01*
X5955590Y1320316D02*
Y1359686D01*
X3103386Y3345000D02*
X3176614D01*
X3140000Y3308386D02*
Y3381614D01*
X3870000Y3368116D02*
Y3407486D01*
X3850316Y3387802D02*
X3889686D01*
X4160316Y3030000D02*
X4199686D01*
X4180000Y3010316D02*
Y3049686D01*
X4312198Y3090316D02*
Y3129686D01*
X4292514Y3110000D02*
X4331884D01*
X4312198Y3160316D02*
Y3199686D01*
X4292514Y3180000D02*
X4331884D01*
X4210000Y2883976D02*
Y2923346D01*
X4190316Y2903662D02*
X4229686D01*
X4445000Y2953976D02*
Y2993346D01*
X4425316Y2973662D02*
X4464686D01*
X1858316Y2593552D02*
X1897686D01*
X1878000Y2573866D02*
Y2613236D01*
X2093000Y2414842D02*
Y2454212D01*
X2073316Y2434528D02*
X2112686D01*
X1988000Y2410316D02*
Y2449686D01*
X1968316Y2430000D02*
X2007686D01*
X2340000Y3385316D02*
Y3424686D01*
X2320316Y3405000D02*
X2359686D01*
X1835000Y3300316D02*
Y3339686D01*
X1815316Y3320000D02*
X1854686D01*
X2125000Y3252514D02*
Y3291884D01*
X2105316Y3272198D02*
X2144686D01*
X1635316Y2972952D02*
X1674686D01*
X1655000Y2953268D02*
Y2992638D01*
X1760316Y2974922D02*
X1799686D01*
X1780000Y2955236D02*
Y2994606D01*
X2000000Y3105316D02*
Y3144686D01*
X1980316Y3125000D02*
X2019686D01*
X3745000Y3855316D02*
Y3894686D01*
X3725316Y3875000D02*
X3764686D01*
X1518000Y2170316D02*
Y2209686D01*
X1498316Y2190000D02*
X1537686D01*
X2224528Y2170316D02*
Y2209686D01*
X2204842Y2190000D02*
X2244212D01*
X1495316Y1870000D02*
X1534686D01*
X1515000Y1850316D02*
Y1889686D01*
X5955316Y1785000D02*
X5994686D01*
X5975000Y1765316D02*
Y1804686D01*
X5655000Y2175316D02*
Y2214686D01*
X5635316Y2195000D02*
X5674686D01*
X2722320Y2175316D02*
Y2214686D01*
X2702636Y2195000D02*
X2742006D01*
X3235000Y2180316D02*
Y2219686D01*
X3215316Y2200000D02*
X3254686D01*
X4245000Y2175316D02*
Y2214686D01*
X4225316Y2195000D02*
X4264686D01*
X3760588Y2175316D02*
Y2214686D01*
X3740902Y2195000D02*
X3780272D01*
X4695000Y2170316D02*
Y2209686D01*
X4675316Y2190000D02*
X4714686D01*
X5140472Y2175316D02*
Y2214686D01*
X5120788Y2195000D02*
X5160158D01*
X5329218Y4493828D02*
Y4533198D01*
X5309534Y4513514D02*
X5348904D01*
X2765316Y3665000D02*
X2804686D01*
X2785000Y3645316D02*
Y3684686D01*
X2765316Y3835000D02*
X2804686D01*
X2785000Y3815316D02*
Y3854686D01*
X5448662Y4010316D02*
Y4049686D01*
X5428976Y4030000D02*
X5468346D01*
X5624458Y3501304D02*
Y3540674D01*
X5604772Y3520988D02*
X5644142D01*
X2865316Y3945000D02*
X2904686D01*
X2885000Y3925316D02*
Y3964686D01*
X2010000Y3715316D02*
Y3754686D01*
X1990316Y3735000D02*
X2029686D01*
X4730316Y4526526D02*
X4769686D01*
X4750000Y4506842D02*
Y4546212D01*
X3125316Y3555000D02*
X3164686D01*
X3145000Y3535316D02*
Y3574686D01*
X6607284Y2891812D02*
Y2931182D01*
X6587598Y2911496D02*
X6626968D01*
X5990022Y3191102D02*
X6029392D01*
X6009706Y3171418D02*
Y3210788D01*
X5995022Y2891102D02*
X6034392D01*
X6014706Y2871418D02*
Y2910788D01*
X5995022Y2596102D02*
X6034392D01*
X6014706Y2576418D02*
Y2615788D01*
X6384706Y2829834D02*
Y2869204D01*
X6365022Y2849520D02*
X6404392D01*
X6385000Y2540316D02*
Y2579686D01*
X6365316Y2560000D02*
X6404686D01*
X1575316Y3840000D02*
X1614686D01*
X1595000Y3820316D02*
Y3859686D01*
X1720000Y3775316D02*
Y3814686D01*
X1700316Y3795000D02*
X1739686D01*
X3260316Y4600000D02*
X3299686D01*
X3280000Y4580316D02*
Y4619686D01*
X4020316Y3175000D02*
X4059686D01*
X4040000Y3155316D02*
Y3194686D01*
X3795000Y3665316D02*
Y3704686D01*
X3775316Y3685000D02*
X3814686D01*
X3860000Y3665316D02*
Y3704686D01*
X3840316Y3685000D02*
X3879686D01*
%TF.MD5,c322d704cf5e990d0e997aa65cdcbc13*%
M02*
