%TF.GenerationSoftware,Altium Limited,Altium Designer,20.2.5 (213)*%
G04 Layer_Color=16711935*
%FSLAX26Y26*%
%MOIN*%
%TF.SameCoordinates,271AC680-9A3E-4A00-A3D7-6C105C8C782D*%
%TF.FilePolarity,Positive*%
%TF.FileFunction,Other,Top_3D_Body*%
%TF.Part,Single*%
G01*
G75*
%TA.AperFunction,NonConductor*%
%ADD86C,0.020000*%
%ADD88C,0.007874*%
%ADD99C,0.003937*%
%ADD102C,0.005000*%
%ADD140C,0.001000*%
%ADD141C,0.003000*%
G36*
X2533807Y4599000D02*
X2612807D01*
Y4540000D01*
X2533807D01*
Y4599000D01*
D02*
G37*
D86*
X5192679Y1318898D02*
G03*
X5192679Y1318898I-15000J0D01*
G01*
D88*
X2333937Y3732598D02*
G03*
X2333937Y3732598I-3937J0D01*
G01*
X6276535Y3795000D02*
G03*
X6276535Y3795000I-3937J0D01*
G01*
X3989134Y2130709D02*
G03*
X3989134Y2130709I-3937J0D01*
G01*
X1918937Y4032598D02*
G03*
X1918937Y4032598I-3937J0D01*
G01*
X1473937Y3362598D02*
G03*
X1473937Y3362598I-3937J0D01*
G01*
X1573228Y1065197D02*
G03*
X1573228Y1065197I-3937J0D01*
G01*
X4006339Y4260000D02*
G03*
X4006339Y4260000I-3937J0D01*
G01*
X3702126Y3439980D02*
G03*
X3702126Y3439980I-3937J0D01*
G01*
X1966142Y2130709D02*
G03*
X1966142Y2130709I-3937J0D01*
G01*
X2984134D02*
G03*
X2984134Y2130709I-3937J0D01*
G01*
X2446927D02*
G03*
X2446927Y2130709I-3937J0D01*
G01*
X5382126D02*
G03*
X5382126Y2130709I-3937J0D01*
G01*
X6028228Y1465197D02*
G03*
X6028228Y1465197I-3937J0D01*
G01*
Y1045197D02*
G03*
X6028228Y1045197I-3937J0D01*
G01*
X2398937Y3282598D02*
G03*
X2398937Y3282598I-3937J0D01*
G01*
X2301937Y2702598D02*
G03*
X2301937Y2702598I-3937J0D01*
G01*
X2013937Y2867598D02*
G03*
X2013937Y2867598I-3937J0D01*
G01*
X1631937Y2702598D02*
G03*
X1631937Y2702598I-3937J0D01*
G01*
X4874134Y2130709D02*
G03*
X4874134Y2130709I-3937J0D01*
G01*
X4444134D02*
G03*
X4444134Y2130709I-3937J0D01*
G01*
X3494134D02*
G03*
X3494134Y2130709I-3937J0D01*
G01*
X1588228Y1620197D02*
G03*
X1588228Y1620197I-3937J0D01*
G01*
X5763937Y4002402D02*
G03*
X5763937Y4002402I-3937J0D01*
G01*
X2333937Y3882598D02*
G03*
X2333937Y3882598I-3937J0D01*
G01*
X4696535Y4440000D02*
G03*
X4696535Y4440000I-3937J0D01*
G01*
X6276535Y3510000D02*
G03*
X6276535Y3510000I-3937J0D01*
G01*
X2628937Y4272598D02*
G03*
X2628937Y4272598I-3937J0D01*
G01*
X2652280Y3699370D02*
X2701492D01*
X2652280Y3620630D02*
Y3699370D01*
Y3620630D02*
X2701492D01*
Y3699370D01*
X3411574Y3216692D02*
Y3303308D01*
X3358426Y3216692D02*
X3411574D01*
X3358426D02*
Y3303308D01*
X3411574D01*
X3699686Y3407658D02*
Y3427342D01*
X3660316D02*
X3699686D01*
X3660316Y3407658D02*
Y3427342D01*
Y3407658D02*
X3699686D01*
X3985316Y3769842D02*
X4024686D01*
Y3750158D02*
Y3769842D01*
X3985316Y3750158D02*
X4024686D01*
X3985316D02*
Y3769842D01*
X5270630Y4249606D02*
X5349370D01*
Y4200394D02*
Y4249606D01*
X5270630Y4200394D02*
X5349370D01*
X5270630D02*
Y4249606D01*
X3038946Y4069518D02*
X3117686D01*
X3038946D02*
Y4118730D01*
X3117686D01*
Y4069518D02*
Y4118730D01*
X3036348Y4184518D02*
X3115088D01*
X3036348D02*
Y4233730D01*
X3115088D01*
Y4184518D02*
Y4233730D01*
X2842796D02*
X2921536D01*
Y4184518D02*
Y4233730D01*
X2842796Y4184518D02*
X2921536D01*
X2842796D02*
Y4233730D01*
X2230630Y4590394D02*
X2309370D01*
X2230630D02*
Y4639606D01*
X2309370D01*
Y4590394D02*
Y4639606D01*
X2232096Y4710394D02*
X2310836D01*
X2232096D02*
Y4759606D01*
X2310836D01*
Y4710394D02*
Y4759606D01*
X1455394Y3585630D02*
Y3664370D01*
X1504606D01*
Y3585630D02*
Y3664370D01*
X1455394Y3585630D02*
X1504606D01*
X1826692Y3613426D02*
Y3666574D01*
Y3613426D02*
X1913308D01*
Y3666574D01*
X1826692D02*
X1913308D01*
X1555394Y1420158D02*
Y1498898D01*
X1604606D01*
Y1420158D02*
Y1498898D01*
X1555394Y1420158D02*
X1604606D01*
X5315630Y2875394D02*
Y2924606D01*
Y2875394D02*
X5394370D01*
Y2924606D01*
X5315630D02*
X5394370D01*
X5021692Y4453426D02*
Y4506574D01*
Y4453426D02*
X5108308D01*
Y4506574D01*
X5021692D02*
X5108308D01*
X5021692Y4358426D02*
Y4411574D01*
Y4358426D02*
X5108308D01*
Y4411574D01*
X5021692D02*
X5108308D01*
X4445158Y3644686D02*
X4464842D01*
X4445158Y3605316D02*
Y3644686D01*
Y3605316D02*
X4464842D01*
Y3644686D01*
X3805158Y3365314D02*
Y3404684D01*
X3824842D01*
Y3365314D02*
Y3404684D01*
X3805158Y3365314D02*
X3824842D01*
X5476890Y2866890D02*
Y3103110D01*
X5713110D01*
Y2866890D02*
Y3103110D01*
X5476890Y2866890D02*
X5713110D01*
X3455394Y3294370D02*
X3504606D01*
X3455394Y3215630D02*
Y3294370D01*
Y3215630D02*
X3504606D01*
Y3294370D01*
X6740630Y4035394D02*
X6819370D01*
X6740630D02*
Y4084606D01*
X6819370D01*
Y4035394D02*
Y4084606D01*
X3855158Y3515316D02*
Y3554686D01*
X3874842D01*
Y3515316D02*
Y3554686D01*
X3855158Y3515316D02*
X3874842D01*
X3625316Y3662342D02*
X3664686D01*
Y3642658D02*
Y3662342D01*
X3625316Y3642658D02*
X3664686D01*
X3625316D02*
Y3662342D01*
X3809842Y3482816D02*
Y3522186D01*
X3790158Y3482816D02*
X3809842D01*
X3790158D02*
Y3522186D01*
X3809842D01*
X3148398Y3041604D02*
X3227138D01*
X3148398D02*
Y3090816D01*
X3227138D01*
Y3041604D02*
Y3090816D01*
X2937374Y2786840D02*
Y2865580D01*
X2888162Y2786840D02*
X2937374D01*
X2888162D02*
Y2865580D01*
X2937374D01*
X2997886Y2525394D02*
Y2574606D01*
Y2525394D02*
X3076626D01*
Y2574606D01*
X2997886D02*
X3076626D01*
X2993398Y2700816D02*
X3072138D01*
Y2651604D02*
Y2700816D01*
X2993398Y2651604D02*
X3072138D01*
X2993398D02*
Y2700816D01*
X3905394Y3157922D02*
X3954606D01*
X3905394Y3079182D02*
Y3157922D01*
Y3079182D02*
X3954606D01*
Y3157922D01*
X3785394Y3075630D02*
Y3154370D01*
X3834606D01*
Y3075630D02*
Y3154370D01*
X3785394Y3075630D02*
X3834606D01*
X2664606Y3070630D02*
Y3149370D01*
X2615394Y3070630D02*
X2664606D01*
X2615394D02*
Y3149370D01*
X2664606D01*
X1854606Y3125630D02*
Y3204370D01*
X1805394Y3125630D02*
X1854606D01*
X1805394D02*
Y3204370D01*
X1854606D01*
X5916220Y1315394D02*
X5994960D01*
X5916220D02*
Y1364606D01*
X5994960D01*
Y1315394D02*
Y1364606D01*
X3021890Y3226890D02*
Y3463110D01*
Y3226890D02*
X3258110D01*
Y3463110D01*
X3021890D02*
X3258110D01*
X3860158Y3368116D02*
Y3407486D01*
X3879842D01*
Y3368116D02*
Y3407486D01*
X3860158Y3368116D02*
X3879842D01*
X4140630Y3005394D02*
X4219370D01*
X4140630D02*
Y3054606D01*
X4219370D01*
Y3005394D02*
Y3054606D01*
X4331884Y3100158D02*
Y3119842D01*
X4292514D02*
X4331884D01*
X4292514Y3100158D02*
Y3119842D01*
Y3100158D02*
X4331884D01*
Y3170158D02*
Y3189842D01*
X4292514D02*
X4331884D01*
X4292514Y3170158D02*
Y3189842D01*
Y3170158D02*
X4331884D01*
X4183426Y2860354D02*
Y2946968D01*
X4236574D01*
Y2860354D02*
Y2946968D01*
X4183426Y2860354D02*
X4236574D01*
X4418426Y2930354D02*
Y3016968D01*
X4471574D01*
Y2930354D02*
Y3016968D01*
X4418426Y2930354D02*
X4471574D01*
X1853394Y2632922D02*
X1902606D01*
X1853394Y2554182D02*
Y2632922D01*
Y2554182D02*
X1902606D01*
Y2632922D01*
X2068394Y2395158D02*
Y2473898D01*
X2117606D01*
Y2395158D02*
Y2473898D01*
X2068394Y2395158D02*
X2117606D01*
X2014574Y2386692D02*
Y2473308D01*
X1961426Y2386692D02*
X2014574D01*
X1961426D02*
Y2473308D01*
X2014574D01*
X2296692Y3378426D02*
Y3431574D01*
Y3378426D02*
X2383308D01*
Y3431574D01*
X2296692D02*
X2383308D01*
X1810394Y3280630D02*
Y3359370D01*
X1859606D01*
Y3280630D02*
Y3359370D01*
X1810394Y3280630D02*
X1859606D01*
X2115158Y3252514D02*
Y3291884D01*
X2134842D01*
Y3252514D02*
Y3291884D01*
X2115158Y3252514D02*
X2134842D01*
X1628426Y3016260D02*
X1681574D01*
X1628426Y2929646D02*
Y3016260D01*
Y2929646D02*
X1681574D01*
Y3016260D01*
X1752440Y3018228D02*
X1807560D01*
X1752440Y2931614D02*
Y3018228D01*
Y2931614D02*
X1807560D01*
Y3018228D01*
X2043308Y3098426D02*
Y3151574D01*
X1956692D02*
X2043308D01*
X1956692Y3098426D02*
Y3151574D01*
Y3098426D02*
X2043308D01*
X3718426Y3831692D02*
Y3918308D01*
X3771574D01*
Y3831692D02*
Y3918308D01*
X3718426Y3831692D02*
X3771574D01*
X1542606Y2150630D02*
Y2229370D01*
X1493394Y2150630D02*
X1542606D01*
X1493394D02*
Y2229370D01*
X1542606D01*
X2263898Y2165394D02*
Y2214606D01*
X2185158D02*
X2263898D01*
X2185158Y2165394D02*
Y2214606D01*
Y2165394D02*
X2263898D01*
X1490394Y1909370D02*
X1539606D01*
X1490394Y1830630D02*
Y1909370D01*
Y1830630D02*
X1539606D01*
Y1909370D01*
X5950394Y1745630D02*
X5999606D01*
Y1824370D01*
X5950394D02*
X5999606D01*
X5950394Y1745630D02*
Y1824370D01*
X5694370Y2170394D02*
Y2219606D01*
X5615630D02*
X5694370D01*
X5615630Y2170394D02*
Y2219606D01*
Y2170394D02*
X5694370D01*
X2761690D02*
Y2219606D01*
X2682950D02*
X2761690D01*
X2682950Y2170394D02*
Y2219606D01*
Y2170394D02*
X2761690D01*
X3274370Y2175394D02*
Y2224606D01*
X3195630D02*
X3274370D01*
X3195630Y2175394D02*
Y2224606D01*
Y2175394D02*
X3274370D01*
X4284370Y2170394D02*
Y2219606D01*
X4205630D02*
X4284370D01*
X4205630Y2170394D02*
Y2219606D01*
Y2170394D02*
X4284370D01*
X3799958D02*
Y2219606D01*
X3721218D02*
X3799958D01*
X3721218Y2170394D02*
Y2219606D01*
Y2170394D02*
X3799958D01*
X4734370Y2165394D02*
Y2214606D01*
X4655630D02*
X4734370D01*
X4655630Y2165394D02*
Y2214606D01*
Y2165394D02*
X4734370D01*
X5179842Y2170394D02*
Y2219606D01*
X5101102D02*
X5179842D01*
X5101102Y2170394D02*
Y2219606D01*
Y2170394D02*
X5179842D01*
X5432170Y4296782D02*
Y4730246D01*
X5226266Y4296782D02*
X5432170D01*
X5226266D02*
Y4730246D01*
X5432170D01*
X2760394Y3704370D02*
X2809606D01*
X2760394Y3625630D02*
Y3704370D01*
Y3625630D02*
X2809606D01*
Y3704370D01*
X2760394Y3795630D02*
X2809606D01*
Y3874370D01*
X2760394D02*
X2809606D01*
X2760394Y3795630D02*
Y3874370D01*
X5491968Y4003426D02*
Y4056574D01*
X5405354D02*
X5491968D01*
X5405354Y4003426D02*
Y4056574D01*
Y4003426D02*
X5491968D01*
X5599852Y3481618D02*
Y3560358D01*
X5649064D01*
Y3481618D02*
Y3560358D01*
X5599852Y3481618D02*
X5649064D01*
X2841692Y3971574D02*
X2928308D01*
Y3918426D02*
Y3971574D01*
X2841692Y3918426D02*
X2928308D01*
X2841692D02*
Y3971574D01*
X2049370Y3710394D02*
Y3759606D01*
X1970630D02*
X2049370D01*
X1970630Y3710394D02*
Y3759606D01*
Y3710394D02*
X2049370D01*
X4725394Y4487156D02*
X4774606D01*
Y4565898D01*
X4725394D02*
X4774606D01*
X4725394Y4487156D02*
Y4565898D01*
X3120394Y3515630D02*
X3169606D01*
Y3594370D01*
X3120394D02*
X3169606D01*
X3120394Y3515630D02*
Y3594370D01*
X6640748Y2878032D02*
Y2944960D01*
X6573818Y2878032D02*
X6640748D01*
X6573818D02*
Y2944960D01*
X6640748D01*
X5970336Y3215708D02*
X6049076D01*
Y3166496D02*
Y3215708D01*
X5970336Y3166496D02*
X6049076D01*
X5970336D02*
Y3215708D01*
X5975336Y2915708D02*
X6054076D01*
Y2866496D02*
Y2915708D01*
X5975336Y2866496D02*
X6054076D01*
X5975336D02*
Y2915708D01*
Y2620708D02*
X6054076D01*
Y2571496D02*
Y2620708D01*
X5975336Y2571496D02*
X6054076D01*
X5975336D02*
Y2620708D01*
X6360100Y2810148D02*
Y2888890D01*
X6409312D01*
Y2810148D02*
Y2888890D01*
X6360100Y2810148D02*
X6409312D01*
X6360394Y2520630D02*
Y2599370D01*
X6409606D01*
Y2520630D02*
Y2599370D01*
X6360394Y2520630D02*
X6409606D01*
X1551692Y3813426D02*
X1638308D01*
X1551692D02*
Y3866574D01*
X1638308D01*
Y3813426D02*
Y3866574D01*
X1693426Y3751692D02*
Y3838308D01*
X1746574D01*
Y3751692D02*
Y3838308D01*
X1693426Y3751692D02*
X1746574D01*
X3255394Y4560630D02*
X3304606D01*
Y4639370D01*
X3255394D02*
X3304606D01*
X3255394Y4560630D02*
Y4639370D01*
X4020316Y3165158D02*
X4059686D01*
X4020316D02*
Y3184842D01*
X4059686D01*
Y3165158D02*
Y3184842D01*
X3785158Y3665316D02*
Y3704686D01*
X3804842D01*
Y3665316D02*
Y3704686D01*
X3785158Y3665316D02*
X3804842D01*
X3850158D02*
Y3704686D01*
X3869842D01*
Y3665316D02*
Y3704686D01*
X3850158Y3665316D02*
X3869842D01*
D99*
X1995079Y3239921D02*
G03*
X1995079Y3239921I-19685J0D01*
G01*
X4018268Y3631417D02*
G03*
X4018268Y3631417I-19685J0D01*
G01*
X2431692Y2171456D02*
X2518308D01*
X2431692Y2228544D02*
X2518308D01*
Y2171456D02*
Y2228544D01*
X2431692Y2171456D02*
Y2228544D01*
X6078544Y3012796D02*
Y3099410D01*
X6021456Y3012796D02*
Y3099410D01*
X6078544D01*
X6021456Y3012796D02*
X6078544D01*
X3816692Y3886456D02*
X3903308D01*
X3816692Y3943544D02*
X3903308D01*
Y3886456D02*
Y3943544D01*
X3816692Y3886456D02*
Y3943544D01*
X3901338Y3798426D02*
Y3851574D01*
X3818662Y3798426D02*
Y3851574D01*
Y3798426D02*
X3901338D01*
X3818662Y3851574D02*
X3901338D01*
X5165364Y3547382D02*
Y3600532D01*
X5082686Y3547382D02*
Y3600532D01*
Y3547382D02*
X5165364D01*
X5082686Y3600532D02*
X5165364D01*
X5082686Y3690532D02*
X5165364D01*
X5082686Y3637382D02*
X5165364D01*
X5082686D02*
Y3690532D01*
X5165364Y3637382D02*
Y3690532D01*
X4982884Y3580296D02*
X5036032D01*
X4982884Y3497618D02*
X5036032D01*
Y3580296D01*
X4982884Y3497618D02*
Y3580296D01*
X5100906Y4663426D02*
Y4716574D01*
X5018228Y4663426D02*
Y4716574D01*
Y4663426D02*
X5100906D01*
X5018228Y4716574D02*
X5100906D01*
X4821456Y1791692D02*
Y1878308D01*
X4878544Y1791692D02*
Y1878308D01*
X4821456Y1791692D02*
X4878544D01*
X4821456Y1878308D02*
X4878544D01*
X6038426Y3719094D02*
Y3801772D01*
X6091574Y3719094D02*
Y3801772D01*
X6038426Y3719094D02*
X6091574D01*
X6038426Y3801772D02*
X6091574D01*
X1896556Y4463190D02*
X1902462Y4469094D01*
Y4463190D02*
Y4486812D01*
X1863092D02*
X1902462D01*
X1863092Y4463190D02*
Y4486812D01*
Y4463190D02*
X1902462D01*
X1747826Y4549342D02*
Y5116270D01*
X2102156D01*
Y4549342D02*
Y5116270D01*
X1747826Y4549342D02*
X2102156D01*
X2295394Y4411536D02*
X2344606D01*
X2295394D02*
Y4478464D01*
X2344606D01*
Y4411536D02*
Y4478464D01*
X2148662Y4283426D02*
Y4336574D01*
X2231338Y4283426D02*
Y4336574D01*
X2148662D02*
X2231338D01*
X2148662Y4283426D02*
X2231338D01*
X1390906Y3649686D02*
X1396812Y3643780D01*
X1373190Y3649686D02*
X1396812D01*
X1373190Y3610316D02*
Y3649686D01*
Y3610316D02*
X1396812D01*
Y3649686D01*
X1373190Y3734842D02*
X1379094Y3728938D01*
X1373190D02*
X1396812D01*
Y3768308D01*
X1373190D02*
X1396812D01*
X1373190Y3728938D02*
Y3768308D01*
X1922086Y3753504D02*
Y3816496D01*
X1807914Y3753504D02*
X1922086D01*
X1807914D02*
Y3816496D01*
X1922086D01*
X1884686D02*
X1922086Y3779094D01*
X1448544Y1101692D02*
Y1188308D01*
X1391456Y1101692D02*
Y1188308D01*
X1448544D01*
X1391456Y1101692D02*
X1448544D01*
X5834568Y1276300D02*
X5873938D01*
Y1126694D02*
Y1276300D01*
X5834568Y1126694D02*
X5873938D01*
X5834568D02*
Y1276300D01*
X6271692Y1596456D02*
X6358308D01*
X6271692Y1653544D02*
X6358308D01*
Y1596456D02*
Y1653544D01*
X6271692Y1596456D02*
Y1653544D01*
X6083544Y2716692D02*
Y2803308D01*
X6026456Y2716692D02*
Y2803308D01*
X6083544D01*
X6026456Y2716692D02*
X6083544D01*
Y2425276D02*
Y2511890D01*
X6026456Y2425276D02*
Y2511890D01*
X6083544D01*
X6026456Y2425276D02*
X6083544D01*
X5399290Y3109656D02*
Y3162806D01*
X5316614Y3109656D02*
Y3162806D01*
Y3109656D02*
X5399290D01*
X5316614Y3162806D02*
X5399290D01*
X5401260Y3002688D02*
Y3059774D01*
X5314644Y3002688D02*
Y3059774D01*
Y3002688D02*
X5401260D01*
X5314644Y3059774D02*
X5401260D01*
X5165364Y3977382D02*
Y4030532D01*
X5082686Y3977382D02*
Y4030532D01*
Y3977382D02*
X5165364D01*
X5082686Y4030532D02*
X5165364D01*
Y3882382D02*
Y3935532D01*
X5082686Y3882382D02*
Y3935532D01*
Y3882382D02*
X5165364D01*
X5082686Y3935532D02*
X5165364D01*
Y3787382D02*
Y3840532D01*
X5082686Y3787382D02*
Y3840532D01*
Y3787382D02*
X5165364D01*
X5082686Y3840532D02*
X5165364D01*
X4982884Y3657618D02*
X5036032D01*
X4982884Y3740296D02*
X5036032D01*
X4982884Y3657618D02*
Y3740296D01*
X5036032Y3657618D02*
Y3740296D01*
X5023238Y3787382D02*
Y3840532D01*
X4940560Y3787382D02*
Y3840532D01*
Y3787382D02*
X5023238D01*
X4940560Y3840532D02*
X5023238D01*
X4940560Y3882382D02*
Y3935532D01*
X5023238Y3882382D02*
Y3935532D01*
X4940560D02*
X5023238D01*
X4940560Y3882382D02*
X5023238D01*
X5100906Y4553426D02*
Y4606574D01*
X5018228Y4553426D02*
Y4606574D01*
Y4553426D02*
X5100906D01*
X5018228Y4606574D02*
X5100906D01*
X3588074Y1624156D02*
Y1663526D01*
X3737680D01*
Y1624156D02*
Y1663526D01*
X3588074Y1624156D02*
X3737680D01*
X2990680Y2827116D02*
X3028082Y2789714D01*
X2990680D02*
X3104854D01*
Y2852706D01*
X2990680D02*
X3104854D01*
X2990680Y2789714D02*
Y2852706D01*
X2888662Y2933426D02*
X2971338D01*
X2888662Y2986574D02*
X2971338D01*
Y2933426D02*
Y2986574D01*
X2888662Y2933426D02*
Y2986574D01*
X2724460Y2934636D02*
Y2987786D01*
X2811074Y2934636D02*
Y2987786D01*
X2724460D02*
X2811074D01*
X2724460Y2934636D02*
X2811074D01*
X2710680Y3102116D02*
X2748082Y3064714D01*
X2710680D02*
X2824854D01*
Y3127706D01*
X2710680D02*
X2824854D01*
X2710680Y3064714D02*
Y3127706D01*
X3140878Y2932668D02*
X3227492D01*
X3140878Y2989754D02*
X3227492D01*
Y2932668D02*
Y2989754D01*
X3140878Y2932668D02*
Y2989754D01*
X3139460Y2704754D02*
X3226074D01*
X3139460Y2647668D02*
X3226074D01*
X3139460D02*
Y2704754D01*
X3226074Y2647668D02*
Y2704754D01*
X1473544Y1656692D02*
Y1743308D01*
X1416456Y1656692D02*
Y1743308D01*
X1473544D01*
X1416456Y1656692D02*
X1473544D01*
X3451692Y1831456D02*
X3538308D01*
X3451692Y1888544D02*
X3538308D01*
Y1831456D02*
Y1888544D01*
X3451692Y1831456D02*
Y1888544D01*
X2971692Y1863544D02*
X3058308D01*
X2971692Y1806456D02*
X3058308D01*
X2971692D02*
Y1863544D01*
X3058308Y1806456D02*
Y1863544D01*
X6291338Y1241456D02*
X6377952D01*
X6291338Y1298544D02*
X6377952D01*
Y1241456D02*
Y1298544D01*
X6291338Y1241456D02*
Y1298544D01*
X4288662Y2843426D02*
X4371338D01*
X4288662Y2896574D02*
X4371338D01*
Y2843426D02*
Y2896574D01*
X4288662Y2843426D02*
Y2896574D01*
X4373308Y2966456D02*
Y3023544D01*
X4286692Y2966456D02*
Y3023544D01*
Y2966456D02*
X4373308D01*
X4286692Y3023544D02*
X4373308D01*
X1939960Y3275354D02*
X2060040D01*
Y3194646D02*
Y3275354D01*
X1939960Y3194646D02*
Y3275354D01*
Y3194646D02*
X2060040D01*
X1736426Y2548662D02*
X1789574D01*
X1736426Y2631338D02*
X1789574D01*
X1736426Y2548662D02*
Y2631338D01*
X1789574Y2548662D02*
Y2631338D01*
X2057686Y2626496D02*
X2095086Y2589094D01*
X1980914Y2626496D02*
X2095086D01*
X1980914Y2563504D02*
Y2626496D01*
Y2563504D02*
X2095086D01*
Y2626496D01*
X1913426Y3314094D02*
X1966574D01*
X1913426Y3396772D02*
X1966574D01*
X1913426Y3314094D02*
Y3396772D01*
X1966574Y3314094D02*
Y3396772D01*
X1698426Y3278662D02*
Y3361338D01*
X1751574Y3278662D02*
Y3361338D01*
X1698426Y3278662D02*
X1751574D01*
X1698426Y3361338D02*
X1751574D01*
X2149292Y3378426D02*
X2231968D01*
X2149292Y3431574D02*
X2231968D01*
Y3378426D02*
Y3431574D01*
X2149292Y3378426D02*
Y3431574D01*
X2018426Y3343662D02*
X2071574D01*
X2018426Y3426338D02*
X2071574D01*
X2018426Y3343662D02*
Y3426338D01*
X2071574Y3343662D02*
Y3426338D01*
X2146456Y3029056D02*
X2203544D01*
X2146456Y2942440D02*
X2203544D01*
Y3029056D01*
X2146456Y2942440D02*
Y3029056D01*
X2013426Y2926692D02*
Y3013308D01*
X2066574Y2926692D02*
Y3013308D01*
X2013426Y2926692D02*
X2066574D01*
X2013426Y3013308D02*
X2066574D01*
X1878426Y3015276D02*
X1931574D01*
X1878426Y2932598D02*
X1931574D01*
Y3015276D01*
X1878426Y2932598D02*
Y3015276D01*
X1696456Y3126182D02*
X1753544D01*
X1696456Y3212796D02*
X1753544D01*
X1696456Y3126182D02*
Y3212796D01*
X1753544Y3126182D02*
Y3212796D01*
X1402686Y2221496D02*
X1440086Y2184094D01*
X1325914Y2221496D02*
X1440086D01*
X1325914Y2158504D02*
Y2221496D01*
Y2158504D02*
X1440086D01*
Y2221496D01*
X1876456Y1986890D02*
X1933544D01*
X1876456Y1900276D02*
X1933544D01*
Y1986890D01*
X1876456Y1900276D02*
Y1986890D01*
X5306456Y1961890D02*
X5363544D01*
X5306456Y1875276D02*
X5363544D01*
Y1961890D01*
X5306456Y1875276D02*
Y1961890D01*
X3483308Y2451456D02*
Y2508544D01*
X3396692Y2451456D02*
Y2508544D01*
Y2451456D02*
X3483308D01*
X3396692Y2508544D02*
X3483308D01*
Y2351456D02*
Y2408544D01*
X3396692Y2351456D02*
Y2408544D01*
Y2351456D02*
X3483308D01*
X3396692Y2408544D02*
X3483308D01*
X3493308Y2246456D02*
Y2303544D01*
X3406692Y2246456D02*
Y2303544D01*
Y2246456D02*
X3493308D01*
X3406692Y2303544D02*
X3493308D01*
X3911456Y2016890D02*
X3968544D01*
X3911456Y1930276D02*
X3968544D01*
Y2016890D01*
X3911456Y1930276D02*
Y2016890D01*
X5311456Y2427952D02*
X5368544D01*
X5311456Y2341338D02*
X5368544D01*
Y2427952D01*
X5311456Y2341338D02*
Y2427952D01*
X5176456D02*
X5233544D01*
X5176456Y2341338D02*
X5233544D01*
Y2427952D01*
X5176456Y2341338D02*
Y2427952D01*
X5041456D02*
X5098544D01*
X5041456Y2341338D02*
X5098544D01*
Y2427952D01*
X5041456Y2341338D02*
Y2427952D01*
X4376456Y2011890D02*
X4433544D01*
X4376456Y1925276D02*
X4433544D01*
Y2011890D01*
X4376456Y1925276D02*
Y2011890D01*
X4896380Y1624156D02*
X5045986D01*
Y1663526D01*
X4896380D02*
X5045986D01*
X4896380Y1624156D02*
Y1663526D01*
X4460278Y1624156D02*
X4609884D01*
Y1663526D01*
X4460278D02*
X4609884D01*
X4460278Y1624156D02*
Y1663526D01*
X4024176Y1624156D02*
X4173782D01*
Y1663526D01*
X4024176D02*
X4173782D01*
X4024176Y1624156D02*
Y1663526D01*
X3151970Y1624156D02*
X3301576D01*
Y1663526D01*
X3151970D02*
X3301576D01*
X3151970Y1624156D02*
Y1663526D01*
X2715868Y1624156D02*
X2865474D01*
Y1663526D01*
X2715868D02*
X2865474D01*
X2715868Y1624156D02*
Y1663526D01*
X5338700Y1626064D02*
Y1665434D01*
X5488308D01*
Y1626064D02*
Y1665434D01*
X5338700Y1626064D02*
X5488308D01*
X5834568Y1500196D02*
Y1649804D01*
Y1500196D02*
X5873938D01*
Y1649804D01*
X5834568D02*
X5873938D01*
X1965434Y1126694D02*
Y1276300D01*
X1926064D02*
X1965434D01*
X1926064Y1126694D02*
Y1276300D01*
Y1126694D02*
X1965434D01*
X1968938Y1543190D02*
Y1692796D01*
X1929568D02*
X1968938D01*
X1929568Y1543190D02*
Y1692796D01*
Y1543190D02*
X1968938D01*
X2450196Y1663938D02*
X2599804D01*
X2450196Y1624568D02*
Y1663938D01*
Y1624568D02*
X2599804D01*
Y1663938D01*
X2653426Y3798662D02*
X2706574D01*
X2653426Y3881338D02*
X2706574D01*
X2653426Y3798662D02*
Y3881338D01*
X2706574Y3798662D02*
Y3881338D01*
X6321968Y3421300D02*
X6875118D01*
Y3940984D01*
X6321968D02*
X6875118D01*
X6321968Y3421300D02*
Y3940984D01*
X4940560Y4030532D02*
X5023238D01*
X4940560Y3977382D02*
X5023238D01*
X4940560D02*
Y4030532D01*
X5023238Y3977382D02*
Y4030532D01*
X5588938Y4445196D02*
Y4594804D01*
X5549568D02*
X5588938D01*
X5549568Y4445196D02*
Y4594804D01*
Y4445196D02*
X5588938D01*
X3984292Y4008426D02*
Y4061574D01*
X4066968Y4008426D02*
Y4061574D01*
X3984292D02*
X4066968D01*
X3984292Y4008426D02*
X4066968D01*
X4241968D02*
Y4061574D01*
X4159292Y4008426D02*
Y4061574D01*
Y4008426D02*
X4241968D01*
X4159292Y4061574D02*
X4241968D01*
X3266456Y3515276D02*
X3323544D01*
X3266456Y3601890D02*
X3323544D01*
X3266456Y3515276D02*
Y3601890D01*
X3323544Y3515276D02*
Y3601890D01*
X4471456Y4555192D02*
X4528544D01*
X4471456Y4468578D02*
X4528544D01*
Y4555192D01*
X4471456Y4468578D02*
Y4555192D01*
X6413544Y3106692D02*
Y3193308D01*
X6356456Y3106692D02*
Y3193308D01*
X6413544D01*
X6356456Y3106692D02*
X6413544D01*
X935354Y3555314D02*
Y3937204D01*
Y3555314D02*
X1348740D01*
Y3937204D01*
X935354D02*
X1348740D01*
X1373190Y3846694D02*
Y3886064D01*
X1396812D01*
Y3846694D02*
Y3886064D01*
X1373190Y3846694D02*
X1396812D01*
X1373190Y3852598D02*
X1379094Y3846694D01*
X6671574Y4058662D02*
Y4141338D01*
X6618426Y4058662D02*
Y4141338D01*
X6671574D01*
X6618426Y4058662D02*
X6671574D01*
X3963150Y3273150D02*
X4356850D01*
X3963150Y3666850D02*
X4356850D01*
Y3273150D02*
Y3666850D01*
X3963150Y3273150D02*
Y3666850D01*
X6038426Y3888662D02*
X6091574D01*
X6038426Y3971338D02*
X6091574D01*
X6038426Y3888662D02*
Y3971338D01*
X6091574Y3888662D02*
Y3971338D01*
X2953426Y3518662D02*
X3006574D01*
X2953426Y3601338D02*
X3006574D01*
X2953426Y3518662D02*
Y3601338D01*
X3006574Y3518662D02*
Y3601338D01*
X2184882Y4384528D02*
X2222284Y4421930D01*
Y4384528D02*
Y4500670D01*
X2159292D02*
X2222284D01*
X2159292Y4384528D02*
Y4500670D01*
Y4384528D02*
X2222284D01*
X3256112Y4359754D02*
Y4438494D01*
X3305324Y4359754D02*
Y4438494D01*
X3256112D02*
X3305324D01*
X3256112Y4359754D02*
X3305324D01*
D102*
X4211496Y2782284D02*
Y2817716D01*
X4148504D02*
X4211496D01*
X4148504Y2782284D02*
Y2817716D01*
Y2782284D02*
X4211496D01*
X1532284Y3173504D02*
X1567716D01*
Y3236496D01*
X1532284D02*
X1567716D01*
X1532284Y3173504D02*
Y3236496D01*
X2184016Y3707008D02*
X2375984D01*
Y3622992D02*
Y3707008D01*
X2184016Y3622992D02*
X2375984D01*
X2184016D02*
Y3707008D01*
Y3622992D02*
Y3707008D01*
X5522153Y4341077D02*
Y4376510D01*
X5459160D02*
X5522153D01*
X5459160Y4341077D02*
Y4376510D01*
Y4341077D02*
X5522153D01*
X6162992Y3940984D02*
X6247008D01*
X6162992D02*
X6247008D01*
X6162992Y3749016D02*
Y3940984D01*
Y3749016D02*
X6247008D01*
Y3940984D01*
X4073386Y2123426D02*
X4246614D01*
X4073386Y1926574D02*
X4246614D01*
X4073386D02*
Y2123426D01*
X4246614Y1926574D02*
Y2123426D01*
X1568504Y3692284D02*
X1631496D01*
X1568504D02*
Y3727716D01*
X1631496D01*
Y3692284D02*
Y3727716D01*
X1537284Y3973504D02*
Y4036496D01*
X1572716D01*
Y3973504D02*
Y4036496D01*
X1537284Y3973504D02*
X1572716D01*
X1627284D02*
Y4036496D01*
X1662716D01*
Y3973504D02*
Y4036496D01*
X1627284Y3973504D02*
X1662716D01*
X2032284Y3968503D02*
Y4031495D01*
X2067717D01*
Y3968503D02*
Y4031495D01*
X2032284Y3968503D02*
X2067717D01*
X1769016Y4007008D02*
X1960984D01*
Y3922992D02*
Y4007008D01*
X1769016Y3922992D02*
X1960984D01*
X1769016D02*
Y4007008D01*
Y3922992D02*
Y4007008D01*
X2408504Y3492284D02*
X2471496D01*
X2408504D02*
Y3527716D01*
X2471496D01*
Y3492284D02*
Y3527716D01*
X1347284Y3093504D02*
Y3156496D01*
X1382716D01*
Y3093504D02*
Y3156496D01*
X1347284Y3093504D02*
X1382716D01*
X1324016Y3252992D02*
Y3337008D01*
Y3252992D02*
Y3337008D01*
Y3252992D02*
X1515984D01*
Y3337008D01*
X1324016D02*
X1515984D01*
X1607284Y2778504D02*
Y2841496D01*
X1642716D01*
Y2778504D02*
Y2841496D01*
X1607284Y2778504D02*
X1642716D01*
X1632284Y3098504D02*
Y3161496D01*
X1667716D01*
Y3098504D02*
Y3161496D01*
X1632284Y3098504D02*
X1667716D01*
X1412284Y2373504D02*
Y2436496D01*
X1447716D01*
Y2373504D02*
Y2436496D01*
X1412284Y2373504D02*
X1447716D01*
X1287284Y2358504D02*
Y2421496D01*
X1322716D01*
Y2358504D02*
Y2421496D01*
X1287284Y2358504D02*
X1322716D01*
X1576574Y1326614D02*
X1773426D01*
X1576574Y1153386D02*
X1773426D01*
Y1326614D01*
X1576574Y1153386D02*
Y1326614D01*
X5743504Y2177284D02*
X5806496D01*
X5743504D02*
Y2212716D01*
X5806496D01*
Y2177284D02*
Y2212716D01*
X6083504Y1932284D02*
X6146496D01*
X6083504D02*
Y1967716D01*
X6146496D01*
Y1932284D02*
Y1967716D01*
X6237283Y1938504D02*
Y2001496D01*
X6272717D01*
Y1938504D02*
Y2001496D01*
X6237283Y1938504D02*
X6272717D01*
X6488504Y1082284D02*
X6551496D01*
X6488504D02*
Y1117716D01*
X6551496D01*
Y1082284D02*
Y1117716D01*
X6677283Y2273504D02*
Y2336496D01*
X6712717D01*
Y2273504D02*
Y2336496D01*
X6677283Y2273504D02*
X6712717D01*
X2427716Y1478504D02*
Y1541496D01*
X2392284Y1478504D02*
X2427716D01*
X2392284D02*
Y1541496D01*
X2427716D01*
X1728504Y2787284D02*
X1791496D01*
X1728504D02*
Y2822716D01*
X1791496D01*
Y2787284D02*
Y2822716D01*
X2167284Y2793503D02*
Y2856495D01*
X2202717D01*
Y2793503D02*
Y2856495D01*
X2167284Y2793503D02*
X2202717D01*
X1332284Y1963503D02*
Y2026495D01*
X1367717D01*
Y1963503D02*
Y2026495D01*
X1332284Y1963503D02*
X1367717D01*
X1232284Y1628503D02*
Y1691495D01*
X1267717D01*
Y1628503D02*
Y1691495D01*
X1232284Y1628503D02*
X1267717D01*
X1192284Y1073504D02*
Y1136496D01*
X1227716D01*
Y1073504D02*
Y1136496D01*
X1192284Y1073504D02*
X1227716D01*
X3078448Y2207849D02*
Y2270841D01*
X3113881D01*
Y2207849D02*
Y2270841D01*
X3078448Y2207849D02*
X3113881D01*
X2398504Y2317284D02*
X2461496D01*
X2398504D02*
Y2352716D01*
X2461496D01*
Y2317284D02*
Y2352716D01*
X5813504Y1877284D02*
X5876496D01*
X5813504D02*
Y1912716D01*
X5876496D01*
Y1877284D02*
Y1912716D01*
X2535989Y3720038D02*
Y3783030D01*
X2571422D01*
Y3720038D02*
Y3783030D01*
X2535989Y3720038D02*
X2571422D01*
X6698504Y4357283D02*
X6761496D01*
X6698504D02*
Y4392717D01*
X6761496D01*
Y4357283D02*
Y4392717D01*
X2642284Y1473503D02*
Y1536495D01*
X2677717D01*
Y1473503D02*
Y1536495D01*
X2642284Y1473503D02*
X2677717D01*
X6188504Y4037284D02*
X6251496D01*
X6188504D02*
Y4072716D01*
X6251496D01*
Y4037284D02*
Y4072716D01*
X6182151Y3324883D02*
Y3387876D01*
X6217584D01*
Y3324883D02*
Y3387876D01*
X6182151Y3324883D02*
X6217584D01*
X5582283Y3713504D02*
Y3776496D01*
X5617717D01*
Y3713504D02*
Y3776496D01*
X5582283Y3713504D02*
X5617717D01*
X2007284Y4313504D02*
Y4376496D01*
X2042716D01*
Y4313504D02*
Y4376496D01*
X2007284Y4313504D02*
X2042716D01*
X4027992Y4114016D02*
X4112008D01*
X4027992D02*
X4112008D01*
Y4305984D01*
X4027992D02*
X4112008D01*
X4027992Y4114016D02*
Y4305984D01*
X3610788Y3595492D02*
X3709212D01*
X3610788Y3469508D02*
X3709212D01*
Y3595492D01*
X3610788Y3469508D02*
Y3595492D01*
X2223622Y1926574D02*
Y2123426D01*
X2050394Y1926574D02*
Y2123426D01*
Y1926574D02*
X2223622D01*
X2050394Y2123426D02*
X2223622D01*
X3068386D02*
X3241614D01*
X3068386Y1926574D02*
X3241614D01*
X3068386D02*
Y2123426D01*
X3241614Y1926574D02*
Y2123426D01*
X2704408Y1926574D02*
Y2123426D01*
X2531178Y1926574D02*
Y2123426D01*
Y1926574D02*
X2704408D01*
X2531178Y2123426D02*
X2704408D01*
X5639606Y1926574D02*
Y2123426D01*
X5466378Y1926574D02*
Y2123426D01*
Y1926574D02*
X5639606D01*
X5466378Y2123426D02*
X5639606D01*
X6031574Y1726614D02*
X6228426D01*
X6031574Y1553386D02*
X6228426D01*
Y1726614D01*
X6031574Y1553386D02*
Y1726614D01*
Y1306614D02*
X6228426D01*
X6031574Y1133386D02*
X6228426D01*
Y1306614D01*
X6031574Y1133386D02*
Y1306614D01*
X2249016Y3257008D02*
X2440984D01*
Y3172992D02*
Y3257008D01*
X2249016Y3172992D02*
X2440984D01*
X2249016D02*
Y3257008D01*
Y3172992D02*
Y3257008D01*
X2152016Y2592992D02*
Y2677008D01*
Y2592992D02*
Y2677008D01*
Y2592992D02*
X2343984D01*
Y2677008D01*
X2152016D02*
X2343984D01*
X1864016Y2757992D02*
Y2842008D01*
Y2757992D02*
Y2842008D01*
Y2757992D02*
X2055984D01*
Y2842008D01*
X1864016D02*
X2055984D01*
X1482016Y2592992D02*
Y2677008D01*
Y2592992D02*
Y2677008D01*
Y2592992D02*
X1673984D01*
Y2677008D01*
X1482016D02*
X1673984D01*
X4958386Y2123426D02*
X5131614D01*
X4958386Y1926574D02*
X5131614D01*
X4958386D02*
Y2123426D01*
X5131614Y1926574D02*
Y2123426D01*
X4528386D02*
X4701614D01*
X4528386Y1926574D02*
X4701614D01*
X4528386D02*
Y2123426D01*
X4701614Y1926574D02*
Y2123426D01*
X3578386D02*
X3751614D01*
X3578386Y1926574D02*
X3751614D01*
X3578386D02*
Y2123426D01*
X3751614Y1926574D02*
Y2123426D01*
X1591574Y1708386D02*
Y1881614D01*
X1788426Y1708386D02*
Y1881614D01*
X1591574Y1708386D02*
X1788426D01*
X1591574Y1881614D02*
X1788426D01*
X5714016Y4027992D02*
X5905984D01*
X5714016D02*
Y4112008D01*
X5905984D01*
Y4027992D02*
Y4112008D01*
Y4027992D02*
Y4112008D01*
X2184016Y3772992D02*
Y3857008D01*
Y3772992D02*
Y3857008D01*
Y3772992D02*
X2375984D01*
Y3857008D01*
X2184016D02*
X2375984D01*
X4667008Y4394016D02*
Y4585984D01*
X4582992Y4394016D02*
X4667008D01*
X4582992D02*
Y4585984D01*
X4667008D01*
X4582992D02*
X4667008D01*
X6247008Y3464016D02*
Y3655984D01*
X6162992Y3464016D02*
X6247008D01*
X6162992D02*
Y3655984D01*
X6247008D01*
X6162992D02*
X6247008D01*
X2479016Y4247008D02*
X2670984D01*
Y4162992D02*
Y4247008D01*
X2479016Y4162992D02*
X2670984D01*
X2479016D02*
Y4247008D01*
Y4162992D02*
Y4247008D01*
D140*
X2215200Y779922D02*
X5530160D01*
Y1444094D01*
X2215200D02*
X5530160D01*
X2215200Y779922D02*
Y1444094D01*
X2105554Y1023228D02*
X5637680D01*
X6242108Y3169602D02*
X6262108D01*
Y3192102D01*
X6242108D02*
X6262108D01*
X6242108Y3169602D02*
Y3192102D01*
X6167306Y3169602D02*
X6187306D01*
Y3192102D01*
X6167306D02*
X6187306D01*
X6167306Y3169602D02*
Y3192102D01*
X6204706Y3112602D02*
X6224706D01*
X6204706Y3090102D02*
Y3112602D01*
Y3090102D02*
X6224706D01*
Y3112602D01*
X6157706Y3169602D02*
X6271706D01*
X6157706Y3112602D02*
Y3169602D01*
Y3112602D02*
X6271706D01*
Y3169602D01*
X6242108Y2574602D02*
X6262108D01*
Y2597102D01*
X6242108D02*
X6262108D01*
X6242108Y2574602D02*
Y2597102D01*
X6167306Y2574602D02*
X6187306D01*
Y2597102D01*
X6167306D02*
X6187306D01*
X6167306Y2574602D02*
Y2597102D01*
X6204706Y2517602D02*
X6224706D01*
X6204706Y2495102D02*
Y2517602D01*
Y2495102D02*
X6224706D01*
Y2517602D01*
X6157706Y2574602D02*
X6271706D01*
X6157706Y2517602D02*
Y2574602D01*
Y2517602D02*
X6271706D01*
Y2574602D01*
X6242108Y2872102D02*
X6262108D01*
Y2894602D01*
X6242108D02*
X6262108D01*
X6242108Y2872102D02*
Y2894602D01*
X6167306Y2872102D02*
X6187306D01*
Y2894602D01*
X6167306D02*
X6187306D01*
X6167306Y2872102D02*
Y2894602D01*
X6204706Y2815102D02*
X6224706D01*
X6204706Y2792602D02*
Y2815102D01*
Y2792602D02*
X6224706D01*
Y2815102D01*
X6157706Y2872102D02*
X6271706D01*
X6157706Y2815102D02*
Y2872102D01*
Y2815102D02*
X6271706D01*
Y2872102D01*
X2865218Y4385124D02*
X2896218D01*
X2865218Y4335124D02*
Y4385124D01*
Y4335124D02*
X2896218D01*
Y4385124D01*
X2965218D02*
X2996218D01*
X2965218Y4335124D02*
Y4385124D01*
Y4335124D02*
X2996218D01*
Y4385124D01*
X3065218D02*
X3096218D01*
X3065218Y4335124D02*
Y4385124D01*
Y4335124D02*
X3096218D01*
Y4385124D01*
X2973218D02*
X2988218D01*
X2973218Y4370124D02*
Y4385124D01*
Y4370124D02*
X2988218D01*
Y4385124D01*
X2793218D02*
X3168218D01*
Y4755124D01*
X2793218D02*
X3168218D01*
X2793218Y4385124D02*
Y4755124D01*
X2687308Y4307500D02*
Y4772500D01*
X2459308Y4307500D02*
X2687308D01*
X2459308D02*
Y4772500D01*
X2687308D01*
X2533808Y4599000D02*
X2612808D01*
X2533808Y4481000D02*
Y4599000D01*
Y4481000D02*
X2612808D01*
Y4599000D01*
D141*
X4835868Y970276D02*
Y1020259D01*
X4860860D01*
X4869191Y1011929D01*
Y995268D01*
X4860860Y986937D01*
X4835868D01*
X4919175Y1011929D02*
X4910844Y1020259D01*
X4894182D01*
X4885852Y1011929D01*
Y978606D01*
X4894182Y970276D01*
X4910844D01*
X4919175Y978606D01*
X4935836Y1020259D02*
Y970276D01*
X4960828D01*
X4969158Y978606D01*
Y986937D01*
X4960828Y995268D01*
X4935836D01*
X4960828D01*
X4969158Y1003598D01*
Y1011929D01*
X4960828Y1020259D01*
X4935836D01*
X5069126D02*
X5035803D01*
Y970276D01*
X5069126D01*
X5035803Y995268D02*
X5052465D01*
X5085787Y1020259D02*
Y970276D01*
X5110779D01*
X5119110Y978606D01*
Y1011929D01*
X5110779Y1020259D01*
X5085787D01*
X5169093Y1011929D02*
X5160763Y1020259D01*
X5144101D01*
X5135771Y1011929D01*
Y978606D01*
X5144101Y970276D01*
X5160763D01*
X5169093Y978606D01*
Y995268D01*
X5152432D01*
X5219077Y1020259D02*
X5185755D01*
Y970276D01*
X5219077D01*
X5185755Y995268D02*
X5202416D01*
X2868218Y4411778D02*
X2901541Y4378455D01*
X2868218D02*
X2901541Y4411778D01*
X2868218Y4395117D02*
X2901541D01*
X2884880Y4378455D02*
Y4411778D01*
X2684807Y4444607D02*
X2651485Y4477929D01*
X2684807D02*
X2651485Y4444607D01*
X2684807Y4461268D02*
X2651485D01*
X2668146Y4477929D02*
Y4444607D01*
%TF.MD5,4df5e84884894cbc408b4e7b6a86d12f*%
M02*
