%TF.GenerationSoftware,Altium Limited,Altium Designer,20.2.5 (213)*%
G04 Layer_Color=255*
%FSLAX26Y26*%
%MOIN*%
%TF.SameCoordinates,271AC680-9A3E-4A00-A3D7-6C105C8C782D*%
%TF.FilePolarity,Positive*%
%TF.FileFunction,Pads,Top*%
%TF.Part,Single*%
G01*
G75*
%TA.AperFunction,SMDPad,CuDef*%
%ADD11R,0.049213X0.061024*%
%ADD12R,0.061024X0.049213*%
%ADD13R,0.076772X0.043307*%
%ADD14R,0.043307X0.076772*%
%ADD15R,0.059379X0.055344*%
%ADD16R,0.051181X0.035433*%
%ADD17R,0.023622X0.023622*%
%ADD18R,0.045276X0.057087*%
%ADD19R,0.039370X0.053150*%
%ADD20R,0.053150X0.039370*%
%ADD21R,0.051364X0.057331*%
G04:AMPARAMS|DCode=22|XSize=61.811mil|YSize=16.142mil|CornerRadius=2.018mil|HoleSize=0mil|Usage=FLASHONLY|Rotation=0.000|XOffset=0mil|YOffset=0mil|HoleType=Round|Shape=RoundedRectangle|*
%AMROUNDEDRECTD22*
21,1,0.061811,0.012106,0,0,0.0*
21,1,0.057776,0.016142,0,0,0.0*
1,1,0.004035,0.028888,-0.006053*
1,1,0.004035,-0.028888,-0.006053*
1,1,0.004035,-0.028888,0.006053*
1,1,0.004035,0.028888,0.006053*
%
%ADD22ROUNDEDRECTD22*%
%ADD23R,0.055344X0.059379*%
%ADD24R,0.057269X0.061268*%
%ADD25R,0.012795X0.015748*%
%ADD26R,0.032677X0.029528*%
%ADD27R,0.047244X0.057087*%
%ADD28R,0.057331X0.051364*%
%ADD29R,0.011811X0.035433*%
%ADD30R,0.023622X0.045276*%
%ADD31R,0.035433X0.051181*%
G04:AMPARAMS|DCode=32|XSize=61.811mil|YSize=16.142mil|CornerRadius=2.018mil|HoleSize=0mil|Usage=FLASHONLY|Rotation=90.000|XOffset=0mil|YOffset=0mil|HoleType=Round|Shape=RoundedRectangle|*
%AMROUNDEDRECTD32*
21,1,0.061811,0.012106,0,0,90.0*
21,1,0.057776,0.016142,0,0,90.0*
1,1,0.004035,0.006053,0.028888*
1,1,0.004035,0.006053,-0.028888*
1,1,0.004035,-0.006053,-0.028888*
1,1,0.004035,-0.006053,0.028888*
%
%ADD32ROUNDEDRECTD32*%
%ADD33R,0.019685X0.009842*%
%ADD34R,0.023622X0.023622*%
%ADD35R,0.009842X0.019685*%
%ADD36R,0.051181X0.061024*%
%ADD37R,0.043307X0.051181*%
%ADD38R,0.035672X0.051567*%
%ADD39R,0.021654X0.041339*%
%ADD40R,0.061268X0.057269*%
%ADD41R,0.041339X0.055118*%
%ADD42R,0.057564X0.053332*%
%ADD43R,0.061024X0.051181*%
%ADD44R,0.053543X0.057480*%
%ADD45R,0.029528X0.011811*%
%ADD46R,0.057087X0.047244*%
%ADD47R,0.053150X0.037402*%
%ADD48R,0.055118X0.041339*%
%ADD49R,0.057087X0.037402*%
%ADD50R,0.036614X0.035433*%
%ADD51R,0.030709X0.041339*%
%ADD52R,0.072047X0.044882*%
%ADD53R,0.129921X0.027559*%
%ADD54R,0.110236X0.033858*%
%ADD55R,0.043307X0.027559*%
%ADD56R,0.109055X0.025591*%
%ADD57R,0.061024X0.053150*%
%ADD58R,0.021654X0.031496*%
%ADD59R,0.053332X0.057564*%
%ADD60R,0.022000X0.040000*%
%ADD61O,0.009842X0.061024*%
%ADD62O,0.061024X0.009842*%
%ADD63R,0.033000X0.069000*%
%ADD64R,0.258000X0.344000*%
%ADD65R,0.035433X0.031496*%
%ADD66R,0.051181X0.045276*%
%TA.AperFunction,ComponentPad*%
%ADD69R,0.048819X0.048819*%
%ADD70C,0.048819*%
%ADD71R,0.048819X0.048819*%
%ADD72R,0.059055X0.082677*%
%ADD73R,0.082677X0.059055*%
%ADD74C,0.053858*%
%ADD75C,0.128740*%
%ADD76R,0.061811X0.061811*%
%ADD77C,0.061811*%
%ADD78C,0.049213*%
%ADD79R,0.049213X0.049213*%
%ADD80C,0.052000*%
%ADD81C,0.040000*%
D11*
X2515354Y2200000D02*
D03*
X2434646D02*
D03*
X6355354Y1625000D02*
D03*
X6274646D02*
D03*
X5398306Y3031230D02*
D03*
X5317598D02*
D03*
X3224540Y2961210D02*
D03*
X3143830D02*
D03*
X3142412Y2676210D02*
D03*
X3223122D02*
D03*
X3535354Y1860000D02*
D03*
X3454646D02*
D03*
X2974646Y1835000D02*
D03*
X3055354D02*
D03*
X6375000Y1270000D02*
D03*
X6294292D02*
D03*
X3480354Y2480000D02*
D03*
X3399646D02*
D03*
X3480354Y2380000D02*
D03*
X3399646D02*
D03*
X3490354Y2275000D02*
D03*
X3409646D02*
D03*
D12*
X6050000Y3096456D02*
D03*
Y3015748D02*
D03*
X4850000Y1794646D02*
D03*
Y1875354D02*
D03*
X1420000Y1185354D02*
D03*
Y1104646D02*
D03*
X6055000Y2800354D02*
D03*
Y2719646D02*
D03*
Y2508938D02*
D03*
Y2428228D02*
D03*
X1445000Y1740354D02*
D03*
Y1659646D02*
D03*
X1905000Y1983938D02*
D03*
Y1903228D02*
D03*
X5335000Y1958938D02*
D03*
Y1878228D02*
D03*
X3940000Y2013938D02*
D03*
Y1933228D02*
D03*
X5340000Y2425000D02*
D03*
Y2344292D02*
D03*
X5205000Y2425000D02*
D03*
Y2344292D02*
D03*
X5070000Y2425000D02*
D03*
Y2344292D02*
D03*
X4405000Y2008938D02*
D03*
Y1928228D02*
D03*
X3295000Y3518228D02*
D03*
Y3598938D02*
D03*
X4500000Y4552240D02*
D03*
Y4471530D02*
D03*
D13*
X4180000Y2800000D02*
D03*
X5490656Y4358793D02*
D03*
X1600000Y3710000D02*
D03*
X2440000Y3510000D02*
D03*
X5775000Y2195000D02*
D03*
X6115000Y1950000D02*
D03*
X6520000Y1100000D02*
D03*
X1760000Y2805000D02*
D03*
X2430000Y2335000D02*
D03*
X5845000Y1895000D02*
D03*
X6730000Y4375000D02*
D03*
X6220000Y4055000D02*
D03*
D14*
X1550000Y3205000D02*
D03*
X1555000Y4005000D02*
D03*
X1645000D02*
D03*
X2050001Y3999999D02*
D03*
X1365000Y3125000D02*
D03*
X1625000Y2810000D02*
D03*
X1650000Y3130000D02*
D03*
X1430000Y2405000D02*
D03*
X1305000Y2390000D02*
D03*
X6255000Y1970000D02*
D03*
X6695000Y2305000D02*
D03*
X2410000Y1510000D02*
D03*
X2185001Y2824999D02*
D03*
X1350001Y1994999D02*
D03*
X1250001Y1659999D02*
D03*
X1210000Y1105000D02*
D03*
X3096165Y2239345D02*
D03*
X2553706Y3751534D02*
D03*
X2660001Y1504999D02*
D03*
X6199868Y3356380D02*
D03*
X5600000Y3745000D02*
D03*
X2025000Y4345000D02*
D03*
D15*
X2676886Y3623534D02*
D03*
Y3696466D02*
D03*
X2912768Y2862676D02*
D03*
Y2789744D02*
D03*
D16*
X3385000Y3301338D02*
D03*
Y3218662D02*
D03*
X4210000Y2862322D02*
D03*
Y2945000D02*
D03*
X4445000Y2932322D02*
D03*
Y3015000D02*
D03*
X1988000Y2471338D02*
D03*
Y2388662D02*
D03*
X1655000Y2931614D02*
D03*
Y3014292D02*
D03*
X3745000Y3833662D02*
D03*
Y3916338D02*
D03*
X1720000Y3753662D02*
D03*
Y3836338D02*
D03*
D17*
X3662198Y3417500D02*
D03*
X3697802D02*
D03*
X3987198Y3760000D02*
D03*
X4022802D02*
D03*
X3627198Y3652500D02*
D03*
X3662802D02*
D03*
X4294396Y3110000D02*
D03*
X4330000D02*
D03*
X4294396Y3180000D02*
D03*
X4330000D02*
D03*
X4057802Y3175000D02*
D03*
X4022198D02*
D03*
D18*
X3894448Y3915000D02*
D03*
X3825552D02*
D03*
X4364448Y2995000D02*
D03*
X4295552D02*
D03*
D19*
X3895434Y3825000D02*
D03*
X3824568D02*
D03*
X5159458Y3573958D02*
D03*
X5088592D02*
D03*
Y3663958D02*
D03*
X5159458D02*
D03*
X5095000Y4690000D02*
D03*
X5024134D02*
D03*
X5393386Y3136230D02*
D03*
X5322520D02*
D03*
X5159458Y4003958D02*
D03*
X5088592D02*
D03*
X5159458Y3908958D02*
D03*
X5088592D02*
D03*
X5159458Y3813958D02*
D03*
X5088592D02*
D03*
X5017332D02*
D03*
X4946466D02*
D03*
Y3908958D02*
D03*
X5017332D02*
D03*
X5095000Y4580000D02*
D03*
X5024134D02*
D03*
X2965434Y2960000D02*
D03*
X2894566D02*
D03*
X4365434Y2870000D02*
D03*
X4294566D02*
D03*
X4946466Y4003958D02*
D03*
X5017332D02*
D03*
D20*
X5009458Y3574390D02*
D03*
Y3503524D02*
D03*
X6065000Y3725000D02*
D03*
Y3795866D02*
D03*
X5009458Y3663524D02*
D03*
Y3734390D02*
D03*
X1940000Y3320000D02*
D03*
Y3390866D02*
D03*
X2045000Y3349566D02*
D03*
Y3420434D02*
D03*
X1905000Y3009370D02*
D03*
Y2938504D02*
D03*
X6645000Y4135432D02*
D03*
Y4064566D02*
D03*
X6065000Y3894566D02*
D03*
Y3965434D02*
D03*
X2980000Y3524566D02*
D03*
Y3595434D02*
D03*
D21*
X5278474Y4225000D02*
D03*
X5341526D02*
D03*
X5386526Y2900000D02*
D03*
X5323474D02*
D03*
X6811526Y4060000D02*
D03*
X6748474D02*
D03*
X3001240Y2676210D02*
D03*
X3064294D02*
D03*
X5987118Y1340000D02*
D03*
X5924064D02*
D03*
X4211526Y3030000D02*
D03*
X4148474D02*
D03*
X2193000Y2190000D02*
D03*
X2256054D02*
D03*
X5623474Y2195000D02*
D03*
X5686526D02*
D03*
X2690794D02*
D03*
X2753848D02*
D03*
X3203474Y2200000D02*
D03*
X3266526D02*
D03*
X4213474Y2195000D02*
D03*
X4276526D02*
D03*
X3729060D02*
D03*
X3792114D02*
D03*
X4663474Y2190000D02*
D03*
X4726526D02*
D03*
X5108946Y2195000D02*
D03*
X5172000D02*
D03*
X1978474Y3735000D02*
D03*
X2041526D02*
D03*
D22*
X4047008Y2114566D02*
D03*
Y2088976D02*
D03*
Y2063386D02*
D03*
Y2037796D02*
D03*
Y2012204D02*
D03*
Y1986614D02*
D03*
Y1961024D02*
D03*
Y1935434D02*
D03*
X4272992D02*
D03*
Y1961024D02*
D03*
Y1986614D02*
D03*
Y2012204D02*
D03*
Y2037796D02*
D03*
Y2063386D02*
D03*
Y2088976D02*
D03*
Y2114566D02*
D03*
X2250000D02*
D03*
Y2088976D02*
D03*
Y2063386D02*
D03*
Y2037796D02*
D03*
Y2012204D02*
D03*
Y1986614D02*
D03*
Y1961024D02*
D03*
Y1935434D02*
D03*
X2024016D02*
D03*
Y1961024D02*
D03*
Y1986614D02*
D03*
Y2012204D02*
D03*
Y2037796D02*
D03*
Y2063386D02*
D03*
Y2088976D02*
D03*
Y2114566D02*
D03*
X3042008D02*
D03*
Y2088976D02*
D03*
Y2063386D02*
D03*
Y2037796D02*
D03*
Y2012204D02*
D03*
Y1986614D02*
D03*
Y1961024D02*
D03*
Y1935434D02*
D03*
X3267992D02*
D03*
Y1961024D02*
D03*
Y1986614D02*
D03*
Y2012204D02*
D03*
Y2037796D02*
D03*
Y2063386D02*
D03*
Y2088976D02*
D03*
Y2114566D02*
D03*
X2730786D02*
D03*
Y2088976D02*
D03*
Y2063386D02*
D03*
Y2037796D02*
D03*
Y2012204D02*
D03*
Y1986614D02*
D03*
Y1961024D02*
D03*
Y1935434D02*
D03*
X2504800D02*
D03*
Y1961024D02*
D03*
Y1986614D02*
D03*
Y2012204D02*
D03*
Y2037796D02*
D03*
Y2063386D02*
D03*
Y2088976D02*
D03*
Y2114566D02*
D03*
X5665984D02*
D03*
Y2088976D02*
D03*
Y2063386D02*
D03*
Y2037796D02*
D03*
Y2012204D02*
D03*
Y1986614D02*
D03*
Y1961024D02*
D03*
Y1935434D02*
D03*
X5440000D02*
D03*
Y1961024D02*
D03*
Y1986614D02*
D03*
Y2012204D02*
D03*
Y2037796D02*
D03*
Y2063386D02*
D03*
Y2088976D02*
D03*
Y2114566D02*
D03*
X4932008D02*
D03*
Y2088976D02*
D03*
Y2063386D02*
D03*
Y2037796D02*
D03*
Y2012204D02*
D03*
Y1986614D02*
D03*
Y1961024D02*
D03*
Y1935434D02*
D03*
X5157992D02*
D03*
Y1961024D02*
D03*
Y1986614D02*
D03*
Y2012204D02*
D03*
Y2037796D02*
D03*
Y2063386D02*
D03*
Y2088976D02*
D03*
Y2114566D02*
D03*
X4502008D02*
D03*
Y2088976D02*
D03*
Y2063386D02*
D03*
Y2037796D02*
D03*
Y2012204D02*
D03*
Y1986614D02*
D03*
Y1961024D02*
D03*
Y1935434D02*
D03*
X4727992D02*
D03*
Y1961024D02*
D03*
Y1986614D02*
D03*
Y2012204D02*
D03*
Y2037796D02*
D03*
Y2063386D02*
D03*
Y2088976D02*
D03*
Y2114566D02*
D03*
X3552008D02*
D03*
Y2088976D02*
D03*
Y2063386D02*
D03*
Y2037796D02*
D03*
Y2012204D02*
D03*
Y1986614D02*
D03*
Y1961024D02*
D03*
Y1935434D02*
D03*
X3777992D02*
D03*
Y1961024D02*
D03*
Y1986614D02*
D03*
Y2012204D02*
D03*
Y2037796D02*
D03*
Y2063386D02*
D03*
Y2088976D02*
D03*
Y2114566D02*
D03*
D23*
X3114784Y4094124D02*
D03*
X3041850D02*
D03*
X3112184Y4209124D02*
D03*
X3039252D02*
D03*
X2306466Y4615000D02*
D03*
X2233534D02*
D03*
X2307932Y4735000D02*
D03*
X2235000D02*
D03*
D24*
X2845718Y4209124D02*
D03*
X2918614D02*
D03*
X3073704Y2550000D02*
D03*
X3000808D02*
D03*
D25*
X1900000Y4475000D02*
D03*
X1865552D02*
D03*
D26*
X2320000Y4488898D02*
D03*
Y4401102D02*
D03*
D27*
X2150630Y4310000D02*
D03*
X2229370D02*
D03*
X2230000Y3405000D02*
D03*
X2151260D02*
D03*
X3986260Y4035000D02*
D03*
X4065000D02*
D03*
X4240000D02*
D03*
X4161260D02*
D03*
D28*
X1480000Y3593474D02*
D03*
Y3656526D02*
D03*
X1580000Y1428000D02*
D03*
Y1491054D02*
D03*
X3480000Y3223474D02*
D03*
Y3286526D02*
D03*
X2640000Y3141526D02*
D03*
Y3078474D02*
D03*
X1830000Y3196526D02*
D03*
Y3133474D02*
D03*
X2093000Y2403000D02*
D03*
Y2466054D02*
D03*
X1835000Y3288474D02*
D03*
Y3351526D02*
D03*
X1518000Y2221526D02*
D03*
Y2158474D02*
D03*
X1515000Y1838474D02*
D03*
Y1901526D02*
D03*
X5975000Y1816526D02*
D03*
Y1753474D02*
D03*
X2785000Y3633474D02*
D03*
Y3696526D02*
D03*
Y3866526D02*
D03*
Y3803474D02*
D03*
X4750000Y4558054D02*
D03*
Y4495000D02*
D03*
X3145000Y3586526D02*
D03*
Y3523474D02*
D03*
D29*
X1385000Y3606378D02*
D03*
Y3653622D02*
D03*
Y3772244D02*
D03*
Y3725000D02*
D03*
Y3842756D02*
D03*
Y3890000D02*
D03*
D30*
X1902402Y3834212D02*
D03*
X1865000D02*
D03*
X1827598D02*
D03*
Y3735788D02*
D03*
X1902402D02*
D03*
X2730366Y3145424D02*
D03*
X2805168D02*
D03*
Y3046998D02*
D03*
X2767768D02*
D03*
X2730366D02*
D03*
X2075402Y2545788D02*
D03*
X2000598D02*
D03*
Y2644212D02*
D03*
X2038000D02*
D03*
X2075402D02*
D03*
X1420402Y2140788D02*
D03*
X1345598D02*
D03*
Y2239212D02*
D03*
X1383000D02*
D03*
X1420402D02*
D03*
D31*
X1911338Y3640000D02*
D03*
X1828662D02*
D03*
X5106338Y4480000D02*
D03*
X5023662D02*
D03*
X5106338Y4385000D02*
D03*
X5023662D02*
D03*
X2381338Y3405000D02*
D03*
X2298662D02*
D03*
X1958662Y3125000D02*
D03*
X2041338D02*
D03*
X5407322Y4030000D02*
D03*
X5490000D02*
D03*
X2843662Y3945000D02*
D03*
X2926338D02*
D03*
X1636338Y3840000D02*
D03*
X1553662D02*
D03*
D32*
X1585434Y1352992D02*
D03*
X1611024D02*
D03*
X1636614D02*
D03*
X1662204D02*
D03*
X1687796D02*
D03*
X1713386D02*
D03*
X1738976D02*
D03*
X1764566D02*
D03*
Y1127008D02*
D03*
X1738976D02*
D03*
X1713386D02*
D03*
X1687796D02*
D03*
X1662204D02*
D03*
X1636614D02*
D03*
X1611024D02*
D03*
X1585434D02*
D03*
X6040434Y1752992D02*
D03*
X6066024D02*
D03*
X6091614D02*
D03*
X6117204D02*
D03*
X6142796D02*
D03*
X6168386D02*
D03*
X6193976D02*
D03*
X6219566D02*
D03*
Y1527008D02*
D03*
X6193976D02*
D03*
X6168386D02*
D03*
X6142796D02*
D03*
X6117204D02*
D03*
X6091614D02*
D03*
X6066024D02*
D03*
X6040434D02*
D03*
Y1332992D02*
D03*
X6066024D02*
D03*
X6091614D02*
D03*
X6117204D02*
D03*
X6142796D02*
D03*
X6168386D02*
D03*
X6193976D02*
D03*
X6219566D02*
D03*
Y1107008D02*
D03*
X6193976D02*
D03*
X6168386D02*
D03*
X6142796D02*
D03*
X6117204D02*
D03*
X6091614D02*
D03*
X6066024D02*
D03*
X6040434D02*
D03*
X1600434Y1682008D02*
D03*
X1626024D02*
D03*
X1651614D02*
D03*
X1677204D02*
D03*
X1702796D02*
D03*
X1728386D02*
D03*
X1753976D02*
D03*
X1779566D02*
D03*
Y1907992D02*
D03*
X1753976D02*
D03*
X1728386D02*
D03*
X1702796D02*
D03*
X1677204D02*
D03*
X1651614D02*
D03*
X1626024D02*
D03*
X1600434D02*
D03*
D33*
X5870000Y1248740D02*
D03*
Y1217244D02*
D03*
Y1185748D02*
D03*
Y1154252D02*
D03*
X5838504Y1138504D02*
D03*
Y1170000D02*
D03*
Y1201496D02*
D03*
Y1232992D02*
D03*
Y1264488D02*
D03*
Y1637992D02*
D03*
Y1606496D02*
D03*
Y1575000D02*
D03*
Y1543504D02*
D03*
Y1512008D02*
D03*
X5870000Y1527756D02*
D03*
Y1559252D02*
D03*
Y1590748D02*
D03*
Y1622244D02*
D03*
X1961496Y1138504D02*
D03*
Y1170000D02*
D03*
Y1201496D02*
D03*
Y1232992D02*
D03*
Y1264488D02*
D03*
X1930000Y1248740D02*
D03*
Y1217244D02*
D03*
Y1185748D02*
D03*
Y1154252D02*
D03*
X1965000Y1555000D02*
D03*
Y1586496D02*
D03*
Y1617992D02*
D03*
Y1649488D02*
D03*
Y1680984D02*
D03*
X1933504Y1665236D02*
D03*
Y1633740D02*
D03*
Y1602244D02*
D03*
Y1570748D02*
D03*
X5585000Y4457008D02*
D03*
Y4488504D02*
D03*
Y4520000D02*
D03*
Y4551496D02*
D03*
Y4582992D02*
D03*
X5553504Y4567244D02*
D03*
Y4535748D02*
D03*
Y4504252D02*
D03*
Y4472756D02*
D03*
D34*
X4455000Y3607198D02*
D03*
Y3642802D02*
D03*
X3815000Y3367198D02*
D03*
Y3402800D02*
D03*
X3865000Y3517198D02*
D03*
Y3552802D02*
D03*
X3800000Y3520302D02*
D03*
Y3484698D02*
D03*
X3870000Y3370000D02*
D03*
Y3405602D02*
D03*
X2125000Y3254398D02*
D03*
Y3290000D02*
D03*
X3795000Y3667198D02*
D03*
Y3702802D02*
D03*
X3860000Y3667198D02*
D03*
Y3702802D02*
D03*
D35*
X3615632Y1659588D02*
D03*
X3647128D02*
D03*
X3678624D02*
D03*
X3710120D02*
D03*
X3725868Y1628092D02*
D03*
X3694372D02*
D03*
X3662876D02*
D03*
X3631380D02*
D03*
X3599884D02*
D03*
X4908190D02*
D03*
X4939686D02*
D03*
X4971184D02*
D03*
X5002680D02*
D03*
X5034176D02*
D03*
X5018428Y1659588D02*
D03*
X4986932D02*
D03*
X4955436D02*
D03*
X4923938D02*
D03*
X4472088Y1628092D02*
D03*
X4503584D02*
D03*
X4535080D02*
D03*
X4566576D02*
D03*
X4598072D02*
D03*
X4582324Y1659588D02*
D03*
X4550828D02*
D03*
X4519332D02*
D03*
X4487836D02*
D03*
X4035986Y1628092D02*
D03*
X4067482D02*
D03*
X4098978D02*
D03*
X4130474D02*
D03*
X4161970D02*
D03*
X4146222Y1659588D02*
D03*
X4114726D02*
D03*
X4083230D02*
D03*
X4051734D02*
D03*
X3163782Y1628092D02*
D03*
X3195278D02*
D03*
X3226774D02*
D03*
X3258270D02*
D03*
X3289766D02*
D03*
X3274018Y1659588D02*
D03*
X3242522D02*
D03*
X3211026D02*
D03*
X3179530D02*
D03*
X2727680Y1628092D02*
D03*
X2759176D02*
D03*
X2790672D02*
D03*
X2822168D02*
D03*
X2853664D02*
D03*
X2837916Y1659588D02*
D03*
X2806420D02*
D03*
X2774924D02*
D03*
X2743428D02*
D03*
X5366260Y1661496D02*
D03*
X5397756D02*
D03*
X5429252D02*
D03*
X5460748D02*
D03*
X5476496Y1630000D02*
D03*
X5445000D02*
D03*
X5413504D02*
D03*
X5382008D02*
D03*
X5350512D02*
D03*
X2587992Y1660000D02*
D03*
X2556496D02*
D03*
X2525000D02*
D03*
X2493504D02*
D03*
X2462008D02*
D03*
X2477756Y1628504D02*
D03*
X2509252D02*
D03*
X2540748D02*
D03*
X2572244D02*
D03*
D36*
X5506418Y2828504D02*
D03*
Y3141496D02*
D03*
X5683582Y2828504D02*
D03*
Y3141496D02*
D03*
D37*
X3695434Y3487224D02*
D03*
Y3577776D02*
D03*
X3624566D02*
D03*
Y3487224D02*
D03*
D38*
X3218322Y3066210D02*
D03*
X3157212D02*
D03*
D39*
X3010366Y2872392D02*
D03*
X3047768D02*
D03*
X3085168D02*
D03*
Y2770030D02*
D03*
X3047768D02*
D03*
X3010366D02*
D03*
D40*
X3930000Y3082104D02*
D03*
Y3155000D02*
D03*
X1878000Y2557104D02*
D03*
Y2630000D02*
D03*
D41*
X2730366Y2961210D02*
D03*
X2805168D02*
D03*
D42*
X3810000Y3076584D02*
D03*
Y3153416D02*
D03*
X5624458Y3482572D02*
D03*
Y3559404D02*
D03*
X6384706Y2811102D02*
D03*
Y2887936D02*
D03*
X6385000Y2521584D02*
D03*
Y2598416D02*
D03*
X3280000Y4638416D02*
D03*
Y4561584D02*
D03*
D43*
X3296496Y3256418D02*
D03*
X2983504D02*
D03*
X3296496Y3433582D02*
D03*
X2983504D02*
D03*
D44*
X2000000Y3235000D02*
D03*
D45*
X1940944Y3264528D02*
D03*
Y3244842D02*
D03*
Y3225158D02*
D03*
Y3205472D02*
D03*
X2059056D02*
D03*
Y3225158D02*
D03*
Y3244842D02*
D03*
Y3264528D02*
D03*
D46*
X1763000Y2550630D02*
D03*
Y2629370D02*
D03*
X1725000Y3280630D02*
D03*
Y3359370D02*
D03*
X2680000Y3800630D02*
D03*
Y3879370D02*
D03*
D47*
X2175000Y3016260D02*
D03*
Y2955236D02*
D03*
X1725000Y3138976D02*
D03*
Y3200000D02*
D03*
D48*
X2040000Y2932598D02*
D03*
Y3007402D02*
D03*
D49*
X1780000Y2936536D02*
D03*
Y3013308D02*
D03*
D50*
X6329252Y3845314D02*
D03*
D51*
X6326300Y3677402D02*
D03*
D52*
X6819410Y3927598D02*
D03*
D53*
X6375906Y3936260D02*
D03*
Y3426024D02*
D03*
D54*
X6800316Y3429174D02*
D03*
D55*
X6820000Y3774842D02*
D03*
Y3731536D02*
D03*
Y3688228D02*
D03*
Y3644922D02*
D03*
Y3601614D02*
D03*
Y3558308D02*
D03*
Y3515000D02*
D03*
Y3471692D02*
D03*
D56*
X5455000Y3600000D02*
D03*
Y3650000D02*
D03*
Y3700000D02*
D03*
Y3750000D02*
D03*
Y3800000D02*
D03*
X5296338Y3600000D02*
D03*
Y3650000D02*
D03*
Y3700000D02*
D03*
Y3750000D02*
D03*
Y3800000D02*
D03*
D57*
X6385000Y3188386D02*
D03*
Y3111614D02*
D03*
D58*
X6589568Y2942992D02*
D03*
Y2880000D02*
D03*
X6625000D02*
D03*
Y2942992D02*
D03*
D59*
X5971290Y3191102D02*
D03*
X6048124D02*
D03*
X5976290Y2891102D02*
D03*
X6053124D02*
D03*
X5976290Y2596102D02*
D03*
X6053124D02*
D03*
D60*
X6252108Y3186102D02*
D03*
X6177306D02*
D03*
X6214706Y3096102D02*
D03*
X6252108Y2591102D02*
D03*
X6177306D02*
D03*
X6214706Y2501102D02*
D03*
X6252108Y2888602D02*
D03*
X6177306D02*
D03*
X6214706Y2798602D02*
D03*
D61*
X4012362Y3687520D02*
D03*
X4032048D02*
D03*
X4051732D02*
D03*
X4071418D02*
D03*
X4091102D02*
D03*
X4110788D02*
D03*
X4130472D02*
D03*
X4150158D02*
D03*
X4169842D02*
D03*
X4189528D02*
D03*
X4209212D02*
D03*
X4228898D02*
D03*
X4248582D02*
D03*
X4268268D02*
D03*
X4287952D02*
D03*
X4307638D02*
D03*
Y3252480D02*
D03*
X4287952D02*
D03*
X4268268D02*
D03*
X4248582D02*
D03*
X4228898D02*
D03*
X4209212D02*
D03*
X4189528D02*
D03*
X4169842D02*
D03*
X4150158D02*
D03*
X4130472D02*
D03*
X4110788D02*
D03*
X4091102D02*
D03*
X4071418D02*
D03*
X4051732D02*
D03*
X4032048D02*
D03*
X4012362D02*
D03*
D62*
X4377520Y3617638D02*
D03*
Y3597952D02*
D03*
Y3578268D02*
D03*
Y3558582D02*
D03*
Y3538898D02*
D03*
Y3519212D02*
D03*
Y3499528D02*
D03*
Y3479842D02*
D03*
Y3460158D02*
D03*
Y3440472D02*
D03*
Y3420788D02*
D03*
Y3401102D02*
D03*
Y3381418D02*
D03*
Y3361732D02*
D03*
Y3342048D02*
D03*
Y3322362D02*
D03*
X3942480D02*
D03*
Y3342048D02*
D03*
Y3361732D02*
D03*
Y3381418D02*
D03*
Y3401102D02*
D03*
Y3420788D02*
D03*
Y3440472D02*
D03*
Y3460158D02*
D03*
Y3479842D02*
D03*
Y3499528D02*
D03*
Y3519212D02*
D03*
Y3538898D02*
D03*
Y3558582D02*
D03*
Y3578268D02*
D03*
Y3597952D02*
D03*
Y3617638D02*
D03*
D63*
X2880718Y4355624D02*
D03*
X2980718D02*
D03*
X3080718D02*
D03*
D64*
X2980718Y4604124D02*
D03*
D65*
X2141574Y4442598D02*
D03*
X2240000Y4480000D02*
D03*
Y4405196D02*
D03*
D66*
X3280718Y4443416D02*
D03*
Y4354834D02*
D03*
D69*
X2330000Y3665000D02*
D03*
X1915000Y3965000D02*
D03*
X1470000Y3295000D02*
D03*
X2395000Y3215000D02*
D03*
X2298000Y2635000D02*
D03*
X2010000Y2800000D02*
D03*
X1628000Y2635000D02*
D03*
X5760000Y4070000D02*
D03*
X2330000Y3815000D02*
D03*
X2625000Y4205000D02*
D03*
D70*
X2230000Y3665000D02*
D03*
X6205000Y3895000D02*
D03*
X1815000Y3965000D02*
D03*
X1370000Y3295000D02*
D03*
X4070000Y4160000D02*
D03*
X2295000Y3215000D02*
D03*
X2198000Y2635000D02*
D03*
X1910000Y2800000D02*
D03*
X1528000Y2635000D02*
D03*
X5860000Y4070000D02*
D03*
X2230000Y3815000D02*
D03*
X4625000Y4540000D02*
D03*
X6205000Y3610000D02*
D03*
X2525000Y4205000D02*
D03*
D71*
X6205000Y3795000D02*
D03*
X4070000Y4260000D02*
D03*
X4625000Y4440000D02*
D03*
X6205000Y3510000D02*
D03*
D72*
X1739960Y4695000D02*
D03*
D73*
X1925000Y4813110D02*
D03*
Y4576890D02*
D03*
D74*
X2697680Y1169292D02*
D03*
X2797680D02*
D03*
X2897680D02*
D03*
X2997680D02*
D03*
X3097680D02*
D03*
X3197680D02*
D03*
X3297680D02*
D03*
X3397680D02*
D03*
X3497680D02*
D03*
X3597680D02*
D03*
X3697680D02*
D03*
X3797680D02*
D03*
X3897680D02*
D03*
X3997680D02*
D03*
X4097680D02*
D03*
X4197680D02*
D03*
X4297680D02*
D03*
X4397680D02*
D03*
X4497680D02*
D03*
X4597680D02*
D03*
X4697680D02*
D03*
X4797680D02*
D03*
X4897680D02*
D03*
X4997680D02*
D03*
X5097680D02*
D03*
X2647680Y1244094D02*
D03*
X2747680D02*
D03*
X2847680D02*
D03*
X2947680D02*
D03*
X3047680D02*
D03*
X3147680D02*
D03*
X3247680D02*
D03*
X3347680D02*
D03*
X3447680D02*
D03*
X3547680D02*
D03*
X3647680D02*
D03*
X3747680D02*
D03*
X3847680D02*
D03*
X3947680D02*
D03*
X4047680D02*
D03*
X4147680D02*
D03*
X4247680D02*
D03*
X4347680D02*
D03*
X4447680D02*
D03*
X4547680D02*
D03*
X4647680D02*
D03*
X4747680D02*
D03*
X4847680D02*
D03*
X4947680D02*
D03*
X5047680D02*
D03*
X2697680Y1318898D02*
D03*
X2797680D02*
D03*
X2897680D02*
D03*
X2997680D02*
D03*
X3097680D02*
D03*
X3197680D02*
D03*
X3297680D02*
D03*
X3397680D02*
D03*
X3497680D02*
D03*
X3597680D02*
D03*
X3697680D02*
D03*
X3797680D02*
D03*
X3897680D02*
D03*
X3997680D02*
D03*
X4097680D02*
D03*
X4197680D02*
D03*
X4297680D02*
D03*
X4397680D02*
D03*
X4497680D02*
D03*
X4597680D02*
D03*
X4697680D02*
D03*
X4797680D02*
D03*
X4897680D02*
D03*
X4997680D02*
D03*
X5097680D02*
D03*
X2647680Y1393700D02*
D03*
X2747680D02*
D03*
X2847680D02*
D03*
X2947680D02*
D03*
X3047680D02*
D03*
X3147680D02*
D03*
X3247680D02*
D03*
X3347680D02*
D03*
X3447680D02*
D03*
X3547680D02*
D03*
X3647680D02*
D03*
X3747680D02*
D03*
X3847680D02*
D03*
X3947680D02*
D03*
X4047680D02*
D03*
X4147680D02*
D03*
X4247680D02*
D03*
X4347680D02*
D03*
X4447680D02*
D03*
X4547680D02*
D03*
X4647680D02*
D03*
X4747680D02*
D03*
X4847680D02*
D03*
X4947680D02*
D03*
X5047680D02*
D03*
D75*
X2332718Y1244094D02*
D03*
X5412640D02*
D03*
D76*
X5279218Y4663514D02*
D03*
D77*
Y4563514D02*
D03*
Y4463514D02*
D03*
Y4363514D02*
D03*
X5379218Y4663514D02*
D03*
Y4563514D02*
D03*
Y4463514D02*
D03*
Y4363514D02*
D03*
D78*
X1270000Y3746260D02*
D03*
Y3825000D02*
D03*
D79*
Y3667520D02*
D03*
D80*
X2677638Y4756536D02*
D03*
Y4323464D02*
D03*
X2468976Y4756536D02*
D03*
Y4323464D02*
D03*
D81*
X2530000Y4540000D02*
D03*
Y4461260D02*
D03*
Y4382520D02*
D03*
%TF.MD5,bbd2e119eb36be15633c7c770c80f583*%
M02*
