%TF.GenerationSoftware,Altium Limited,Altium Designer,20.2.5 (213)*%
G04 Layer_Color=8388736*
%FSLAX26Y26*%
%MOIN*%
%TF.SameCoordinates,271AC680-9A3E-4A00-A3D7-6C105C8C782D*%
%TF.FilePolarity,Positive*%
%TF.FileFunction,Other,Mechanical_10*%
%TF.Part,Single*%
G01*
G75*
%TA.AperFunction,NonConductor*%
%ADD88C,0.007874*%
G36*
X5369190Y3731049D02*
X5375233D01*
Y3727955D01*
X5369190D01*
Y3716998D01*
X5366351D01*
X5350044Y3728537D01*
Y3731049D01*
X5366351D01*
Y3734470D01*
X5369190D01*
Y3731049D01*
D02*
G37*
G36*
X5368026Y3713832D02*
X5368317D01*
X5369008Y3713759D01*
X5369809Y3713686D01*
X5370646Y3713540D01*
X5371411Y3713322D01*
X5372139Y3713067D01*
X5372175D01*
X5372212Y3713031D01*
X5372430Y3712922D01*
X5372721Y3712740D01*
X5373122Y3712485D01*
X5373522Y3712121D01*
X5373959Y3711720D01*
X5374396Y3711211D01*
X5374760Y3710628D01*
X5374796Y3710556D01*
X5374905Y3710337D01*
X5375051Y3710010D01*
X5375197Y3709536D01*
X5375378Y3708954D01*
X5375524Y3708299D01*
X5375633Y3707571D01*
X5375670Y3706770D01*
Y3706442D01*
X5375633Y3706224D01*
X5375597Y3705933D01*
X5375560Y3705642D01*
X5375415Y3704877D01*
X5375197Y3704076D01*
X5374869Y3703239D01*
X5374650Y3702802D01*
X5374396Y3702402D01*
X5374105Y3702038D01*
X5373777Y3701674D01*
X5373740Y3701638D01*
X5373704Y3701601D01*
X5373559Y3701528D01*
X5373413Y3701419D01*
X5373231Y3701274D01*
X5372976Y3701128D01*
X5372685Y3700982D01*
X5372357Y3700800D01*
X5371993Y3700655D01*
X5371556Y3700509D01*
X5371120Y3700364D01*
X5370610Y3700218D01*
X5370064Y3700145D01*
X5369445Y3700036D01*
X5368827Y3700000D01*
X5368135D01*
X5367698Y3703021D01*
X5367734D01*
X5367807D01*
X5367953D01*
X5368171Y3703057D01*
X5368390Y3703094D01*
X5368645D01*
X5369263Y3703203D01*
X5369918Y3703312D01*
X5370574Y3703530D01*
X5371156Y3703749D01*
X5371411Y3703894D01*
X5371629Y3704076D01*
X5371666Y3704113D01*
X5371775Y3704258D01*
X5371957Y3704477D01*
X5372139Y3704768D01*
X5372357Y3705168D01*
X5372503Y3705605D01*
X5372649Y3706151D01*
X5372685Y3706734D01*
Y3706952D01*
X5372649Y3707170D01*
X5372612Y3707498D01*
X5372539Y3707826D01*
X5372467Y3708190D01*
X5372321Y3708554D01*
X5372139Y3708918D01*
X5372102Y3708954D01*
X5372030Y3709063D01*
X5371884Y3709209D01*
X5371739Y3709427D01*
X5371484Y3709609D01*
X5371229Y3709828D01*
X5370938Y3710010D01*
X5370574Y3710155D01*
X5370537D01*
X5370392Y3710228D01*
X5370137Y3710264D01*
X5369809Y3710337D01*
X5369373Y3710410D01*
X5368827Y3710446D01*
X5368171Y3710519D01*
X5367407D01*
X5350044D01*
Y3713868D01*
X5367225D01*
X5367261D01*
X5367370D01*
X5367516D01*
X5367734D01*
X5368026Y3713832D01*
D02*
G37*
%LPC*%
G36*
X5366351Y3727955D02*
X5355067D01*
X5366351Y3720020D01*
Y3727955D01*
D02*
G37*
%LPD*%
D88*
X5237874Y3436220D02*
Y3963780D01*
X5513464D01*
Y3436220D02*
Y3963780D01*
X5237874Y3436220D02*
X5513464D01*
%TF.MD5,86fb10156bba8027e10ce7013f368904*%
M02*
