G04*
G04 #@! TF.GenerationSoftware,Altium Limited,Altium Designer,20.2.5 (213)*
G04*
G04 Layer_Color=32896*
%FSLAX25Y25*%
%MOIN*%
G70*
G04*
G04 #@! TF.SameCoordinates,7C5E352A-D8AC-4D21-BA38-630912A149F9*
G04*
G04*
G04 #@! TF.FilePolarity,Positive*
G04*
G01*
G75*
%ADD10C,0.00787*%
%ADD11C,0.00984*%
%ADD13C,0.02000*%
G36*
X287167Y389406D02*
X287245Y389402D01*
X287319Y389388D01*
X287388Y389374D01*
X287453Y389355D01*
X287513Y389337D01*
X287569Y389314D01*
X287619Y389291D01*
X287666Y389268D01*
X287703Y389245D01*
X287735Y389226D01*
X287763Y389208D01*
X287786Y389194D01*
X287800Y389180D01*
X287809Y389175D01*
X287813Y389171D01*
X287860Y389124D01*
X287901Y389074D01*
X287943Y389018D01*
X287975Y388963D01*
X288031Y388852D01*
X288068Y388741D01*
X288082Y388690D01*
X288095Y388639D01*
X288105Y388598D01*
X288114Y388561D01*
X288119Y388528D01*
Y388505D01*
X288123Y388492D01*
Y388487D01*
X287721Y388445D01*
X287712Y388552D01*
X287693Y388644D01*
X287666Y388727D01*
X287633Y388792D01*
X287606Y388847D01*
X287578Y388884D01*
X287559Y388907D01*
X287550Y388917D01*
X287481Y388972D01*
X287407Y389014D01*
X287328Y389046D01*
X287259Y389064D01*
X287194Y389078D01*
X287139Y389083D01*
X287121Y389088D01*
X287093D01*
X286996Y389083D01*
X286908Y389064D01*
X286834Y389037D01*
X286769Y389009D01*
X286719Y388977D01*
X286686Y388953D01*
X286663Y388935D01*
X286654Y388926D01*
X286598Y388861D01*
X286557Y388796D01*
X286525Y388732D01*
X286506Y388667D01*
X286492Y388616D01*
X286488Y388570D01*
X286483Y388542D01*
Y388538D01*
Y388533D01*
X286492Y388450D01*
X286511Y388362D01*
X286543Y388284D01*
X286575Y388210D01*
X286612Y388150D01*
X286645Y388099D01*
X286654Y388080D01*
X286663Y388067D01*
X286672Y388062D01*
Y388057D01*
X286709Y388006D01*
X286756Y387956D01*
X286806Y387900D01*
X286862Y387845D01*
X286977Y387734D01*
X287093Y387623D01*
X287153Y387572D01*
X287204Y387526D01*
X287255Y387484D01*
X287296Y387447D01*
X287328Y387420D01*
X287356Y387397D01*
X287375Y387383D01*
X287379Y387378D01*
X287495Y387281D01*
X287601Y387189D01*
X287689Y387105D01*
X287758Y387036D01*
X287818Y386976D01*
X287860Y386935D01*
X287883Y386907D01*
X287892Y386902D01*
Y386898D01*
X287957Y386819D01*
X288008Y386745D01*
X288054Y386671D01*
X288091Y386607D01*
X288119Y386551D01*
X288137Y386509D01*
X288146Y386482D01*
X288151Y386477D01*
Y386473D01*
X288169Y386422D01*
X288178Y386376D01*
X288188Y386329D01*
X288192Y386288D01*
X288197Y386251D01*
Y386223D01*
Y386205D01*
Y386200D01*
X286076D01*
Y386579D01*
X287652D01*
X287596Y386657D01*
X287569Y386690D01*
X287546Y386722D01*
X287523Y386750D01*
X287504Y386768D01*
X287490Y386782D01*
X287486Y386787D01*
X287462Y386810D01*
X287435Y386833D01*
X287370Y386893D01*
X287296Y386962D01*
X287218Y387032D01*
X287144Y387092D01*
X287111Y387119D01*
X287084Y387147D01*
X287060Y387166D01*
X287042Y387179D01*
X287033Y387189D01*
X287028Y387193D01*
X286954Y387258D01*
X286880Y387318D01*
X286816Y387378D01*
X286756Y387429D01*
X286700Y387480D01*
X286654Y387526D01*
X286608Y387567D01*
X286571Y387604D01*
X286534Y387641D01*
X286506Y387669D01*
X286483Y387692D01*
X286460Y387715D01*
X286437Y387743D01*
X286427Y387752D01*
X286363Y387831D01*
X286307Y387900D01*
X286261Y387969D01*
X286224Y388025D01*
X286196Y388076D01*
X286178Y388113D01*
X286169Y388136D01*
X286164Y388145D01*
X286137Y388214D01*
X286118Y388284D01*
X286100Y388348D01*
X286090Y388404D01*
X286086Y388455D01*
X286081Y388492D01*
Y388515D01*
Y388524D01*
X286086Y388593D01*
X286095Y388658D01*
X286104Y388722D01*
X286123Y388778D01*
X286169Y388889D01*
X286215Y388977D01*
X286243Y389018D01*
X286266Y389051D01*
X286289Y389083D01*
X286312Y389106D01*
X286331Y389124D01*
X286340Y389143D01*
X286349Y389148D01*
X286354Y389152D01*
X286404Y389198D01*
X286460Y389240D01*
X286520Y389272D01*
X286580Y389300D01*
X286700Y389346D01*
X286820Y389379D01*
X286871Y389388D01*
X286922Y389397D01*
X286968Y389402D01*
X287005Y389406D01*
X287037Y389411D01*
X287084D01*
X287167Y389406D01*
D02*
G37*
G36*
X284478Y389332D02*
X284529Y389258D01*
X284589Y389184D01*
X284644Y389120D01*
X284700Y389064D01*
X284741Y389018D01*
X284760Y389004D01*
X284774Y388990D01*
X284778Y388986D01*
X284783Y388981D01*
X284880Y388903D01*
X284977Y388829D01*
X285069Y388764D01*
X285162Y388713D01*
X285240Y388667D01*
X285273Y388649D01*
X285300Y388635D01*
X285323Y388621D01*
X285342Y388616D01*
X285351Y388607D01*
X285356D01*
Y388228D01*
X285286Y388256D01*
X285217Y388288D01*
X285148Y388321D01*
X285083Y388353D01*
X285028Y388381D01*
X284981Y388404D01*
X284954Y388422D01*
X284949Y388427D01*
X284945D01*
X284861Y388478D01*
X284787Y388528D01*
X284723Y388575D01*
X284672Y388616D01*
X284626Y388649D01*
X284598Y388676D01*
X284575Y388695D01*
X284570Y388699D01*
Y386200D01*
X284178D01*
Y389411D01*
X284432D01*
X284478Y389332D01*
D02*
G37*
G36*
X291200Y387549D02*
Y387457D01*
X291195Y387369D01*
X291191Y387286D01*
X291181Y387207D01*
X291172Y387138D01*
X291163Y387073D01*
X291149Y387013D01*
X291140Y386958D01*
X291131Y386907D01*
X291117Y386865D01*
X291108Y386828D01*
X291098Y386801D01*
X291089Y386777D01*
X291085Y386759D01*
X291080Y386750D01*
Y386745D01*
X291029Y386644D01*
X290964Y386551D01*
X290900Y386477D01*
X290830Y386413D01*
X290770Y386362D01*
X290720Y386325D01*
X290701Y386315D01*
X290687Y386306D01*
X290678Y386297D01*
X290673D01*
X290558Y386246D01*
X290438Y386209D01*
X290313Y386181D01*
X290197Y386163D01*
X290147Y386158D01*
X290096Y386154D01*
X290050Y386149D01*
X290013D01*
X289980Y386145D01*
X289939D01*
X289772Y386154D01*
X289699Y386163D01*
X289629Y386172D01*
X289560Y386186D01*
X289500Y386200D01*
X289444Y386214D01*
X289394Y386232D01*
X289347Y386251D01*
X289310Y386265D01*
X289274Y386279D01*
X289246Y386292D01*
X289223Y386306D01*
X289209Y386311D01*
X289199Y386320D01*
X289195D01*
X289093Y386389D01*
X289010Y386468D01*
X288945Y386542D01*
X288890Y386616D01*
X288848Y386681D01*
X288821Y386731D01*
X288811Y386750D01*
X288802Y386764D01*
X288798Y386773D01*
Y386777D01*
X288779Y386833D01*
X288761Y386893D01*
X288733Y387018D01*
X288714Y387147D01*
X288701Y387272D01*
X288696Y387327D01*
X288691Y387383D01*
Y387429D01*
X288687Y387471D01*
Y387503D01*
Y387526D01*
Y387544D01*
Y387549D01*
Y389397D01*
X289112D01*
Y387549D01*
Y387443D01*
X289121Y387341D01*
X289130Y387253D01*
X289144Y387170D01*
X289158Y387096D01*
X289176Y387027D01*
X289190Y386967D01*
X289209Y386916D01*
X289227Y386875D01*
X289246Y386833D01*
X289264Y386805D01*
X289278Y386777D01*
X289292Y386759D01*
X289301Y386745D01*
X289306Y386740D01*
X289310Y386736D01*
X289352Y386699D01*
X289398Y386667D01*
X289500Y386616D01*
X289606Y386579D01*
X289717Y386556D01*
X289819Y386537D01*
X289860Y386533D01*
X289902D01*
X289930Y386528D01*
X289976D01*
X290073Y386533D01*
X290160Y386546D01*
X290244Y386560D01*
X290308Y386583D01*
X290364Y386602D01*
X290405Y386616D01*
X290428Y386630D01*
X290438Y386634D01*
X290502Y386676D01*
X290558Y386727D01*
X290604Y386777D01*
X290636Y386824D01*
X290664Y386870D01*
X290687Y386902D01*
X290696Y386925D01*
X290701Y386935D01*
X290715Y386976D01*
X290724Y387018D01*
X290743Y387115D01*
X290757Y387216D01*
X290766Y387318D01*
X290770Y387406D01*
Y387447D01*
X290775Y387480D01*
Y387508D01*
Y387531D01*
Y387544D01*
Y387549D01*
Y389397D01*
X291200D01*
Y387549D01*
D02*
G37*
D10*
X292909Y369898D02*
X294091D01*
X292909Y382102D02*
X294091D01*
X292909Y369898D02*
Y382102D01*
X294091Y369898D02*
Y382102D01*
D11*
X289268Y368717D02*
G03*
X289268Y368717I-492J0D01*
G01*
D13*
X511268Y148890D02*
G03*
X511268Y148890I-1500J0D01*
G01*
M02*
