G04*
G04 #@! TF.GenerationSoftware,Altium Limited,Altium Designer,20.2.5 (213)*
G04*
G04 Layer_Color=32768*
%FSLAX25Y25*%
%MOIN*%
G70*
G04*
G04 #@! TF.SameCoordinates,7C5E352A-D8AC-4D21-BA38-630912A149F9*
G04*
G04*
G04 #@! TF.FilePolarity,Positive*
G04*
G01*
G75*
%ADD10C,0.00787*%
%ADD12C,0.00394*%
%ADD17C,0.00600*%
%ADD142C,0.00197*%
G36*
X554016Y145409D02*
X220520D01*
Y76992D01*
X554016D01*
Y145409D01*
D02*
G37*
G36*
X244331Y478250D02*
X270331D01*
Y429750D01*
X244331D01*
Y478250D01*
D02*
G37*
G36*
X278322Y437512D02*
Y476512D01*
X284272D01*
Y478613D01*
X311872D01*
Y476512D01*
X317822D01*
Y437512D01*
X310722D01*
Y431112D01*
X285422D01*
Y437512D01*
X278322D01*
D02*
G37*
G36*
X628171Y258460D02*
Y250760D01*
X623471D01*
Y247110D01*
X619471D01*
Y250760D01*
X614771D01*
Y258460D01*
X615730D01*
Y262110D01*
X627211D01*
Y258460D01*
X628171D01*
D02*
G37*
G36*
Y288210D02*
Y280510D01*
X623471D01*
Y276860D01*
X619471D01*
Y280510D01*
X614771D01*
Y288210D01*
X615730D01*
Y291860D01*
X627211D01*
Y288210D01*
X628171D01*
D02*
G37*
G36*
Y317960D02*
Y310260D01*
X623471D01*
Y306610D01*
X619471D01*
Y310260D01*
X614771D01*
Y317960D01*
X615730D01*
Y321610D01*
X627211D01*
Y317960D01*
X628171D01*
D02*
G37*
D10*
X262751Y374382D02*
X272626D01*
X262751Y357618D02*
Y374382D01*
Y357618D02*
X272626D01*
Y374382D01*
X341551Y319701D02*
Y332299D01*
X335449Y319701D02*
X341551D01*
X335449D02*
Y332299D01*
X341551D01*
X371489Y340033D02*
Y343467D01*
X364511D02*
X371489D01*
X364511Y340033D02*
Y343467D01*
Y340033D02*
X371489D01*
X397011Y377717D02*
X403989D01*
Y374283D02*
Y377717D01*
X397011Y374283D02*
X403989D01*
X397011D02*
Y377717D01*
X524295Y426351D02*
X537705D01*
Y418649D02*
Y426351D01*
X524295Y418649D02*
X537705D01*
X524295D02*
Y426351D01*
X299449Y404475D02*
X316214D01*
X299449D02*
Y414350D01*
X316214D01*
Y404475D02*
Y414350D01*
X299190Y415975D02*
X315954D01*
X299190D02*
Y425850D01*
X315954D01*
Y415975D02*
Y425850D01*
X279740Y425944D02*
X296693D01*
Y415881D02*
Y425944D01*
X279740Y415881D02*
X296693D01*
X279740D02*
Y425944D01*
X218618Y456563D02*
X235382D01*
X218618D02*
Y466437D01*
X235382D01*
Y456563D02*
Y466437D01*
X218764Y468563D02*
X235529D01*
X218764D02*
Y478437D01*
X235529D01*
Y468563D02*
Y478437D01*
X144149Y355795D02*
Y369205D01*
X151851D01*
Y355795D02*
Y369205D01*
X144149Y355795D02*
X151851D01*
X180701Y360949D02*
Y367051D01*
Y360949D02*
X193299D01*
Y367051D01*
X180701D02*
X193299D01*
X154149Y139248D02*
Y152658D01*
X161851D01*
Y139248D02*
Y152658D01*
X154149Y139248D02*
X161851D01*
X528795Y286149D02*
Y293851D01*
Y286149D02*
X542205D01*
Y293851D01*
X528795D02*
X542205D01*
X500201Y444949D02*
Y451051D01*
Y444949D02*
X512799D01*
Y451051D01*
X500201D02*
X512799D01*
X500201Y435449D02*
Y441551D01*
Y435449D02*
X512799D01*
Y441551D01*
X500201D02*
X512799D01*
X443783Y365989D02*
X447217D01*
X443783Y359011D02*
Y365989D01*
Y359011D02*
X447217D01*
Y365989D01*
X379783Y335011D02*
Y341989D01*
X383217D01*
Y335011D02*
Y341989D01*
X379783Y335011D02*
X383217D01*
X547295Y279406D02*
Y317595D01*
X571705D01*
Y279406D02*
Y317595D01*
X547295Y279406D02*
X571705D01*
X344149Y332205D02*
X351851D01*
X344149Y318795D02*
Y332205D01*
Y318795D02*
X351851D01*
Y332205D01*
X671295Y402149D02*
X684705D01*
X671295D02*
Y409851D01*
X684705D01*
Y402149D02*
Y409851D01*
X384783Y350011D02*
Y356989D01*
X388217D01*
Y350011D02*
Y356989D01*
X384783Y350011D02*
X388217D01*
X361011Y366967D02*
X367989D01*
Y363533D02*
Y366967D01*
X361011Y363533D02*
X367989D01*
X361011D02*
Y366967D01*
X381717Y346761D02*
Y353739D01*
X378283Y346761D02*
X381717D01*
X378283D02*
Y353739D01*
X381717D01*
X313544Y303471D02*
X324009D01*
X313544D02*
Y309771D01*
X324009D01*
Y303471D02*
Y309771D01*
X296214Y274239D02*
Y291003D01*
X286339Y274239D02*
X296214D01*
X286339D02*
Y291003D01*
X296214D01*
X295249Y249968D02*
Y260032D01*
Y249968D02*
X312202D01*
Y260032D01*
X295249D02*
X312202D01*
X296572Y271472D02*
X309982D01*
Y263770D02*
Y271472D01*
X296572Y263770D02*
X309982D01*
X296572D02*
Y271472D01*
X387968Y320332D02*
X398032D01*
X387968Y303378D02*
Y320332D01*
Y303378D02*
X398032D01*
Y320332D01*
X376153Y303023D02*
Y319977D01*
X385847D01*
Y303023D02*
Y319977D01*
X376153Y303023D02*
X385847D01*
X267851Y304295D02*
Y317705D01*
X260149Y304295D02*
X267851D01*
X260149D02*
Y317705D01*
X267851D01*
X186851Y309795D02*
Y323205D01*
X179149Y309795D02*
X186851D01*
X179149D02*
Y323205D01*
X186851D01*
X588854Y130149D02*
X602264D01*
X588854D02*
Y137851D01*
X602264D01*
Y130149D02*
Y137851D01*
X294906Y322295D02*
Y346705D01*
Y322295D02*
X333094D01*
Y346705D01*
X294906D02*
X333094D01*
X385283Y335291D02*
Y342269D01*
X388717D01*
Y335291D02*
Y342269D01*
X385283Y335291D02*
X388717D01*
X411295Y299149D02*
X424705D01*
X411295D02*
Y306851D01*
X424705D01*
Y299149D02*
Y306851D01*
X434709Y309283D02*
Y312717D01*
X427731D02*
X434709D01*
X427731Y309283D02*
Y312717D01*
Y309283D02*
X434709D01*
Y316283D02*
Y319717D01*
X427731D02*
X434709D01*
X427731Y316283D02*
Y319717D01*
Y316283D02*
X434709D01*
X417949Y284067D02*
Y296665D01*
X424051D01*
Y284067D02*
Y296665D01*
X417949Y284067D02*
X424051D01*
X441449Y291067D02*
Y303665D01*
X447551D01*
Y291067D02*
Y303665D01*
X441449Y291067D02*
X447551D01*
X182768Y267832D02*
X192832D01*
X182768Y250878D02*
Y267832D01*
Y250878D02*
X192832D01*
Y267832D01*
X205449Y236748D02*
Y250158D01*
X213151D01*
Y236748D02*
Y250158D01*
X205449Y236748D02*
X213151D01*
X201851Y236701D02*
Y249299D01*
X195749Y236701D02*
X201851D01*
X195749D02*
Y249299D01*
X201851D01*
X227701Y337449D02*
Y343551D01*
Y337449D02*
X240299D01*
Y343551D01*
X227701D02*
X240299D01*
X179649Y325295D02*
Y338705D01*
X187351D01*
Y325295D02*
Y338705D01*
X179649Y325295D02*
X187351D01*
X210783Y323731D02*
Y330709D01*
X214217D01*
Y323731D02*
Y330709D01*
X210783Y323731D02*
X214217D01*
X162449Y303594D02*
X168551D01*
X162449Y290996D02*
Y303594D01*
Y290996D02*
X168551D01*
Y303594D01*
X174752D02*
X181248D01*
X174752Y291390D02*
Y303594D01*
Y291390D02*
X181248D01*
Y303594D01*
X206299Y309449D02*
Y315551D01*
X193701D02*
X206299D01*
X193701Y309449D02*
Y315551D01*
Y309449D02*
X206299D01*
X371449Y381201D02*
Y393799D01*
X377551D01*
Y381201D02*
Y393799D01*
X371449Y381201D02*
X377551D01*
X155651Y212295D02*
Y225705D01*
X147949Y212295D02*
X155651D01*
X147949D02*
Y225705D01*
X155651D01*
X229158Y215149D02*
Y222851D01*
X215748D02*
X229158D01*
X215748Y215149D02*
Y222851D01*
Y215149D02*
X229158D01*
X147649Y193705D02*
X155351D01*
X147649Y180295D02*
Y193705D01*
Y180295D02*
X155351D01*
Y193705D01*
X593649Y171795D02*
X601351D01*
Y185205D01*
X593649D02*
X601351D01*
X593649Y171795D02*
Y185205D01*
X572205Y215649D02*
Y223351D01*
X558795D02*
X572205D01*
X558795Y215649D02*
Y223351D01*
Y215649D02*
X572205D01*
X278937D02*
Y223351D01*
X265527D02*
X278937D01*
X265527Y215649D02*
Y223351D01*
Y215649D02*
X278937D01*
X330205Y216149D02*
Y223851D01*
X316795D02*
X330205D01*
X316795Y216149D02*
Y223851D01*
Y216149D02*
X330205D01*
X431205Y215649D02*
Y223351D01*
X417795D02*
X431205D01*
X417795Y215649D02*
Y223351D01*
Y215649D02*
X431205D01*
X382764D02*
Y223351D01*
X369354D02*
X382764D01*
X369354Y215649D02*
Y223351D01*
Y215649D02*
X382764D01*
X476205Y215149D02*
Y222851D01*
X462795D02*
X476205D01*
X462795Y215149D02*
Y222851D01*
Y215149D02*
X476205D01*
X520752Y215649D02*
Y223351D01*
X507342D02*
X520752D01*
X507342Y215649D02*
Y223351D01*
Y215649D02*
X520752D01*
X543611Y429284D02*
Y473418D01*
X522233Y429284D02*
X543611D01*
X522233D02*
Y473418D01*
X543611D01*
X274649Y373205D02*
X282351D01*
X274649Y359795D02*
Y373205D01*
Y359795D02*
X282351D01*
Y373205D01*
X274649Y376795D02*
X282351D01*
Y390205D01*
X274649D02*
X282351D01*
X274649Y376795D02*
Y390205D01*
X551165Y399949D02*
Y406051D01*
X538567D02*
X551165D01*
X538567Y399949D02*
Y406051D01*
Y399949D02*
X551165D01*
X523787Y343622D02*
Y396378D01*
X551346D01*
Y343622D02*
Y396378D01*
X523787Y343622D02*
X551346D01*
X557599D02*
Y360576D01*
X567293D01*
Y343622D02*
Y360576D01*
X557599Y343622D02*
X567293D01*
X282201Y397551D02*
X294799D01*
Y391449D02*
Y397551D01*
X282201Y391449D02*
X294799D01*
X282201D02*
Y397551D01*
X207705Y369649D02*
Y377351D01*
X194295D02*
X207705D01*
X194295Y369649D02*
Y377351D01*
Y369649D02*
X207705D01*
X471149Y445948D02*
X478851D01*
Y459358D01*
X471149D02*
X478851D01*
X471149Y445948D02*
Y459358D01*
X310649Y348795D02*
X318351D01*
Y362205D01*
X310649D02*
X318351D01*
X310649Y348795D02*
Y362205D01*
X664469Y286032D02*
Y296268D01*
X656988Y286032D02*
X664469D01*
X656988D02*
Y296268D01*
X664469D01*
X592494Y323957D02*
X609447D01*
Y314264D02*
Y323957D01*
X592494Y314264D02*
X609447D01*
X592494D02*
Y323957D01*
X592994Y293957D02*
X609947D01*
Y284264D02*
Y293957D01*
X592994Y284264D02*
X609947D01*
X592994D02*
Y293957D01*
Y264457D02*
X609947D01*
Y254764D02*
Y264457D01*
X592994Y254764D02*
X609947D01*
X592994D02*
Y264457D01*
X633624Y276475D02*
Y293429D01*
X643317D01*
Y276475D02*
Y293429D01*
X633624Y276475D02*
X643317D01*
X633653Y247523D02*
Y264477D01*
X643347D01*
Y247523D02*
Y264477D01*
X633653Y247523D02*
X643347D01*
X153201Y380949D02*
X165799D01*
X153201D02*
Y387051D01*
X165799D01*
Y380949D02*
Y387051D01*
X168949Y373201D02*
Y385799D01*
X175051D01*
Y373201D02*
Y385799D01*
X168949Y373201D02*
X175051D01*
X323153Y451523D02*
X332847D01*
Y468477D01*
X323153D02*
X332847D01*
X323153Y451523D02*
Y468477D01*
X400511Y315783D02*
X407489D01*
X400511D02*
Y319217D01*
X407489D01*
Y315783D02*
Y319217D01*
X377783Y365011D02*
Y371989D01*
X381217D01*
Y365011D02*
Y371989D01*
X377783Y365011D02*
X381217D01*
X384283D02*
Y371989D01*
X387717D01*
Y365011D02*
Y371989D01*
X384283Y365011D02*
X387717D01*
D12*
X247500Y218031D02*
Y221969D01*
X245532Y220000D02*
X249469D01*
X603032Y305610D02*
X606969D01*
X605000Y303642D02*
Y307579D01*
X386000Y389532D02*
Y393469D01*
X384032Y391500D02*
X387969D01*
X384032Y382500D02*
X387969D01*
X386000Y380532D02*
Y384469D01*
X510434Y357396D02*
X514371D01*
X512402Y355427D02*
Y359364D01*
Y364427D02*
Y368364D01*
X510434Y366396D02*
X514371D01*
X500946Y351927D02*
Y355864D01*
X498977Y353896D02*
X502914D01*
X503988Y469000D02*
X507925D01*
X505957Y467032D02*
Y470969D01*
X483031Y183500D02*
X486969D01*
X485000Y181531D02*
Y185469D01*
X604532Y376043D02*
X608469D01*
X606500Y374075D02*
Y378012D01*
X190532Y469500D02*
X194469D01*
X192500Y467532D02*
Y471469D01*
X230032Y444500D02*
X233969D01*
X232000Y442532D02*
Y446469D01*
X217031Y431000D02*
X220969D01*
X219000Y429032D02*
Y432969D01*
X140032Y114500D02*
X143969D01*
X142000Y112532D02*
Y116469D01*
X578929Y131567D02*
X591921D01*
X578929Y108732D02*
Y131567D01*
Y108732D02*
X591921D01*
Y131567D01*
X631500Y160531D02*
Y164469D01*
X629532Y162500D02*
X633469D01*
X603532Y276000D02*
X607469D01*
X605500Y274032D02*
Y277969D01*
X603532Y246858D02*
X607469D01*
X605500Y244890D02*
Y248827D01*
X533827Y313623D02*
X537764D01*
X535795Y311655D02*
Y315592D01*
X533827Y303123D02*
X537764D01*
X535795Y301155D02*
Y305092D01*
X510434Y400396D02*
X514371D01*
X512402Y398427D02*
Y402364D01*
X510434Y390896D02*
X514371D01*
X512402Y388927D02*
Y392864D01*
X510434Y381396D02*
X514371D01*
X512402Y379427D02*
Y383364D01*
X500946Y367927D02*
Y371864D01*
X498977Y369896D02*
X502914D01*
X496221Y381396D02*
X500158D01*
X498190Y379427D02*
Y383364D01*
X496221Y390896D02*
X500158D01*
X498190Y388927D02*
Y392864D01*
X503988Y458000D02*
X507925D01*
X505957Y456032D02*
Y459969D01*
X354870Y157888D02*
Y170880D01*
Y157888D02*
X377705D01*
Y170880D01*
X354870D02*
X377705D01*
X293000Y294032D02*
Y297969D01*
X291031Y296000D02*
X294969D01*
X274808Y296121D02*
X278745D01*
X276777Y294153D02*
Y298090D01*
X318418Y294153D02*
Y298090D01*
X316450Y296121D02*
X320387D01*
X318277Y265653D02*
Y269590D01*
X316308Y267621D02*
X320245D01*
X142532Y170000D02*
X146469D01*
X144500Y168032D02*
Y171969D01*
X349500Y184031D02*
Y187969D01*
X347532Y186000D02*
X351469D01*
X301500Y181532D02*
Y185469D01*
X299531Y183500D02*
X303469D01*
X633465Y125031D02*
Y128969D01*
X631496Y127000D02*
X635433D01*
X433000Y285032D02*
Y288969D01*
X431031Y287000D02*
X434969D01*
X431031Y299500D02*
X434969D01*
X433000Y297532D02*
Y301469D01*
X176300Y257031D02*
Y260969D01*
X174332Y259000D02*
X178269D01*
X194000Y333575D02*
Y337512D01*
X192032Y335543D02*
X195969D01*
X170532Y332000D02*
X174469D01*
X172500Y330032D02*
Y333969D01*
X219063Y338532D02*
Y342469D01*
X217094Y340500D02*
X221031D01*
X204500Y336531D02*
Y340469D01*
X202532Y338500D02*
X206469D01*
X217500Y296606D02*
Y300543D01*
X215532Y298575D02*
X219469D01*
X202032Y297000D02*
X205969D01*
X204000Y295031D02*
Y298969D01*
X190500Y295425D02*
Y299362D01*
X188532Y297394D02*
X192469D01*
X172500Y314980D02*
Y318917D01*
X170532Y316949D02*
X174469D01*
X190500Y192390D02*
Y196327D01*
X188531Y194358D02*
X192469D01*
X533500Y189890D02*
Y193827D01*
X531531Y191858D02*
X535469D01*
X342031Y248000D02*
X345969D01*
X344000Y246032D02*
Y249969D01*
X342031Y238000D02*
X345969D01*
X344000Y236032D02*
Y239969D01*
X343031Y227500D02*
X346969D01*
X345000Y225532D02*
Y229469D01*
X394000Y195390D02*
Y199327D01*
X392031Y197358D02*
X395969D01*
X534000Y236496D02*
Y240433D01*
X532031Y238465D02*
X535969D01*
X520500Y236496D02*
Y240433D01*
X518531Y238465D02*
X522469D01*
X507000Y236496D02*
Y240433D01*
X505031Y238465D02*
X508969D01*
X440500Y194890D02*
Y198827D01*
X438531Y196858D02*
X442469D01*
X485701Y170880D02*
X508536D01*
Y157888D02*
Y170880D01*
X485701Y157888D02*
X508536D01*
X485701D02*
Y170880D01*
X442091D02*
X464925D01*
Y157888D02*
Y170880D01*
X442091Y157888D02*
X464925D01*
X442091D02*
Y170880D01*
X398481D02*
X421315D01*
Y157888D02*
Y170880D01*
X398481Y157888D02*
X421315D01*
X398481D02*
Y170880D01*
X311260D02*
X334095D01*
Y157888D02*
Y170880D01*
X311260Y157888D02*
X334095D01*
X311260D02*
Y170880D01*
X267650D02*
X290484D01*
Y157888D02*
Y170880D01*
X267650Y157888D02*
X290484D01*
X267650D02*
Y170880D01*
X529933Y158079D02*
Y171071D01*
Y158079D02*
X552768D01*
Y171071D01*
X529933D02*
X552768D01*
X591921Y146083D02*
Y168917D01*
X578929Y146083D02*
X591921D01*
X578929D02*
Y168917D01*
X591921D01*
X188079Y108732D02*
Y131567D01*
X201071D01*
Y108732D02*
Y131567D01*
X188079Y108732D02*
X201071D01*
X188429Y150382D02*
Y173217D01*
X201421D01*
Y150382D02*
Y173217D01*
X188429Y150382D02*
X201421D01*
X241083Y157929D02*
X263917D01*
X241083D02*
Y170921D01*
X263917D01*
Y157929D02*
Y170921D01*
X268000Y382031D02*
Y385969D01*
X266032Y384000D02*
X269969D01*
X655346Y368114D02*
X659283D01*
X657315Y366146D02*
Y370083D01*
X537567Y368032D02*
Y371969D01*
X535598Y370000D02*
X539535D01*
X498190Y398427D02*
Y402364D01*
X496221Y400396D02*
X500158D01*
X550429Y440583D02*
Y463417D01*
X563421D01*
Y440583D02*
Y463417D01*
X550429Y440583D02*
X563421D01*
X400594Y403500D02*
X404531D01*
X402563Y401532D02*
Y405469D01*
X418094Y403500D02*
X422032D01*
X420063Y401532D02*
Y405469D01*
X329500Y353890D02*
Y357827D01*
X327532Y355858D02*
X331469D01*
X450000Y449220D02*
Y453157D01*
X448031Y451189D02*
X451969D01*
X636532Y315000D02*
X640469D01*
X638500Y313032D02*
Y316969D01*
X114205Y372657D02*
Y376594D01*
X112236Y374626D02*
X116173D01*
X662532Y410000D02*
X666469D01*
X664500Y408031D02*
Y411968D01*
X416000Y345032D02*
Y348969D01*
X414031Y347000D02*
X417969D01*
X606500Y391031D02*
Y394969D01*
X604532Y393000D02*
X608469D01*
X298000Y354031D02*
Y357969D01*
X296032Y356000D02*
X299969D01*
X326103Y439912D02*
X330040D01*
X328072Y437944D02*
Y441881D01*
D17*
X220520Y76992D02*
Y145409D01*
Y76992D02*
X554016D01*
Y145409D01*
X220520D02*
X554016D01*
X628171Y310260D02*
Y317960D01*
X623471Y310260D02*
X628171D01*
X623471Y306610D02*
Y310260D01*
X619471Y306610D02*
X623471D01*
X619471D02*
Y310260D01*
X614771D02*
X619471D01*
X614771D02*
Y317960D01*
X615731D01*
X627211D02*
X628171D01*
X615731D02*
Y321610D01*
X627211Y317960D02*
Y321610D01*
X615731D02*
X627211D01*
X628171Y250760D02*
Y258460D01*
X623471Y250760D02*
X628171D01*
X623471Y247110D02*
Y250760D01*
X619471Y247110D02*
X623471D01*
X619471D02*
Y250760D01*
X614771D02*
X619471D01*
X614771D02*
Y258460D01*
X615731D01*
X627211D02*
X628171D01*
X615731D02*
Y262110D01*
X627211Y258460D02*
Y262110D01*
X615731D02*
X627211D01*
X628171Y280510D02*
Y288210D01*
X623471Y280510D02*
X628171D01*
X623471Y276860D02*
Y280510D01*
X619471Y276860D02*
X623471D01*
X619471D02*
Y280510D01*
X614771D02*
X619471D01*
X614771D02*
Y288210D01*
X615731D01*
X627211D02*
X628171D01*
X615731D02*
Y291860D01*
X627211Y288210D02*
Y291860D01*
X615731D02*
X627211D01*
X278322Y437512D02*
Y476512D01*
X284272D01*
Y478612D01*
X311872D01*
Y476512D02*
Y478612D01*
Y476512D02*
X317822D01*
Y437512D02*
Y476512D01*
X310722Y437512D02*
X317822D01*
X310722Y431112D02*
Y437512D01*
X285422Y431112D02*
X310722D01*
X285422D02*
Y437512D01*
X278322D02*
X285422D01*
X270331Y429750D02*
Y478250D01*
X244331Y429750D02*
X270331D01*
X244331D02*
Y478250D01*
X270331D01*
D142*
X239035Y214882D02*
X255965D01*
X239035Y225118D02*
X255965D01*
Y214882D02*
Y225118D01*
X239035Y214882D02*
Y225118D01*
X610118Y297146D02*
Y314075D01*
X599882Y297146D02*
Y314075D01*
X610118D01*
X599882Y297146D02*
X610118D01*
X422823Y276850D02*
Y283150D01*
X413177D02*
X422823D01*
X413177Y276850D02*
Y283150D01*
Y276850D02*
X422823D01*
X151850Y315677D02*
X158150D01*
Y325323D01*
X151850D02*
X158150D01*
X151850Y315677D02*
Y325323D01*
X217417Y371685D02*
X238583D01*
Y361315D02*
Y371685D01*
X217417Y361315D02*
X238583D01*
X217417D02*
Y371685D01*
X379307Y387563D02*
X392693D01*
X379307Y395437D02*
X392693D01*
Y387563D02*
Y395437D01*
X379307Y387563D02*
Y395437D01*
X392496Y378760D02*
Y386240D01*
X379504Y378760D02*
Y386240D01*
Y378760D02*
X392496D01*
X379504Y386240D02*
X392496D01*
X518899Y353656D02*
Y361136D01*
X505906Y353656D02*
Y361136D01*
Y353656D02*
X518899D01*
X505906Y361136D02*
X518899D01*
X505906Y370136D02*
X518899D01*
X505906Y362656D02*
X518899D01*
X505906D02*
Y370136D01*
X518899Y362656D02*
Y370136D01*
X497206Y360392D02*
X504686D01*
X497206Y347400D02*
X504686D01*
Y360392D01*
X497206Y347400D02*
Y360392D01*
X553889Y432730D02*
Y439029D01*
X544243D02*
X553889D01*
X544243Y432730D02*
Y439029D01*
Y432730D02*
X553889D01*
X615315Y395083D02*
X625685D01*
X615315Y373917D02*
Y395083D01*
Y373917D02*
X625685D01*
Y395083D01*
X512453Y465260D02*
Y472740D01*
X499461Y465260D02*
Y472740D01*
Y465260D02*
X512453D01*
X499461Y472740D02*
X512453D01*
X479882Y175035D02*
Y191965D01*
X490118Y175035D02*
Y191965D01*
X479882Y175035D02*
X490118D01*
X479882Y191965D02*
X490118D01*
X400626Y213774D02*
X431374D01*
X400626Y191226D02*
X431374D01*
X400626D02*
Y213774D01*
X431374Y191226D02*
Y213774D01*
X602760Y369547D02*
Y382539D01*
X610240Y369547D02*
Y382539D01*
X602760Y369547D02*
X610240D01*
X602760Y382539D02*
X610240D01*
X193396Y445236D02*
Y449764D01*
X183159D02*
X193396D01*
X183159Y445236D02*
Y449764D01*
Y445236D02*
X193396D01*
X170650Y512020D02*
X210610D01*
Y454343D02*
Y512020D01*
X170650Y454343D02*
Y512020D01*
Y454343D02*
X210610D01*
X228949Y438476D02*
X235051D01*
X228949D02*
Y450524D01*
X235051D01*
Y438476D02*
Y450524D01*
X210732Y426079D02*
Y435921D01*
X227268Y426079D02*
Y435921D01*
X210732D02*
X227268D01*
X210732Y426079D02*
X227268D01*
X155177Y367850D02*
X164823D01*
X155177D02*
Y374150D01*
X164823D01*
Y367850D02*
Y374150D01*
X136236Y368118D02*
X140764D01*
X136236Y357882D02*
Y368118D01*
Y357882D02*
X140764D01*
Y368118D01*
X136236Y369744D02*
X140764D01*
Y379980D01*
X136236D02*
X140764D01*
X136236Y369744D02*
Y379980D01*
X152350Y395677D02*
Y405323D01*
X158650D01*
Y395677D02*
Y405323D01*
X152350Y395677D02*
X158650D01*
X161350D02*
Y405323D01*
X167650D01*
Y395677D02*
Y405323D01*
X161350Y395677D02*
X167650D01*
X201851Y395177D02*
Y404823D01*
X208150D01*
Y395177D02*
Y404823D01*
X201851Y395177D02*
X208150D01*
X175917Y401685D02*
X197083D01*
Y391315D02*
Y401685D01*
X175917Y391315D02*
X197083D01*
X175917D02*
Y401685D01*
X193193Y370331D02*
Y386669D01*
X179807Y370331D02*
X193193D01*
X179807D02*
Y386669D01*
X193193D01*
X239177Y347850D02*
X248823D01*
X239177D02*
Y354150D01*
X248823D01*
Y347850D02*
Y354150D01*
X133350Y307677D02*
Y317323D01*
X139650D01*
Y307677D02*
Y317323D01*
X133350Y307677D02*
X139650D01*
X131417Y324315D02*
Y334685D01*
Y324315D02*
X152583D01*
Y334685D01*
X131417D02*
X152583D01*
X159350Y276177D02*
Y285823D01*
X165650D01*
Y276177D02*
Y285823D01*
X159350Y276177D02*
X165650D01*
X161850Y308177D02*
Y317823D01*
X168150D01*
Y308177D02*
Y317823D01*
X161850Y308177D02*
X168150D01*
X139850Y235677D02*
Y245323D01*
X146150D01*
Y235677D02*
Y245323D01*
X139850Y235677D02*
X146150D01*
X127350Y234177D02*
Y243823D01*
X133650D01*
Y234177D02*
Y243823D01*
X127350Y234177D02*
X133650D01*
X156226Y139374D02*
X178774D01*
X156226Y108626D02*
X178774D01*
Y139374D01*
X156226Y108626D02*
Y139374D01*
X147118Y106035D02*
Y122965D01*
X136882Y106035D02*
Y122965D01*
X147118D01*
X136882Y106035D02*
X147118D01*
X572677Y216350D02*
X582323D01*
X572677D02*
Y222650D01*
X582323D01*
Y216350D02*
Y222650D01*
X606677Y191850D02*
X616323D01*
X606677D02*
Y198150D01*
X616323D01*
Y191850D02*
Y198150D01*
X622350Y192177D02*
Y201823D01*
X628650D01*
Y192177D02*
Y201823D01*
X622350Y192177D02*
X628650D01*
X647177Y106850D02*
X656823D01*
X647177D02*
Y113150D01*
X656823D01*
Y106850D02*
Y113150D01*
X623035Y157382D02*
X639965D01*
X623035Y167618D02*
X639965D01*
Y157382D02*
Y167618D01*
X623035Y157382D02*
Y167618D01*
X610618Y267535D02*
Y284465D01*
X600382Y267535D02*
Y284465D01*
X610618D01*
X600382Y267535D02*
X610618D01*
Y238394D02*
Y255323D01*
X600382Y238394D02*
Y255323D01*
X610618D01*
X600382Y238394D02*
X610618D01*
X542291Y309883D02*
Y317363D01*
X529299Y309883D02*
Y317363D01*
Y309883D02*
X542291D01*
X529299Y317363D02*
X542291D01*
X544260Y298005D02*
Y308241D01*
X527331Y298005D02*
Y308241D01*
Y298005D02*
X544260D01*
X527331Y308241D02*
X544260D01*
X518899Y396656D02*
Y404136D01*
X505906Y396656D02*
Y404136D01*
Y396656D02*
X518899D01*
X505906Y404136D02*
X518899D01*
Y387156D02*
Y394636D01*
X505906Y387156D02*
Y394636D01*
Y387156D02*
X518899D01*
X505906Y394636D02*
X518899D01*
Y377656D02*
Y385136D01*
X505906Y377656D02*
Y385136D01*
Y377656D02*
X518899D01*
X505906Y385136D02*
X518899D01*
X497206Y363400D02*
X504686D01*
X497206Y376392D02*
X504686D01*
X497206Y363400D02*
Y376392D01*
X504686Y363400D02*
Y376392D01*
Y377656D02*
Y385136D01*
X491694Y377656D02*
Y385136D01*
Y377656D02*
X504686D01*
X491694Y385136D02*
X504686D01*
X491694Y387156D02*
Y394636D01*
X504686Y387156D02*
Y394636D01*
X491694D02*
X504686D01*
X491694Y387156D02*
X504686D01*
X512453Y454260D02*
Y461740D01*
X499461Y454260D02*
Y461740D01*
Y454260D02*
X512453D01*
X499461Y461740D02*
X512453D01*
X666350Y225677D02*
Y235323D01*
X672650D01*
Y225677D02*
Y235323D01*
X666350Y225677D02*
X672650D01*
X244150Y146177D02*
Y155823D01*
X237850Y146177D02*
X244150D01*
X237850D02*
Y155823D01*
X244150D01*
X171177Y277350D02*
X180823D01*
X171177D02*
Y283650D01*
X180823D01*
Y277350D02*
Y283650D01*
X215351Y277677D02*
Y287323D01*
X221650D01*
Y277677D02*
Y287323D01*
X215351Y277677D02*
X221650D01*
X131851Y194677D02*
Y204323D01*
X138150D01*
Y194677D02*
Y204323D01*
X131851Y194677D02*
X138150D01*
X121851Y161177D02*
Y170823D01*
X128150D01*
Y161177D02*
Y170823D01*
X121851Y161177D02*
X128150D01*
X117850Y105677D02*
Y115323D01*
X124150D01*
Y105677D02*
Y115323D01*
X117850Y105677D02*
X124150D01*
X306467Y219112D02*
Y228757D01*
X312766D01*
Y219112D02*
Y228757D01*
X306467Y219112D02*
X312766D01*
X238177Y230350D02*
X247823D01*
X238177D02*
Y236650D01*
X247823D01*
Y230350D02*
Y236650D01*
X579677Y186350D02*
X589323D01*
X579677D02*
Y192650D01*
X589323D01*
Y186350D02*
Y192650D01*
X252221Y370331D02*
Y379976D01*
X258520D01*
Y370331D02*
Y379976D01*
X252221Y370331D02*
X258520D01*
X668177Y434350D02*
X677823D01*
X668177D02*
Y440650D01*
X677823D01*
Y434350D02*
Y440650D01*
X262850Y145677D02*
Y155323D01*
X269150D01*
Y145677D02*
Y155323D01*
X262850Y145677D02*
X269150D01*
X617177Y402350D02*
X626823D01*
X617177D02*
Y408650D01*
X626823D01*
Y402350D02*
Y408650D01*
X616837Y330815D02*
Y340461D01*
X623136D01*
Y330815D02*
Y340461D01*
X616837Y330815D02*
X623136D01*
X556850Y369677D02*
Y379323D01*
X563150D01*
Y369677D02*
Y379323D01*
X556850Y369677D02*
X563150D01*
X199350Y429677D02*
Y439323D01*
X205650D01*
Y429677D02*
Y439323D01*
X199350Y429677D02*
X205650D01*
X401815Y410417D02*
X412185D01*
Y431583D01*
X401815D02*
X412185D01*
X401815Y410417D02*
Y431583D01*
X359307Y345179D02*
Y361321D01*
Y345179D02*
X372693D01*
Y361321D01*
X359307D02*
X372693D01*
X297887Y273952D02*
X311666D01*
Y290290D01*
X297887D02*
X311666D01*
X297887Y273952D02*
Y290290D01*
X286504Y292260D02*
X299496D01*
X286504Y299740D02*
X299496D01*
Y292260D02*
Y299740D01*
X286504Y292260D02*
Y299740D01*
X269887Y292381D02*
Y299861D01*
X283667Y292381D02*
Y299861D01*
X269887D02*
X283667D01*
X269887Y292381D02*
X283667D01*
X270084Y301452D02*
X283470D01*
Y317790D01*
X270084D02*
X283470D01*
X270084Y301452D02*
Y317790D01*
X309954Y291003D02*
X326883D01*
X309954Y301239D02*
X326883D01*
Y291003D02*
Y301239D01*
X309954Y291003D02*
Y301239D01*
X309812Y272739D02*
X326741D01*
X309812Y262503D02*
X326741D01*
X309812D02*
Y272739D01*
X326741Y262503D02*
Y272739D01*
X149618Y161535D02*
Y178465D01*
X139382Y161535D02*
Y178465D01*
X149618D01*
X139382Y161535D02*
X149618D01*
X229075Y191226D02*
Y213774D01*
X198327Y191226D02*
Y213774D01*
Y191226D02*
X229075D01*
X198327Y213774D02*
X229075D01*
X300126D02*
X330874D01*
X300126Y191226D02*
X330874D01*
X300126D02*
Y213774D01*
X330874Y191226D02*
Y213774D01*
X277153Y191226D02*
Y213774D01*
X246405Y191226D02*
Y213774D01*
Y191226D02*
X277153D01*
X246405Y213774D02*
X277153D01*
X341035Y180882D02*
X357965D01*
X341035Y191118D02*
X357965D01*
Y180882D02*
Y191118D01*
X341035Y180882D02*
Y191118D01*
X293035Y188618D02*
X309965D01*
X293035Y178382D02*
X309965D01*
X293035D02*
Y188618D01*
X309965Y178382D02*
Y188618D01*
X570673Y191226D02*
Y213774D01*
X539925Y191226D02*
Y213774D01*
Y191226D02*
X570673D01*
X539925Y213774D02*
X570673D01*
X601726Y179374D02*
X624274D01*
X601726Y148626D02*
X624274D01*
Y179374D01*
X601726Y148626D02*
Y179374D01*
Y137374D02*
X624274D01*
X601726Y106626D02*
X624274D01*
Y137374D01*
X601726Y106626D02*
Y137374D01*
X625000Y121882D02*
X641929D01*
X625000Y132118D02*
X641929D01*
Y121882D02*
Y132118D01*
X625000Y121882D02*
Y132118D01*
X426504Y283260D02*
X439496D01*
X426504Y290740D02*
X439496D01*
Y283260D02*
Y290740D01*
X426504Y283260D02*
Y290740D01*
X439693Y295563D02*
Y303437D01*
X426307Y295563D02*
Y303437D01*
Y295563D02*
X439693D01*
X426307Y303437D02*
X439693D01*
X223917Y326685D02*
X245083D01*
Y316315D02*
Y326685D01*
X223917Y316315D02*
X245083D01*
X223917D02*
Y326685D01*
X192224Y319071D02*
X207776D01*
X192224D02*
Y327929D01*
X207776Y319071D02*
Y327929D01*
X192224D02*
X207776D01*
X214217Y258315D02*
Y268685D01*
Y258315D02*
X235383D01*
Y268685D01*
X214217D02*
X235383D01*
X185417Y274815D02*
Y285185D01*
Y274815D02*
X206583D01*
Y285185D01*
X185417D02*
X206583D01*
X147217Y258315D02*
Y268685D01*
Y258315D02*
X168383D01*
Y268685D01*
X147217D02*
X168383D01*
X171379Y250732D02*
X181221D01*
X171379Y267268D02*
X181221D01*
X171379Y250732D02*
Y267268D01*
X181221Y250732D02*
Y267268D01*
X197107Y267669D02*
X210493D01*
X197107Y251331D02*
Y267669D01*
Y251331D02*
X210493D01*
Y267669D01*
X190260Y329047D02*
X197740D01*
X190260Y342039D02*
X197740D01*
X190260Y329047D02*
Y342039D01*
X197740Y329047D02*
Y342039D01*
X167579Y323732D02*
Y340268D01*
X177421Y323732D02*
Y340268D01*
X167579Y323732D02*
X177421D01*
X167579Y340268D02*
X177421D01*
X210795Y335579D02*
X227331D01*
X210795Y345421D02*
X227331D01*
Y335579D02*
Y345421D01*
X210795Y335579D02*
Y345421D01*
X200760Y332004D02*
X208240D01*
X200760Y344996D02*
X208240D01*
X200760Y332004D02*
Y344996D01*
X208240Y332004D02*
Y344996D01*
X214154Y303890D02*
X220846D01*
X214154Y293260D02*
X220846D01*
Y303890D01*
X214154Y293260D02*
Y303890D01*
X200260Y290110D02*
Y303890D01*
X207740Y290110D02*
Y303890D01*
X200260Y290110D02*
X207740D01*
X200260Y303890D02*
X207740D01*
X186760D02*
X194240D01*
X186760Y290898D02*
X194240D01*
Y303890D01*
X186760Y290898D02*
Y303890D01*
X169154Y311634D02*
X175846D01*
X169154Y322264D02*
X175846D01*
X169154Y311634D02*
Y322264D01*
X175846Y311634D02*
Y322264D01*
X131607Y227169D02*
X144993D01*
X131607Y210831D02*
Y227169D01*
Y210831D02*
X144993D01*
Y227169D01*
X185382Y202823D02*
X195618D01*
X185382Y185894D02*
X195618D01*
Y202823D01*
X185382Y185894D02*
Y202823D01*
X528382Y200323D02*
X538618D01*
X528382Y183394D02*
X538618D01*
Y200323D01*
X528382Y183394D02*
Y200323D01*
X352465Y242882D02*
Y253118D01*
X335535Y242882D02*
Y253118D01*
Y242882D02*
X352465D01*
X335535Y253118D02*
X352465D01*
Y232882D02*
Y243118D01*
X335535Y232882D02*
Y243118D01*
Y232882D02*
X352465D01*
X335535Y243118D02*
X352465D01*
X353465Y222382D02*
Y232618D01*
X336535Y222382D02*
Y232618D01*
Y222382D02*
X353465D01*
X336535Y232618D02*
X353465D01*
X388882Y205823D02*
X399118D01*
X388882Y188894D02*
X399118D01*
Y205823D01*
X388882Y188894D02*
Y205823D01*
X528882Y246929D02*
X539118D01*
X528882Y230000D02*
X539118D01*
Y246929D01*
X528882Y230000D02*
Y246929D01*
X515382D02*
X525618D01*
X515382Y230000D02*
X525618D01*
Y246929D01*
X515382Y230000D02*
Y246929D01*
X501882D02*
X512118D01*
X501882Y230000D02*
X512118D01*
Y246929D01*
X501882Y230000D02*
Y246929D01*
X435382Y205323D02*
X445618D01*
X435382Y188394D02*
X445618D01*
Y205323D01*
X435382Y188394D02*
Y205323D01*
X489126Y213774D02*
X519874D01*
X489126Y191226D02*
X519874D01*
X489126D02*
Y213774D01*
X519874Y191226D02*
Y213774D01*
X446126D02*
X476874D01*
X446126Y191226D02*
X476874D01*
X446126D02*
Y213774D01*
X476874Y191226D02*
Y213774D01*
X351126D02*
X381874D01*
X351126Y191226D02*
X381874D01*
X351126D02*
Y213774D01*
X381874Y191226D02*
Y213774D01*
X157726Y164126D02*
Y194874D01*
X180274Y164126D02*
Y194874D01*
X157726Y164126D02*
X180274D01*
X157726Y194874D02*
X180274D01*
X570417Y401815D02*
X591583D01*
X570417D02*
Y412185D01*
X591583D01*
Y401815D02*
Y412185D01*
X263079Y375732D02*
X272921D01*
X263079Y392268D02*
X272921D01*
X263079Y375732D02*
Y392268D01*
X272921Y375732D02*
Y392268D01*
X630701Y340831D02*
Y395398D01*
X687906D01*
Y340831D02*
Y395398D01*
X630701Y340831D02*
X687906D01*
X491694Y404136D02*
X504686D01*
X491694Y396656D02*
X504686D01*
X491694D02*
Y404136D01*
X504686Y396656D02*
Y404136D01*
X394295Y398579D02*
Y408421D01*
X410831Y398579D02*
Y408421D01*
X394295D02*
X410831D01*
X394295Y398579D02*
X410831D01*
X428331D02*
Y408421D01*
X411795Y398579D02*
Y408421D01*
Y398579D02*
X428331D01*
X411795Y408421D02*
X428331D01*
X324382Y347394D02*
X334618D01*
X324382Y364323D02*
X334618D01*
X324382Y347394D02*
Y364323D01*
X334618Y347394D02*
Y364323D01*
X444882Y459653D02*
X455118D01*
X444882Y442724D02*
X455118D01*
Y459653D01*
X444882Y442724D02*
Y459653D01*
X643618Y306535D02*
Y323465D01*
X633382Y306535D02*
Y323465D01*
X643618D01*
X633382Y306535D02*
X643618D01*
X93142Y355138D02*
Y394114D01*
Y355138D02*
X135268D01*
Y394114D01*
X93142D02*
X135268D01*
X136236Y381520D02*
Y391756D01*
X140764D01*
Y381520D02*
Y391756D01*
X136236Y381520D02*
X140764D01*
X217417Y376315D02*
Y386685D01*
Y376315D02*
X238583D01*
Y386685D01*
X217417D02*
X238583D01*
X467685Y438417D02*
Y459583D01*
X457315Y438417D02*
X467685D01*
X457315D02*
Y459583D01*
X467685D01*
X625685Y345417D02*
Y366583D01*
X615315Y345417D02*
X625685D01*
X615315D02*
Y366583D01*
X625685D01*
X668240Y403504D02*
Y416496D01*
X660760Y403504D02*
Y416496D01*
X668240D01*
X660760Y403504D02*
X668240D01*
X390803Y321803D02*
X441197D01*
X390803Y372197D02*
X441197D01*
Y321803D02*
Y372197D01*
X390803Y321803D02*
Y372197D01*
X602760Y386504D02*
X610240D01*
X602760Y399496D02*
X610240D01*
X602760Y386504D02*
Y399496D01*
X610240Y386504D02*
Y399496D01*
X294260Y349504D02*
X301740D01*
X294260Y362496D02*
X301740D01*
X294260Y349504D02*
Y362496D01*
X301740Y349504D02*
Y362496D01*
X227346Y437173D02*
Y451346D01*
X210811D02*
X227346D01*
X210811Y437173D02*
Y451346D01*
Y437173D02*
X227346D01*
X246917Y425685D02*
X268083D01*
Y415315D02*
Y425685D01*
X246917Y415315D02*
X268083D01*
X246917D02*
Y425685D01*
X325119Y432826D02*
Y446999D01*
X331025Y432826D02*
Y446999D01*
X325119D02*
X331025D01*
X325119Y432826D02*
X331025D01*
M02*
