G04*
G04 #@! TF.GenerationSoftware,Altium Limited,Altium Designer,20.2.5 (213)*
G04*
G04 Layer_Color=255*
%FSLAX25Y25*%
%MOIN*%
G70*
G04*
G04 #@! TF.SameCoordinates,7C5E352A-D8AC-4D21-BA38-630912A149F9*
G04*
G04*
G04 #@! TF.FilePolarity,Positive*
G04*
G01*
G75*
%ADD115C,0.05386*%
%ADD117R,0.06181X0.06181*%
%ADD118C,0.06181*%
%ADD122C,0.04000*%
%ADD125R,0.04882X0.04882*%
%ADD126C,0.04882*%
%ADD127R,0.04882X0.04882*%
%ADD128R,0.05906X0.08268*%
%ADD129R,0.08268X0.05906*%
%ADD130C,0.12874*%
%ADD131C,0.04921*%
%ADD132R,0.04921X0.04921*%
%ADD133C,0.05200*%
%ADD137R,0.05118X0.02756*%
D115*
X269768Y116929D02*
D03*
X279768D02*
D03*
X289768D02*
D03*
X299768D02*
D03*
X309768D02*
D03*
X319768D02*
D03*
X329768D02*
D03*
X339768D02*
D03*
X349768D02*
D03*
X359768D02*
D03*
X369768D02*
D03*
X379768D02*
D03*
X389768D02*
D03*
X399768D02*
D03*
X409768D02*
D03*
X419768D02*
D03*
X429768D02*
D03*
X439768D02*
D03*
X449768D02*
D03*
X459768D02*
D03*
X469768D02*
D03*
X479768D02*
D03*
X489768D02*
D03*
X499768D02*
D03*
X509768D02*
D03*
X264768Y124409D02*
D03*
X274768D02*
D03*
X284768D02*
D03*
X294768D02*
D03*
X304768D02*
D03*
X314768D02*
D03*
X324768D02*
D03*
X334768D02*
D03*
X344768D02*
D03*
X354768D02*
D03*
X364768D02*
D03*
X374768D02*
D03*
X384768D02*
D03*
X394768D02*
D03*
X404768D02*
D03*
X414768D02*
D03*
X424768D02*
D03*
X434768D02*
D03*
X444768D02*
D03*
X454768D02*
D03*
X464768D02*
D03*
X474768D02*
D03*
X484768D02*
D03*
X494768D02*
D03*
X504768D02*
D03*
X269768Y131890D02*
D03*
X279768D02*
D03*
X289768D02*
D03*
X299768D02*
D03*
X309768D02*
D03*
X319768D02*
D03*
X329768D02*
D03*
X339768D02*
D03*
X349768D02*
D03*
X359768D02*
D03*
X369768D02*
D03*
X379768D02*
D03*
X389768D02*
D03*
X399768D02*
D03*
X409768D02*
D03*
X419768D02*
D03*
X429768D02*
D03*
X439768D02*
D03*
X449768D02*
D03*
X459768D02*
D03*
X469768D02*
D03*
X479768D02*
D03*
X489768D02*
D03*
X499768D02*
D03*
X509768D02*
D03*
X264768Y139370D02*
D03*
X274768D02*
D03*
X284768D02*
D03*
X294768D02*
D03*
X304768D02*
D03*
X314768D02*
D03*
X324768D02*
D03*
X334768D02*
D03*
X344768D02*
D03*
X354768D02*
D03*
X364768D02*
D03*
X374768D02*
D03*
X384768D02*
D03*
X394768D02*
D03*
X404768D02*
D03*
X414768D02*
D03*
X424768D02*
D03*
X434768D02*
D03*
X444768D02*
D03*
X454768D02*
D03*
X464768D02*
D03*
X474768D02*
D03*
X484768D02*
D03*
X494768D02*
D03*
X504768D02*
D03*
D117*
X527922Y466351D02*
D03*
D118*
Y456351D02*
D03*
Y446351D02*
D03*
Y436351D02*
D03*
X537922Y466351D02*
D03*
Y456351D02*
D03*
Y446351D02*
D03*
Y436351D02*
D03*
D122*
X253000Y454000D02*
D03*
Y446126D02*
D03*
Y438252D02*
D03*
D125*
X233000Y366500D02*
D03*
X191500Y396500D02*
D03*
X147000Y329500D02*
D03*
X239500Y321500D02*
D03*
X229800Y263500D02*
D03*
X201000Y280000D02*
D03*
X162800Y263500D02*
D03*
X576000Y407000D02*
D03*
X233000Y381500D02*
D03*
X262500Y420500D02*
D03*
D126*
X223000Y366500D02*
D03*
X620500Y389500D02*
D03*
X181500Y396500D02*
D03*
X137000Y329500D02*
D03*
X407000Y416000D02*
D03*
X229500Y321500D02*
D03*
X219800Y263500D02*
D03*
X191000Y280000D02*
D03*
X152800Y263500D02*
D03*
X586000Y407000D02*
D03*
X223000Y381500D02*
D03*
X462500Y454000D02*
D03*
X620500Y361000D02*
D03*
X252500Y420500D02*
D03*
D127*
X620500Y379500D02*
D03*
X407000Y426000D02*
D03*
X462500Y444000D02*
D03*
X620500Y351000D02*
D03*
D128*
X173996Y469500D02*
D03*
D129*
X192500Y481311D02*
D03*
Y457689D02*
D03*
D130*
X233272Y124409D02*
D03*
X541264D02*
D03*
D131*
X127000Y374626D02*
D03*
Y382500D02*
D03*
D132*
Y366752D02*
D03*
D133*
X267764Y475654D02*
D03*
Y432346D02*
D03*
X246898Y475654D02*
D03*
Y432346D02*
D03*
D137*
X288776Y372260D02*
D03*
Y376000D02*
D03*
Y379740D02*
D03*
X298224D02*
D03*
Y372260D02*
D03*
M02*
