G04*
G04 #@! TF.GenerationSoftware,Altium Limited,Altium Designer,20.2.5 (213)*
G04*
G04 Layer_Color=8388736*
%FSLAX25Y25*%
%MOIN*%
G70*
G04*
G04 #@! TF.SameCoordinates,4C881970-A33B-4F38-ADD6-4E4DC0F1003D*
G04*
G04*
G04 #@! TF.FilePolarity,Negative*
G04*
G01*
G75*
%ADD19R,0.08477X0.05131*%
%ADD20R,0.06902X0.05721*%
%ADD21R,0.05131X0.08477*%
%ADD22R,0.05918X0.03556*%
G04:AMPARAMS|DCode=23|XSize=69.81mil|YSize=24.14mil|CornerRadius=6.02mil|HoleSize=0mil|Usage=FLASHONLY|Rotation=90.000|XOffset=0mil|YOffset=0mil|HoleType=Round|Shape=RoundedRectangle|*
%AMROUNDEDRECTD23*
21,1,0.06981,0.01211,0,0,90.0*
21,1,0.05778,0.02414,0,0,90.0*
1,1,0.01204,0.00605,0.02889*
1,1,0.01204,0.00605,-0.02889*
1,1,0.01204,-0.00605,-0.02889*
1,1,0.01204,-0.00605,0.02889*
%
%ADD23ROUNDEDRECTD23*%
%ADD24R,0.05756X0.05333*%
%ADD25R,0.05918X0.05328*%
%ADD26R,0.03543X0.05118*%
%ADD27R,0.04343X0.03950*%
%ADD28R,0.05524X0.06509*%
%ADD29R,0.05733X0.05136*%
%ADD30R,0.05136X0.05733*%
%ADD31R,0.05721X0.06902*%
%ADD32R,0.04737X0.06115*%
%ADD33R,0.06102X0.05118*%
G04:AMPARAMS|DCode=34|XSize=69.81mil|YSize=24.14mil|CornerRadius=6.02mil|HoleSize=0mil|Usage=FLASHONLY|Rotation=0.000|XOffset=0mil|YOffset=0mil|HoleType=Round|Shape=RoundedRectangle|*
%AMROUNDEDRECTD34*
21,1,0.06981,0.01211,0,0,0.0*
21,1,0.05778,0.02414,0,0,0.0*
1,1,0.01204,0.02889,-0.00605*
1,1,0.01204,-0.02889,-0.00605*
1,1,0.01204,-0.02889,0.00605*
1,1,0.01204,0.02889,0.00605*
%
%ADD34ROUNDEDRECTD34*%
%ADD35R,0.02769X0.01784*%
%ADD36R,0.01784X0.02769*%
%ADD37R,0.02200X0.04000*%
%ADD38R,0.05333X0.05756*%
%ADD39R,0.06902X0.06115*%
%ADD40R,0.02165X0.03150*%
%ADD41R,0.06115X0.04737*%
%ADD42R,0.05131X0.03556*%
%ADD43R,0.11824X0.04186*%
%ADD44R,0.13792X0.03556*%
%ADD45R,0.08005X0.05288*%
%ADD46R,0.03871X0.04934*%
%ADD47R,0.04461X0.04343*%
%ADD48R,0.05328X0.03162*%
%ADD49R,0.06312X0.04934*%
%ADD50R,0.04934X0.02965*%
%ADD51R,0.05534X0.05938*%
%ADD52R,0.06127X0.05727*%
%ADD53R,0.03567X0.05157*%
%ADD54R,0.05118X0.03543*%
%ADD55R,0.06115X0.04540*%
%ADD56R,0.05938X0.05534*%
%ADD57R,0.02362X0.02362*%
%ADD58R,0.05328X0.06509*%
%ADD59R,0.05727X0.06127*%
%ADD60R,0.02080X0.02375*%
%ADD61R,0.04068X0.03753*%
%ADD62R,0.01981X0.04343*%
%ADD63R,0.03162X0.05328*%
%ADD64R,0.02362X0.02362*%
%ADD65R,0.05131X0.05918*%
%ADD66R,0.06154X0.06548*%
%ADD67R,0.03753X0.01981*%
%ADD68R,0.06509X0.05524*%
%ADD69R,0.05709X0.03740*%
%ADD70R,0.10906X0.02559*%
%ADD71O,0.01784X0.06902*%
%ADD72O,0.06902X0.01784*%
%ADD73R,0.03300X0.06900*%
%ADD74R,0.25800X0.34400*%
%ADD75R,0.05682X0.05682*%
%ADD76C,0.05682*%
%ADD77C,0.04000*%
%ADD78C,0.06000*%
%ADD79C,0.06181*%
%ADD80R,0.06181X0.06181*%
%ADD81R,0.05682X0.05682*%
%ADD82R,0.06706X0.09068*%
%ADD83R,0.09068X0.06706*%
%ADD84C,0.05386*%
%ADD85C,0.13674*%
%ADD86C,0.05721*%
%ADD87R,0.05721X0.05721*%
%ADD88C,0.03556*%
D19*
X549500Y220500D02*
D03*
X573000Y471000D02*
D03*
Y464000D02*
D03*
X145000Y243000D02*
D03*
X160031Y329063D02*
D03*
X215000Y271500D02*
D03*
X159000Y248000D02*
D03*
X214307Y349341D02*
D03*
X239500Y264500D02*
D03*
X638000Y241500D02*
D03*
X186500Y232500D02*
D03*
X474500Y353500D02*
D03*
X475000Y362000D02*
D03*
X484500Y358000D02*
D03*
X645500Y118000D02*
D03*
X292500Y389500D02*
D03*
X155500Y375500D02*
D03*
X292500Y363500D02*
D03*
X615500Y145500D02*
D03*
X214000Y142500D02*
D03*
X637000Y410500D02*
D03*
X770832Y170263D02*
D03*
X387000Y214000D02*
D03*
X448000Y232500D02*
D03*
X491500Y233500D02*
D03*
X403000Y232500D02*
D03*
X337500Y209000D02*
D03*
X1044500Y169000D02*
D03*
X474500Y345000D02*
D03*
X484500Y349000D02*
D03*
X449000Y379500D02*
D03*
X255500Y387000D02*
D03*
D20*
X545500Y228000D02*
D03*
Y236071D02*
D03*
X338000Y235035D02*
D03*
Y226965D02*
D03*
X348000Y235035D02*
D03*
Y226965D02*
D03*
X358500Y235035D02*
D03*
Y226965D02*
D03*
X190500Y190323D02*
D03*
Y198394D02*
D03*
X344500Y202035D02*
D03*
Y193965D02*
D03*
X631000Y161035D02*
D03*
Y152965D02*
D03*
X273500Y282465D02*
D03*
Y290535D02*
D03*
X302121Y291617D02*
D03*
Y283546D02*
D03*
X605000Y309646D02*
D03*
Y301575D02*
D03*
X149500Y121535D02*
D03*
Y113465D02*
D03*
X605500Y280035D02*
D03*
Y271965D02*
D03*
Y250894D02*
D03*
Y242823D02*
D03*
X144500Y174035D02*
D03*
Y165965D02*
D03*
X630500Y111465D02*
D03*
Y119535D02*
D03*
X533500Y195894D02*
D03*
Y187823D02*
D03*
X534500Y236071D02*
D03*
Y228000D02*
D03*
X523500Y236071D02*
D03*
Y228000D02*
D03*
X449500Y452500D02*
D03*
Y444429D02*
D03*
D21*
X147000Y215500D02*
D03*
X560500Y429500D02*
D03*
X267000Y150500D02*
D03*
X1307000Y276500D02*
D03*
X1275000D02*
D03*
X1241000D02*
D03*
X1207000D02*
D03*
X1173000D02*
D03*
X1139000D02*
D03*
X1078000D02*
D03*
X1017000D02*
D03*
X1307000Y248000D02*
D03*
X1278000D02*
D03*
X1249000D02*
D03*
X1220000D02*
D03*
X1191000D02*
D03*
X1162000D02*
D03*
X1133000D02*
D03*
X1104000D02*
D03*
X1038000D02*
D03*
X1005000D02*
D03*
X972000D02*
D03*
X938000D02*
D03*
X904000D02*
D03*
X870000D02*
D03*
X836000D02*
D03*
X802000D02*
D03*
X768000D02*
D03*
X952000Y222000D02*
D03*
X923000D02*
D03*
X896000D02*
D03*
X867000D02*
D03*
X839000D02*
D03*
X811000D02*
D03*
X783000D02*
D03*
X984000Y193500D02*
D03*
X961000D02*
D03*
X932000D02*
D03*
X903000D02*
D03*
X874000D02*
D03*
X1020000Y167500D02*
D03*
X997000D02*
D03*
X974000D02*
D03*
X921000D02*
D03*
X893000D02*
D03*
X437000Y414500D02*
D03*
X1070000Y139000D02*
D03*
X1036000D02*
D03*
X1002000D02*
D03*
X968000D02*
D03*
X934000D02*
D03*
X883600Y136884D02*
D03*
X241500Y150500D02*
D03*
D22*
X300724Y380240D02*
D03*
Y372760D02*
D03*
X291276D02*
D03*
Y376500D02*
D03*
Y380240D02*
D03*
D23*
X604043Y152701D02*
D03*
X606602D02*
D03*
X609161D02*
D03*
X611720D02*
D03*
X614280D02*
D03*
X616839D02*
D03*
X619398D02*
D03*
X621957D02*
D03*
Y175299D02*
D03*
X619398D02*
D03*
X616839D02*
D03*
X614280D02*
D03*
X611720D02*
D03*
X609161D02*
D03*
X606602D02*
D03*
X604043D02*
D03*
X158543Y135299D02*
D03*
X161102D02*
D03*
X163661D02*
D03*
X166220D02*
D03*
X168780D02*
D03*
X171339D02*
D03*
X173898D02*
D03*
X176457D02*
D03*
Y112701D02*
D03*
X173898D02*
D03*
X171339D02*
D03*
X168780D02*
D03*
X166220D02*
D03*
X163661D02*
D03*
X161102D02*
D03*
X158543D02*
D03*
X604043Y133299D02*
D03*
X606602D02*
D03*
X609161D02*
D03*
X611720D02*
D03*
X614280D02*
D03*
X616839D02*
D03*
X619398D02*
D03*
X621957D02*
D03*
Y110701D02*
D03*
X619398D02*
D03*
X616839D02*
D03*
X614280D02*
D03*
X611720D02*
D03*
X609161D02*
D03*
X606602D02*
D03*
X604043D02*
D03*
X160043Y168201D02*
D03*
X162602D02*
D03*
X165161D02*
D03*
X167720D02*
D03*
X170280D02*
D03*
X172839D02*
D03*
X175398D02*
D03*
X177957D02*
D03*
Y190799D02*
D03*
X175398D02*
D03*
X172839D02*
D03*
X170280D02*
D03*
X167720D02*
D03*
X165161D02*
D03*
X162602D02*
D03*
X160043D02*
D03*
D24*
X328000Y456158D02*
D03*
Y463842D02*
D03*
X381000Y307658D02*
D03*
Y315342D02*
D03*
X562446Y348257D02*
D03*
Y355940D02*
D03*
X638471Y281110D02*
D03*
Y288794D02*
D03*
X638500Y252158D02*
D03*
Y259842D02*
D03*
D25*
X328072Y435483D02*
D03*
Y444342D02*
D03*
D26*
X311634Y398000D02*
D03*
X303366D02*
D03*
X371634Y375000D02*
D03*
X363366D02*
D03*
X205134Y312500D02*
D03*
X196866D02*
D03*
X353866Y332000D02*
D03*
X362134D02*
D03*
X191134Y364000D02*
D03*
X182866D02*
D03*
X510634Y448000D02*
D03*
X502366D02*
D03*
X510634Y438500D02*
D03*
X502366D02*
D03*
X198366Y256000D02*
D03*
X206634D02*
D03*
X540732Y403000D02*
D03*
X549000D02*
D03*
X163634Y384000D02*
D03*
X155366D02*
D03*
D27*
X224000Y440520D02*
D03*
Y448000D02*
D03*
X214157Y444260D02*
D03*
D28*
X416126Y403500D02*
D03*
X424000D02*
D03*
X406500D02*
D03*
X398626D02*
D03*
X215063Y431000D02*
D03*
X222937D02*
D03*
X269437Y371000D02*
D03*
X261563D02*
D03*
D29*
X372000Y332153D02*
D03*
Y325847D02*
D03*
X597500Y175347D02*
D03*
Y181653D02*
D03*
X273621Y299571D02*
D03*
Y305876D02*
D03*
X148000Y359347D02*
D03*
Y365653D02*
D03*
X158000Y144847D02*
D03*
Y151153D02*
D03*
X183000Y319653D02*
D03*
Y313347D02*
D03*
X217000Y258195D02*
D03*
Y264500D02*
D03*
X183500Y328847D02*
D03*
Y335153D02*
D03*
X164300Y232153D02*
D03*
Y225847D02*
D03*
X151500Y184347D02*
D03*
Y190653D02*
D03*
X280000Y387653D02*
D03*
Y381347D02*
D03*
Y364847D02*
D03*
Y371153D02*
D03*
X474500Y446776D02*
D03*
Y453081D02*
D03*
D30*
X487153Y315000D02*
D03*
X480847D02*
D03*
X566153Y219500D02*
D03*
X559847D02*
D03*
X515153D02*
D03*
X508847D02*
D03*
X472653Y219000D02*
D03*
X466347D02*
D03*
X427653Y219500D02*
D03*
X421347D02*
D03*
X377653D02*
D03*
X371347D02*
D03*
X681153Y332500D02*
D03*
X674847D02*
D03*
X314347Y333000D02*
D03*
X320653D02*
D03*
X528000Y423000D02*
D03*
X534305D02*
D03*
X529847Y315000D02*
D03*
X536153D02*
D03*
X598712Y134000D02*
D03*
X592406D02*
D03*
X421153Y303000D02*
D03*
X414847D02*
D03*
X219300Y219000D02*
D03*
X225605D02*
D03*
X269079Y219500D02*
D03*
X275385D02*
D03*
X320347Y220000D02*
D03*
X326653D02*
D03*
X197847Y373500D02*
D03*
X204153D02*
D03*
D31*
X495964Y315000D02*
D03*
X504036D02*
D03*
X545465Y315000D02*
D03*
X553535D02*
D03*
X457035Y219500D02*
D03*
X448965D02*
D03*
X411500D02*
D03*
X403429D02*
D03*
X302965Y220000D02*
D03*
X311035D02*
D03*
X251535D02*
D03*
X243465D02*
D03*
X500035Y219500D02*
D03*
X491965D02*
D03*
D32*
X519043Y315000D02*
D03*
X511957D02*
D03*
X389543Y382500D02*
D03*
X382457D02*
D03*
X515946Y357396D02*
D03*
X508859D02*
D03*
Y366396D02*
D03*
X515946D02*
D03*
X509500Y469000D02*
D03*
X502413D02*
D03*
X561957Y315000D02*
D03*
X569043D02*
D03*
X515946Y400396D02*
D03*
X508859D02*
D03*
X515946Y390896D02*
D03*
X508859D02*
D03*
X515946Y381396D02*
D03*
X508859D02*
D03*
X501733D02*
D03*
X494647D02*
D03*
Y390896D02*
D03*
X501733D02*
D03*
X509500Y458000D02*
D03*
X502413D02*
D03*
X436543Y287000D02*
D03*
X429457D02*
D03*
X196957Y337000D02*
D03*
X204043D02*
D03*
X494647Y400396D02*
D03*
X501733D02*
D03*
X680543Y406000D02*
D03*
X673457D02*
D03*
D33*
X563358Y286951D02*
D03*
X532058D02*
D03*
X563358Y304668D02*
D03*
X532058D02*
D03*
X515650Y287142D02*
D03*
X484350D02*
D03*
X515650Y304858D02*
D03*
X484350D02*
D03*
D34*
X515799Y211457D02*
D03*
Y208898D02*
D03*
Y206339D02*
D03*
Y203780D02*
D03*
Y201220D02*
D03*
Y198661D02*
D03*
Y196102D02*
D03*
Y193543D02*
D03*
X493201D02*
D03*
Y196102D02*
D03*
Y198661D02*
D03*
Y201220D02*
D03*
Y203780D02*
D03*
Y206339D02*
D03*
Y208898D02*
D03*
Y211457D02*
D03*
X472799D02*
D03*
Y208898D02*
D03*
Y206339D02*
D03*
Y203780D02*
D03*
Y201220D02*
D03*
Y198661D02*
D03*
Y196102D02*
D03*
Y193543D02*
D03*
X450201D02*
D03*
Y196102D02*
D03*
Y198661D02*
D03*
Y201220D02*
D03*
Y203780D02*
D03*
Y206339D02*
D03*
Y208898D02*
D03*
Y211457D02*
D03*
X427299D02*
D03*
Y208898D02*
D03*
Y206339D02*
D03*
Y203780D02*
D03*
Y201220D02*
D03*
Y198661D02*
D03*
Y196102D02*
D03*
Y193543D02*
D03*
X404701D02*
D03*
Y196102D02*
D03*
Y198661D02*
D03*
Y201220D02*
D03*
Y203780D02*
D03*
Y206339D02*
D03*
Y208898D02*
D03*
Y211457D02*
D03*
X377799D02*
D03*
Y208898D02*
D03*
Y206339D02*
D03*
Y203780D02*
D03*
Y201220D02*
D03*
Y198661D02*
D03*
Y196102D02*
D03*
Y193543D02*
D03*
X355201D02*
D03*
Y196102D02*
D03*
Y198661D02*
D03*
Y201220D02*
D03*
Y203780D02*
D03*
Y206339D02*
D03*
Y208898D02*
D03*
Y211457D02*
D03*
X202402D02*
D03*
Y208898D02*
D03*
Y206339D02*
D03*
Y203780D02*
D03*
Y201220D02*
D03*
Y198661D02*
D03*
Y196102D02*
D03*
Y193543D02*
D03*
X225000D02*
D03*
Y196102D02*
D03*
Y198661D02*
D03*
Y201220D02*
D03*
Y203780D02*
D03*
Y206339D02*
D03*
Y208898D02*
D03*
Y211457D02*
D03*
X304201D02*
D03*
Y208898D02*
D03*
Y206339D02*
D03*
Y203780D02*
D03*
Y201220D02*
D03*
Y198661D02*
D03*
Y196102D02*
D03*
Y193543D02*
D03*
X326799D02*
D03*
Y196102D02*
D03*
Y198661D02*
D03*
Y201220D02*
D03*
Y203780D02*
D03*
Y206339D02*
D03*
Y208898D02*
D03*
Y211457D02*
D03*
X273079D02*
D03*
Y208898D02*
D03*
Y206339D02*
D03*
Y203780D02*
D03*
Y201220D02*
D03*
Y198661D02*
D03*
Y196102D02*
D03*
Y193543D02*
D03*
X250480D02*
D03*
Y196102D02*
D03*
Y198661D02*
D03*
Y201220D02*
D03*
Y203780D02*
D03*
Y206339D02*
D03*
Y208898D02*
D03*
Y211457D02*
D03*
X566598D02*
D03*
Y208898D02*
D03*
Y206339D02*
D03*
Y203780D02*
D03*
Y201220D02*
D03*
Y198661D02*
D03*
Y196102D02*
D03*
Y193543D02*
D03*
X544000D02*
D03*
Y196102D02*
D03*
Y198661D02*
D03*
Y201220D02*
D03*
Y203780D02*
D03*
Y206339D02*
D03*
Y208898D02*
D03*
Y211457D02*
D03*
D35*
X193000Y115425D02*
D03*
Y118575D02*
D03*
Y121724D02*
D03*
Y124874D02*
D03*
X196150Y126449D02*
D03*
Y123299D02*
D03*
Y120150D02*
D03*
Y117000D02*
D03*
Y113850D02*
D03*
X193350Y157075D02*
D03*
Y160224D02*
D03*
Y163374D02*
D03*
Y166524D02*
D03*
X196500Y168098D02*
D03*
Y164949D02*
D03*
Y161799D02*
D03*
Y158650D02*
D03*
Y155500D02*
D03*
X587000Y162224D02*
D03*
Y159075D02*
D03*
Y155925D02*
D03*
Y152776D02*
D03*
X583850Y151201D02*
D03*
Y154350D02*
D03*
Y157500D02*
D03*
Y160650D02*
D03*
Y163799D02*
D03*
X555350Y447276D02*
D03*
Y450425D02*
D03*
Y453575D02*
D03*
Y456724D02*
D03*
X558500Y458299D02*
D03*
Y455150D02*
D03*
Y452000D02*
D03*
Y448850D02*
D03*
Y445701D02*
D03*
X587000Y124874D02*
D03*
Y121724D02*
D03*
Y118575D02*
D03*
Y115425D02*
D03*
X583850Y113850D02*
D03*
Y117000D02*
D03*
Y120150D02*
D03*
Y123299D02*
D03*
Y126449D02*
D03*
D36*
X257224Y162850D02*
D03*
X254075D02*
D03*
X250925D02*
D03*
X247776D02*
D03*
X246201Y166000D02*
D03*
X249350D02*
D03*
X252500D02*
D03*
X255650D02*
D03*
X258799D02*
D03*
X274343Y165959D02*
D03*
X277492D02*
D03*
X280642D02*
D03*
X283792D02*
D03*
X285366Y162809D02*
D03*
X282217D02*
D03*
X279067D02*
D03*
X275918D02*
D03*
X272768D02*
D03*
X316378D02*
D03*
X319528D02*
D03*
X322677D02*
D03*
X325827D02*
D03*
X328977D02*
D03*
X327402Y165959D02*
D03*
X324252D02*
D03*
X321103D02*
D03*
X317953D02*
D03*
X359988Y162809D02*
D03*
X363138D02*
D03*
X366288D02*
D03*
X369437D02*
D03*
X372587D02*
D03*
X371012Y165959D02*
D03*
X367862D02*
D03*
X364713D02*
D03*
X361563D02*
D03*
X405173D02*
D03*
X408323D02*
D03*
X411473D02*
D03*
X414622D02*
D03*
X416197Y162809D02*
D03*
X413047D02*
D03*
X409898D02*
D03*
X406748D02*
D03*
X403599D02*
D03*
X448784Y165959D02*
D03*
X451933D02*
D03*
X455083D02*
D03*
X458232D02*
D03*
X459807Y162809D02*
D03*
X456658D02*
D03*
X453508D02*
D03*
X450358D02*
D03*
X447209D02*
D03*
X492394Y165959D02*
D03*
X495544D02*
D03*
X498693D02*
D03*
X501843D02*
D03*
X503418Y162809D02*
D03*
X500268D02*
D03*
X497118D02*
D03*
X493969D02*
D03*
X490819D02*
D03*
X535051Y163000D02*
D03*
X538201D02*
D03*
X541350D02*
D03*
X544500D02*
D03*
X547650D02*
D03*
X546075Y166150D02*
D03*
X542925D02*
D03*
X539776D02*
D03*
X536626D02*
D03*
D37*
X621471Y250110D02*
D03*
X617731Y259110D02*
D03*
X625211D02*
D03*
X621471Y279860D02*
D03*
X617731Y288860D02*
D03*
X625211D02*
D03*
Y318610D02*
D03*
X617731D02*
D03*
X621471Y309610D02*
D03*
D38*
X604812Y319110D02*
D03*
X597129D02*
D03*
X597629Y289110D02*
D03*
X605312D02*
D03*
X597629Y259610D02*
D03*
X605312D02*
D03*
D39*
X638500Y311161D02*
D03*
Y318839D02*
D03*
D40*
X662500Y294299D02*
D03*
Y288000D02*
D03*
X658957D02*
D03*
Y294299D02*
D03*
D41*
X606500Y396543D02*
D03*
Y389457D02*
D03*
X302000Y316543D02*
D03*
Y309457D02*
D03*
X500946Y357439D02*
D03*
Y350352D02*
D03*
X606500Y372500D02*
D03*
Y379587D02*
D03*
X500946Y366352D02*
D03*
Y373439D02*
D03*
X229000Y291957D02*
D03*
Y299043D02*
D03*
X190000Y298937D02*
D03*
Y291850D02*
D03*
D42*
X682000Y347169D02*
D03*
Y351500D02*
D03*
Y355831D02*
D03*
Y360161D02*
D03*
Y364492D02*
D03*
Y368823D02*
D03*
Y373154D02*
D03*
Y377484D02*
D03*
D43*
X680032Y342917D02*
D03*
D44*
X637591Y342602D02*
D03*
Y393626D02*
D03*
D45*
X681941Y392760D02*
D03*
D46*
X632630Y367740D02*
D03*
D47*
X632925Y384531D02*
D03*
D48*
X311200Y323963D02*
D03*
Y320223D02*
D03*
Y316483D02*
D03*
X321042D02*
D03*
Y323963D02*
D03*
D49*
X302121Y325483D02*
D03*
Y332963D02*
D03*
X203500Y291260D02*
D03*
Y298740D02*
D03*
D50*
X283003Y304963D02*
D03*
Y301223D02*
D03*
Y297483D02*
D03*
X293239D02*
D03*
Y301223D02*
D03*
Y304963D02*
D03*
D51*
X284974Y314723D02*
D03*
X292268D02*
D03*
X311478Y409412D02*
D03*
X304185D02*
D03*
X311218Y420912D02*
D03*
X303925D02*
D03*
X230647Y461500D02*
D03*
X223353D02*
D03*
X230793Y473500D02*
D03*
X223500D02*
D03*
D52*
X261000Y305919D02*
D03*
Y298630D02*
D03*
X393000Y308210D02*
D03*
Y315500D02*
D03*
X187300Y268210D02*
D03*
Y275500D02*
D03*
D53*
X302389Y301000D02*
D03*
X308500D02*
D03*
D54*
X229500Y342366D02*
D03*
Y350634D02*
D03*
X165000Y299429D02*
D03*
Y291161D02*
D03*
X421000Y286866D02*
D03*
Y295134D02*
D03*
X444500Y293232D02*
D03*
Y301500D02*
D03*
X374500Y383366D02*
D03*
Y391634D02*
D03*
X172000Y375366D02*
D03*
Y383634D02*
D03*
D55*
X217000Y292449D02*
D03*
Y298551D02*
D03*
X172500Y313898D02*
D03*
Y320000D02*
D03*
D56*
X269000Y388647D02*
D03*
Y381353D02*
D03*
D57*
X366220Y343250D02*
D03*
X369780D02*
D03*
X398720Y376000D02*
D03*
X402280D02*
D03*
X362720Y366750D02*
D03*
X366280D02*
D03*
X430440Y311000D02*
D03*
X434000D02*
D03*
X430440Y318000D02*
D03*
X434000D02*
D03*
X405780Y317500D02*
D03*
X402220D02*
D03*
D58*
X389445Y391500D02*
D03*
X382555D02*
D03*
X436445Y299500D02*
D03*
X429555D02*
D03*
D59*
X284572Y420912D02*
D03*
X291861D02*
D03*
D60*
X190000Y447500D02*
D03*
X186555D02*
D03*
D61*
X232000Y448890D02*
D03*
Y440110D02*
D03*
D62*
X138500Y360638D02*
D03*
Y365362D02*
D03*
Y377224D02*
D03*
Y372500D02*
D03*
Y384276D02*
D03*
Y389000D02*
D03*
D63*
X190240Y383421D02*
D03*
X186500D02*
D03*
X182760D02*
D03*
Y373579D02*
D03*
X190240D02*
D03*
X206740Y265579D02*
D03*
X199260D02*
D03*
Y275421D02*
D03*
X203000D02*
D03*
X206740D02*
D03*
X154540Y224079D02*
D03*
X147060D02*
D03*
Y233921D02*
D03*
X150800D02*
D03*
X154540D02*
D03*
D64*
X445500Y360720D02*
D03*
Y364280D02*
D03*
X381500Y336720D02*
D03*
Y340280D02*
D03*
X386500Y351720D02*
D03*
Y355280D02*
D03*
X380000Y352030D02*
D03*
Y348470D02*
D03*
X387000Y337000D02*
D03*
Y340560D02*
D03*
X212500Y326720D02*
D03*
Y330280D02*
D03*
X379500Y366720D02*
D03*
Y370280D02*
D03*
X386000Y366720D02*
D03*
Y370280D02*
D03*
D65*
X369543Y350222D02*
D03*
Y359278D02*
D03*
X362457D02*
D03*
Y350222D02*
D03*
D66*
X200000Y323500D02*
D03*
D67*
X194094Y326453D02*
D03*
Y324484D02*
D03*
Y322516D02*
D03*
Y320547D02*
D03*
X205906D02*
D03*
Y322516D02*
D03*
Y324484D02*
D03*
Y326453D02*
D03*
D68*
X175800Y267563D02*
D03*
Y275437D02*
D03*
X172500Y329063D02*
D03*
Y336937D02*
D03*
X162000Y311626D02*
D03*
Y319500D02*
D03*
D69*
X177500Y291654D02*
D03*
Y299331D02*
D03*
D70*
X545500Y360000D02*
D03*
Y365000D02*
D03*
Y370000D02*
D03*
Y375000D02*
D03*
Y380000D02*
D03*
X529634Y360000D02*
D03*
Y365000D02*
D03*
Y370000D02*
D03*
Y375000D02*
D03*
Y380000D02*
D03*
D71*
X401236Y368752D02*
D03*
X403205D02*
D03*
X405173D02*
D03*
X407142D02*
D03*
X409110D02*
D03*
X411079D02*
D03*
X413047D02*
D03*
X415016D02*
D03*
X416984D02*
D03*
X418953D02*
D03*
X420921D02*
D03*
X422890D02*
D03*
X424858D02*
D03*
X426827D02*
D03*
X428795D02*
D03*
X430764D02*
D03*
Y325248D02*
D03*
X428795D02*
D03*
X426827D02*
D03*
X424858D02*
D03*
X422890D02*
D03*
X420921D02*
D03*
X418953D02*
D03*
X416984D02*
D03*
X415016D02*
D03*
X413047D02*
D03*
X411079D02*
D03*
X409110D02*
D03*
X407142D02*
D03*
X405173D02*
D03*
X403205D02*
D03*
X401236D02*
D03*
D72*
X437752Y361764D02*
D03*
Y359795D02*
D03*
Y357827D02*
D03*
Y355858D02*
D03*
Y353890D02*
D03*
Y351921D02*
D03*
Y349953D02*
D03*
Y347984D02*
D03*
Y346016D02*
D03*
Y344047D02*
D03*
Y342079D02*
D03*
Y340110D02*
D03*
Y338142D02*
D03*
Y336173D02*
D03*
Y334205D02*
D03*
Y332236D02*
D03*
X394248D02*
D03*
Y334205D02*
D03*
Y336173D02*
D03*
Y338142D02*
D03*
Y340110D02*
D03*
Y342079D02*
D03*
Y344047D02*
D03*
Y346016D02*
D03*
Y347984D02*
D03*
Y349953D02*
D03*
Y351921D02*
D03*
Y353890D02*
D03*
Y355858D02*
D03*
Y357827D02*
D03*
Y359795D02*
D03*
Y361764D02*
D03*
D73*
X288072Y435562D02*
D03*
X298072D02*
D03*
X308072D02*
D03*
D74*
X298072Y460412D02*
D03*
D75*
X197000Y242000D02*
D03*
X262500Y420500D02*
D03*
X416500Y416500D02*
D03*
X577000Y407000D02*
D03*
X233000Y366500D02*
D03*
X191500Y396500D02*
D03*
X147000Y328500D02*
D03*
X239500Y322500D02*
D03*
X239750Y275000D02*
D03*
X146500Y276500D02*
D03*
X233000Y381500D02*
D03*
D76*
X187000Y242000D02*
D03*
X252500Y420500D02*
D03*
X406500Y416500D02*
D03*
X587000Y407000D02*
D03*
X620500Y361000D02*
D03*
X223000Y366500D02*
D03*
X620500Y389500D02*
D03*
X181500Y396500D02*
D03*
X137000Y328500D02*
D03*
X229500Y322500D02*
D03*
X229750Y275000D02*
D03*
X136500Y276500D02*
D03*
X223000Y381500D02*
D03*
X462500Y454000D02*
D03*
D77*
X253000Y438252D02*
D03*
Y446126D02*
D03*
Y454000D02*
D03*
D78*
X246898Y432346D02*
D03*
Y475654D02*
D03*
X267764Y432346D02*
D03*
Y475654D02*
D03*
D79*
X537922Y436351D02*
D03*
Y446351D02*
D03*
Y456351D02*
D03*
Y466351D02*
D03*
X527922Y436351D02*
D03*
Y446351D02*
D03*
Y456351D02*
D03*
D80*
Y466351D02*
D03*
D81*
X620500Y351000D02*
D03*
Y379500D02*
D03*
X462500Y444000D02*
D03*
D82*
X173996Y469500D02*
D03*
D83*
X192500Y481311D02*
D03*
Y457689D02*
D03*
D84*
X269768Y116929D02*
D03*
X279768D02*
D03*
X289768D02*
D03*
X299768D02*
D03*
X309768D02*
D03*
X319768D02*
D03*
X329768D02*
D03*
X339768D02*
D03*
X349768D02*
D03*
X359768D02*
D03*
X369768D02*
D03*
X379768D02*
D03*
X389768D02*
D03*
X399768D02*
D03*
X409768D02*
D03*
X419768D02*
D03*
X429768D02*
D03*
X439768D02*
D03*
X449768D02*
D03*
X459768D02*
D03*
X469768D02*
D03*
X479768D02*
D03*
X489768D02*
D03*
X499768D02*
D03*
X509768D02*
D03*
X264768Y124409D02*
D03*
X274768D02*
D03*
X284768D02*
D03*
X294768D02*
D03*
X304768D02*
D03*
X314768D02*
D03*
X324768D02*
D03*
X334768D02*
D03*
X344768D02*
D03*
X354768D02*
D03*
X364768D02*
D03*
X374768D02*
D03*
X384768D02*
D03*
X394768D02*
D03*
X404768D02*
D03*
X414768D02*
D03*
X424768D02*
D03*
X434768D02*
D03*
X444768D02*
D03*
X454768D02*
D03*
X464768D02*
D03*
X474768D02*
D03*
X484768D02*
D03*
X494768D02*
D03*
X504768D02*
D03*
X269768Y131890D02*
D03*
X279768D02*
D03*
X289768D02*
D03*
X299768D02*
D03*
X309768D02*
D03*
X319768D02*
D03*
X329768D02*
D03*
X339768D02*
D03*
X349768D02*
D03*
X359768D02*
D03*
X369768D02*
D03*
X379768D02*
D03*
X389768D02*
D03*
X399768D02*
D03*
X409768D02*
D03*
X419768D02*
D03*
X429768D02*
D03*
X439768D02*
D03*
X449768D02*
D03*
X459768D02*
D03*
X469768D02*
D03*
X479768D02*
D03*
X489768D02*
D03*
X499768D02*
D03*
X509768D02*
D03*
X264768Y139370D02*
D03*
X274768D02*
D03*
X284768D02*
D03*
X294768D02*
D03*
X304768D02*
D03*
X314768D02*
D03*
X324768D02*
D03*
X334768D02*
D03*
X344768D02*
D03*
X354768D02*
D03*
X364768D02*
D03*
X374768D02*
D03*
X384768D02*
D03*
X394768D02*
D03*
X404768D02*
D03*
X414768D02*
D03*
X424768D02*
D03*
X434768D02*
D03*
X444768D02*
D03*
X454768D02*
D03*
X464768D02*
D03*
X474768D02*
D03*
X484768D02*
D03*
X494768D02*
D03*
X504768D02*
D03*
D85*
X233272Y124409D02*
D03*
X541264D02*
D03*
D86*
X127000Y374626D02*
D03*
Y382500D02*
D03*
D87*
Y366752D02*
D03*
D88*
X540000Y221000D02*
D03*
X559810Y234053D02*
D03*
X553000Y215500D02*
D03*
X605500Y141000D02*
D03*
X622074Y138985D02*
D03*
X619696Y159000D02*
D03*
X243000Y157000D02*
D03*
X255000Y189000D02*
D03*
X631500Y105500D02*
D03*
X545500Y189500D02*
D03*
X357500Y185500D02*
D03*
X296500Y185000D02*
D03*
X314500Y229000D02*
D03*
X296688Y220021D02*
D03*
X212000Y163000D02*
D03*
X184500Y170000D02*
D03*
X541243Y189678D02*
D03*
X488500Y187000D02*
D03*
X444500Y188500D02*
D03*
X400000Y189122D02*
D03*
X252500Y306000D02*
D03*
X251500Y296500D02*
D03*
X244637Y179637D02*
D03*
X281068Y155569D02*
D03*
X351979Y183495D02*
D03*
X568000Y155500D02*
D03*
X543500Y176500D02*
D03*
X498500Y177500D02*
D03*
X454811Y147500D02*
D03*
X411500Y174500D02*
D03*
X368000Y152500D02*
D03*
X152000Y306500D02*
D03*
X175579Y304998D02*
D03*
X185500Y305000D02*
D03*
X193952Y305567D02*
D03*
X222000Y328500D02*
D03*
X214000Y336500D02*
D03*
X163000Y341000D02*
D03*
X186500Y344500D02*
D03*
X199000D02*
D03*
X238500Y353000D02*
D03*
X208500Y380500D02*
D03*
X212500Y376500D02*
D03*
X163000Y372000D02*
D03*
X159206Y361546D02*
D03*
X177000Y441500D02*
D03*
X180000Y444500D02*
D03*
X206510Y433515D02*
D03*
X209500Y436500D02*
D03*
X216500Y471500D02*
D03*
X238749Y457797D02*
D03*
X238500Y453000D02*
D03*
X226500Y483000D02*
D03*
X234500D02*
D03*
X341500Y440000D02*
D03*
X341124Y461131D02*
D03*
X486500Y464500D02*
D03*
X482000D02*
D03*
X570500Y430000D02*
D03*
X437000Y457000D02*
D03*
X496500Y463000D02*
D03*
X513500Y482500D02*
D03*
X534500Y483000D02*
D03*
X522500Y309000D02*
D03*
X578000Y314517D02*
D03*
X578500Y307500D02*
D03*
X412992Y291140D02*
D03*
X447000Y284500D02*
D03*
X453500Y288500D02*
D03*
X472000Y280500D02*
D03*
X527500Y280000D02*
D03*
X546500Y280500D02*
D03*
X573000Y284000D02*
D03*
X619500Y235000D02*
D03*
X617555Y270434D02*
D03*
X619000Y300000D02*
D03*
X623000Y237500D02*
D03*
X624500Y270000D02*
D03*
X625500Y300000D02*
D03*
X678500Y323500D02*
D03*
X655863Y337278D02*
D03*
X656500Y333000D02*
D03*
X658139Y329435D02*
D03*
X655500Y280000D02*
D03*
X610000Y346000D02*
D03*
X651872Y338088D02*
D03*
X667500Y399500D02*
D03*
X678000Y420500D02*
D03*
X626500Y406000D02*
D03*
X600500Y409000D02*
D03*
X613103Y407127D02*
D03*
X600611Y364335D02*
D03*
X574500Y351500D02*
D03*
X523672Y403737D02*
D03*
X485000Y398500D02*
D03*
Y388000D02*
D03*
X488000Y385000D02*
D03*
Y378000D02*
D03*
X492184Y352909D02*
D03*
X454500Y368000D02*
D03*
X454149Y362667D02*
D03*
X421000Y393500D02*
D03*
X400500D02*
D03*
X403000Y384500D02*
D03*
X400500Y387000D02*
D03*
X384446Y375565D02*
D03*
X378000Y375000D02*
D03*
X371000Y370000D02*
D03*
X351959Y340511D02*
D03*
X380000Y327500D02*
D03*
X382500Y331500D02*
D03*
X390500Y299500D02*
D03*
X366525Y317491D02*
D03*
X327078Y342059D02*
D03*
X308589Y341567D02*
D03*
X294500Y330500D02*
D03*
X289500Y326000D02*
D03*
X294000D02*
D03*
X317823Y307390D02*
D03*
X293500Y281500D02*
D03*
X281000Y281000D02*
D03*
X556500Y144000D02*
D03*
X632500Y142000D02*
D03*
X591000D02*
D03*
X596500Y142500D02*
D03*
X604825Y118624D02*
D03*
X639000Y109500D02*
D03*
X564408Y230577D02*
D03*
X557000Y228000D02*
D03*
X560000Y238500D02*
D03*
X510000Y239500D02*
D03*
X498000Y230500D02*
D03*
X513000Y231000D02*
D03*
X507000D02*
D03*
X467462Y231462D02*
D03*
X455500Y229000D02*
D03*
X464229Y228977D02*
D03*
X423000Y235000D02*
D03*
X418500Y231500D02*
D03*
X414000Y228000D02*
D03*
X374000Y232500D02*
D03*
X370000Y230000D02*
D03*
X366627Y233351D02*
D03*
X330000Y237000D02*
D03*
X330500Y233000D02*
D03*
X322341Y228609D02*
D03*
X328500Y228500D02*
D03*
X258103Y222007D02*
D03*
X282295Y222048D02*
D03*
X262000Y222000D02*
D03*
X205000Y284000D02*
D03*
X225000Y268500D02*
D03*
Y263500D02*
D03*
X185500Y258000D02*
D03*
X177773Y257859D02*
D03*
X154000Y241000D02*
D03*
X162500D02*
D03*
X162000Y217000D02*
D03*
X232000Y216500D02*
D03*
X143000Y180000D02*
D03*
X208500Y188500D02*
D03*
X198000D02*
D03*
X143500Y195000D02*
D03*
X152500Y172000D02*
D03*
X204117Y116696D02*
D03*
X183000Y111000D02*
D03*
X165000Y147500D02*
D03*
X138500Y119000D02*
D03*
X213699Y219267D02*
D03*
X362000Y339000D02*
D03*
X375000Y352000D02*
D03*
X371000Y366000D02*
D03*
X356500Y370500D02*
D03*
Y364500D02*
D03*
Y351500D02*
D03*
Y345000D02*
D03*
X321000Y432500D02*
D03*
X327000Y426000D02*
D03*
X320000Y425500D02*
D03*
X327000Y419000D02*
D03*
X320000D02*
D03*
X327500Y413000D02*
D03*
X320000D02*
D03*
X327500Y406000D02*
D03*
X320000D02*
D03*
X223500Y342500D02*
D03*
X229500Y338000D02*
D03*
X303500Y392000D02*
D03*
X298000Y398000D02*
D03*
X336000Y216000D02*
D03*
X353500Y387500D02*
D03*
X624161Y119665D02*
D03*
X473000Y316500D02*
D03*
X401000Y346000D02*
D03*
X400500Y350000D02*
D03*
X457000Y315500D02*
D03*
X427236Y315000D02*
D03*
X430000Y305663D02*
D03*
X536684Y200958D02*
D03*
X480250Y199750D02*
D03*
X487381Y198441D02*
D03*
X483695Y218591D02*
D03*
X418543Y309725D02*
D03*
X414000Y309829D02*
D03*
X439249Y219503D02*
D03*
X442819Y201486D02*
D03*
X395075Y204274D02*
D03*
X395500Y219500D02*
D03*
X414000Y315000D02*
D03*
X349500Y198500D02*
D03*
X413457Y319500D02*
D03*
X310000Y199000D02*
D03*
X400000Y342000D02*
D03*
X400500Y355500D02*
D03*
X403000Y358171D02*
D03*
X405000Y361000D02*
D03*
X190313Y202813D02*
D03*
X309000Y291500D02*
D03*
X388500Y348000D02*
D03*
X534500Y221000D02*
D03*
X521782Y192039D02*
D03*
X522000Y196000D02*
D03*
Y199500D02*
D03*
X479000Y191500D02*
D03*
X478624Y196124D02*
D03*
X436125Y201375D02*
D03*
X436500Y191500D02*
D03*
X387500Y196000D02*
D03*
X436939Y195811D02*
D03*
X387500Y191500D02*
D03*
X388000Y201500D02*
D03*
X623000Y191000D02*
D03*
Y196000D02*
D03*
X569500Y251000D02*
D03*
X574000Y254500D02*
D03*
X578000Y258000D02*
D03*
X347000Y271000D02*
D03*
X342000Y273500D02*
D03*
X336000Y276500D02*
D03*
X627000Y141500D02*
D03*
X623000Y200500D02*
D03*
X578000Y201000D02*
D03*
Y190500D02*
D03*
Y195500D02*
D03*
X629500Y146000D02*
D03*
X388000Y321000D02*
D03*
X386500Y325000D02*
D03*
X385500Y329000D02*
D03*
X349378Y205254D02*
D03*
X488000Y206158D02*
D03*
X443500Y206000D02*
D03*
X399500Y205500D02*
D03*
X342000Y216000D02*
D03*
X347000Y216055D02*
D03*
X335622Y179800D02*
D03*
X332500Y190000D02*
D03*
Y195000D02*
D03*
Y198500D02*
D03*
X242500Y214000D02*
D03*
X256500Y197500D02*
D03*
X171000Y119500D02*
D03*
X155500Y113500D02*
D03*
X172500Y162500D02*
D03*
X152500Y166000D02*
D03*
X133961Y185710D02*
D03*
X165500Y173899D02*
D03*
X280500Y188406D02*
D03*
X280000Y192500D02*
D03*
X280713Y196575D02*
D03*
X283500Y180500D02*
D03*
X206000Y220500D02*
D03*
X175500Y198000D02*
D03*
X203000Y218000D02*
D03*
X198500Y215000D02*
D03*
X179148Y197965D02*
D03*
X172000Y198000D02*
D03*
X611546Y127591D02*
D03*
X598000Y126000D02*
D03*
X609000Y124102D02*
D03*
X588000Y127500D02*
D03*
X372500Y199500D02*
D03*
X367887Y172028D02*
D03*
X322000Y179500D02*
D03*
X278500Y174000D02*
D03*
X188000Y157000D02*
D03*
X185500Y154500D02*
D03*
X162500Y185000D02*
D03*
X165290Y182710D02*
D03*
X194000Y330500D02*
D03*
X235500Y292000D02*
D03*
X210427Y312495D02*
D03*
X223683Y306105D02*
D03*
X332500Y387500D02*
D03*
X678000Y351500D02*
D03*
X663500Y406000D02*
D03*
X559000Y377500D02*
D03*
X426319Y382681D02*
D03*
X414319Y383182D02*
D03*
X677500Y373000D02*
D03*
X496951Y469021D02*
D03*
M02*
