G04*
G04 #@! TF.GenerationSoftware,Altium Limited,Altium Designer,20.2.5 (213)*
G04*
G04 Layer_Color=16711935*
%FSLAX25Y25*%
%MOIN*%
G70*
G04*
G04 #@! TF.SameCoordinates,4C881970-A33B-4F38-ADD6-4E4DC0F1003D*
G04*
G04*
G04 #@! TF.FilePolarity,Negative*
G04*
G01*
G75*
%ADD75R,0.05682X0.05682*%
%ADD76C,0.05682*%
%ADD77C,0.04000*%
%ADD78C,0.06000*%
%ADD79C,0.06181*%
%ADD80R,0.06181X0.06181*%
%ADD81R,0.05682X0.05682*%
%ADD82R,0.06706X0.09068*%
%ADD83R,0.09068X0.06706*%
%ADD84C,0.05386*%
%ADD85C,0.13674*%
%ADD86C,0.05721*%
%ADD87R,0.05721X0.05721*%
%ADD88C,0.03556*%
D75*
X197000Y242000D02*
D03*
X262500Y420500D02*
D03*
X416500Y416500D02*
D03*
X577000Y407000D02*
D03*
X233000Y366500D02*
D03*
X191500Y396500D02*
D03*
X147000Y328500D02*
D03*
X239500Y322500D02*
D03*
X239750Y275000D02*
D03*
X146500Y276500D02*
D03*
X233000Y381500D02*
D03*
D76*
X187000Y242000D02*
D03*
X252500Y420500D02*
D03*
X406500Y416500D02*
D03*
X587000Y407000D02*
D03*
X620500Y361000D02*
D03*
X223000Y366500D02*
D03*
X620500Y389500D02*
D03*
X181500Y396500D02*
D03*
X137000Y328500D02*
D03*
X229500Y322500D02*
D03*
X229750Y275000D02*
D03*
X136500Y276500D02*
D03*
X223000Y381500D02*
D03*
X462500Y454000D02*
D03*
D77*
X253000Y438252D02*
D03*
Y446126D02*
D03*
Y454000D02*
D03*
D78*
X246898Y432346D02*
D03*
Y475654D02*
D03*
X267764Y432346D02*
D03*
Y475654D02*
D03*
D79*
X537922Y436351D02*
D03*
Y446351D02*
D03*
Y456351D02*
D03*
Y466351D02*
D03*
X527922Y436351D02*
D03*
Y446351D02*
D03*
Y456351D02*
D03*
D80*
Y466351D02*
D03*
D81*
X620500Y351000D02*
D03*
Y379500D02*
D03*
X462500Y444000D02*
D03*
D82*
X173996Y469500D02*
D03*
D83*
X192500Y481311D02*
D03*
Y457689D02*
D03*
D84*
X269768Y116929D02*
D03*
X279768D02*
D03*
X289768D02*
D03*
X299768D02*
D03*
X309768D02*
D03*
X319768D02*
D03*
X329768D02*
D03*
X339768D02*
D03*
X349768D02*
D03*
X359768D02*
D03*
X369768D02*
D03*
X379768D02*
D03*
X389768D02*
D03*
X399768D02*
D03*
X409768D02*
D03*
X419768D02*
D03*
X429768D02*
D03*
X439768D02*
D03*
X449768D02*
D03*
X459768D02*
D03*
X469768D02*
D03*
X479768D02*
D03*
X489768D02*
D03*
X499768D02*
D03*
X509768D02*
D03*
X264768Y124409D02*
D03*
X274768D02*
D03*
X284768D02*
D03*
X294768D02*
D03*
X304768D02*
D03*
X314768D02*
D03*
X324768D02*
D03*
X334768D02*
D03*
X344768D02*
D03*
X354768D02*
D03*
X364768D02*
D03*
X374768D02*
D03*
X384768D02*
D03*
X394768D02*
D03*
X404768D02*
D03*
X414768D02*
D03*
X424768D02*
D03*
X434768D02*
D03*
X444768D02*
D03*
X454768D02*
D03*
X464768D02*
D03*
X474768D02*
D03*
X484768D02*
D03*
X494768D02*
D03*
X504768D02*
D03*
X269768Y131890D02*
D03*
X279768D02*
D03*
X289768D02*
D03*
X299768D02*
D03*
X309768D02*
D03*
X319768D02*
D03*
X329768D02*
D03*
X339768D02*
D03*
X349768D02*
D03*
X359768D02*
D03*
X369768D02*
D03*
X379768D02*
D03*
X389768D02*
D03*
X399768D02*
D03*
X409768D02*
D03*
X419768D02*
D03*
X429768D02*
D03*
X439768D02*
D03*
X449768D02*
D03*
X459768D02*
D03*
X469768D02*
D03*
X479768D02*
D03*
X489768D02*
D03*
X499768D02*
D03*
X509768D02*
D03*
X264768Y139370D02*
D03*
X274768D02*
D03*
X284768D02*
D03*
X294768D02*
D03*
X304768D02*
D03*
X314768D02*
D03*
X324768D02*
D03*
X334768D02*
D03*
X344768D02*
D03*
X354768D02*
D03*
X364768D02*
D03*
X374768D02*
D03*
X384768D02*
D03*
X394768D02*
D03*
X404768D02*
D03*
X414768D02*
D03*
X424768D02*
D03*
X434768D02*
D03*
X444768D02*
D03*
X454768D02*
D03*
X464768D02*
D03*
X474768D02*
D03*
X484768D02*
D03*
X494768D02*
D03*
X504768D02*
D03*
D85*
X233272Y124409D02*
D03*
X541264D02*
D03*
D86*
X127000Y374626D02*
D03*
Y382500D02*
D03*
D87*
Y366752D02*
D03*
D88*
X540000Y221000D02*
D03*
X559810Y234053D02*
D03*
X553000Y215500D02*
D03*
X605500Y141000D02*
D03*
X622074Y138985D02*
D03*
X619696Y159000D02*
D03*
X243000Y157000D02*
D03*
X255000Y189000D02*
D03*
X631500Y105500D02*
D03*
X545500Y189500D02*
D03*
X357500Y185500D02*
D03*
X296500Y185000D02*
D03*
X314500Y229000D02*
D03*
X296688Y220021D02*
D03*
X212000Y163000D02*
D03*
X184500Y170000D02*
D03*
X541243Y189678D02*
D03*
X488500Y187000D02*
D03*
X444500Y188500D02*
D03*
X400000Y189122D02*
D03*
X252500Y306000D02*
D03*
X251500Y296500D02*
D03*
X244637Y179637D02*
D03*
X281068Y155569D02*
D03*
X351979Y183495D02*
D03*
X568000Y155500D02*
D03*
X543500Y176500D02*
D03*
X498500Y177500D02*
D03*
X454811Y147500D02*
D03*
X411500Y174500D02*
D03*
X368000Y152500D02*
D03*
X152000Y306500D02*
D03*
X175579Y304998D02*
D03*
X185500Y305000D02*
D03*
X193952Y305567D02*
D03*
X222000Y328500D02*
D03*
X214000Y336500D02*
D03*
X163000Y341000D02*
D03*
X186500Y344500D02*
D03*
X199000D02*
D03*
X238500Y353000D02*
D03*
X208500Y380500D02*
D03*
X212500Y376500D02*
D03*
X163000Y372000D02*
D03*
X159206Y361546D02*
D03*
X177000Y441500D02*
D03*
X180000Y444500D02*
D03*
X206510Y433515D02*
D03*
X209500Y436500D02*
D03*
X216500Y471500D02*
D03*
X238749Y457797D02*
D03*
X238500Y453000D02*
D03*
X226500Y483000D02*
D03*
X234500D02*
D03*
X341500Y440000D02*
D03*
X341124Y461131D02*
D03*
X486500Y464500D02*
D03*
X482000D02*
D03*
X570500Y430000D02*
D03*
X437000Y457000D02*
D03*
X496500Y463000D02*
D03*
X513500Y482500D02*
D03*
X534500Y483000D02*
D03*
X522500Y309000D02*
D03*
X578000Y314517D02*
D03*
X578500Y307500D02*
D03*
X412992Y291140D02*
D03*
X447000Y284500D02*
D03*
X453500Y288500D02*
D03*
X472000Y280500D02*
D03*
X527500Y280000D02*
D03*
X546500Y280500D02*
D03*
X573000Y284000D02*
D03*
X619500Y235000D02*
D03*
X617555Y270434D02*
D03*
X619000Y300000D02*
D03*
X623000Y237500D02*
D03*
X624500Y270000D02*
D03*
X625500Y300000D02*
D03*
X678500Y323500D02*
D03*
X655863Y337278D02*
D03*
X656500Y333000D02*
D03*
X658139Y329435D02*
D03*
X655500Y280000D02*
D03*
X610000Y346000D02*
D03*
X651872Y338088D02*
D03*
X667500Y399500D02*
D03*
X678000Y420500D02*
D03*
X626500Y406000D02*
D03*
X600500Y409000D02*
D03*
X613103Y407127D02*
D03*
X600611Y364335D02*
D03*
X574500Y351500D02*
D03*
X523672Y403737D02*
D03*
X485000Y398500D02*
D03*
Y388000D02*
D03*
X488000Y385000D02*
D03*
Y378000D02*
D03*
X492184Y352909D02*
D03*
X454500Y368000D02*
D03*
X454149Y362667D02*
D03*
X421000Y393500D02*
D03*
X400500D02*
D03*
X403000Y384500D02*
D03*
X400500Y387000D02*
D03*
X384446Y375565D02*
D03*
X378000Y375000D02*
D03*
X371000Y370000D02*
D03*
X351959Y340511D02*
D03*
X380000Y327500D02*
D03*
X382500Y331500D02*
D03*
X390500Y299500D02*
D03*
X366525Y317491D02*
D03*
X327078Y342059D02*
D03*
X308589Y341567D02*
D03*
X294500Y330500D02*
D03*
X289500Y326000D02*
D03*
X294000D02*
D03*
X317823Y307390D02*
D03*
X293500Y281500D02*
D03*
X281000Y281000D02*
D03*
X556500Y144000D02*
D03*
X632500Y142000D02*
D03*
X591000D02*
D03*
X596500Y142500D02*
D03*
X604825Y118624D02*
D03*
X639000Y109500D02*
D03*
X564408Y230577D02*
D03*
X557000Y228000D02*
D03*
X560000Y238500D02*
D03*
X510000Y239500D02*
D03*
X498000Y230500D02*
D03*
X513000Y231000D02*
D03*
X507000D02*
D03*
X467462Y231462D02*
D03*
X455500Y229000D02*
D03*
X464229Y228977D02*
D03*
X423000Y235000D02*
D03*
X418500Y231500D02*
D03*
X414000Y228000D02*
D03*
X374000Y232500D02*
D03*
X370000Y230000D02*
D03*
X366627Y233351D02*
D03*
X330000Y237000D02*
D03*
X330500Y233000D02*
D03*
X322341Y228609D02*
D03*
X328500Y228500D02*
D03*
X258103Y222007D02*
D03*
X282295Y222048D02*
D03*
X262000Y222000D02*
D03*
X205000Y284000D02*
D03*
X225000Y268500D02*
D03*
Y263500D02*
D03*
X185500Y258000D02*
D03*
X177773Y257859D02*
D03*
X154000Y241000D02*
D03*
X162500D02*
D03*
X162000Y217000D02*
D03*
X232000Y216500D02*
D03*
X143000Y180000D02*
D03*
X208500Y188500D02*
D03*
X198000D02*
D03*
X143500Y195000D02*
D03*
X152500Y172000D02*
D03*
X204117Y116696D02*
D03*
X183000Y111000D02*
D03*
X165000Y147500D02*
D03*
X138500Y119000D02*
D03*
X213699Y219267D02*
D03*
X362000Y339000D02*
D03*
X375000Y352000D02*
D03*
X371000Y366000D02*
D03*
X356500Y370500D02*
D03*
Y364500D02*
D03*
Y351500D02*
D03*
Y345000D02*
D03*
X321000Y432500D02*
D03*
X327000Y426000D02*
D03*
X320000Y425500D02*
D03*
X327000Y419000D02*
D03*
X320000D02*
D03*
X327500Y413000D02*
D03*
X320000D02*
D03*
X327500Y406000D02*
D03*
X320000D02*
D03*
X223500Y342500D02*
D03*
X229500Y338000D02*
D03*
X303500Y392000D02*
D03*
X298000Y398000D02*
D03*
X336000Y216000D02*
D03*
X353500Y387500D02*
D03*
X624161Y119665D02*
D03*
X473000Y316500D02*
D03*
X401000Y346000D02*
D03*
X400500Y350000D02*
D03*
X457000Y315500D02*
D03*
X427236Y315000D02*
D03*
X430000Y305663D02*
D03*
X536684Y200958D02*
D03*
X480250Y199750D02*
D03*
X487381Y198441D02*
D03*
X483695Y218591D02*
D03*
X418543Y309725D02*
D03*
X414000Y309829D02*
D03*
X439249Y219503D02*
D03*
X442819Y201486D02*
D03*
X395075Y204274D02*
D03*
X395500Y219500D02*
D03*
X414000Y315000D02*
D03*
X349500Y198500D02*
D03*
X413457Y319500D02*
D03*
X310000Y199000D02*
D03*
X400000Y342000D02*
D03*
X400500Y355500D02*
D03*
X403000Y358171D02*
D03*
X405000Y361000D02*
D03*
X190313Y202813D02*
D03*
X309000Y291500D02*
D03*
X388500Y348000D02*
D03*
X534500Y221000D02*
D03*
X521782Y192039D02*
D03*
X522000Y196000D02*
D03*
Y199500D02*
D03*
X479000Y191500D02*
D03*
X478624Y196124D02*
D03*
X436125Y201375D02*
D03*
X436500Y191500D02*
D03*
X387500Y196000D02*
D03*
X436939Y195811D02*
D03*
X387500Y191500D02*
D03*
X388000Y201500D02*
D03*
X623000Y191000D02*
D03*
Y196000D02*
D03*
X569500Y251000D02*
D03*
X574000Y254500D02*
D03*
X578000Y258000D02*
D03*
X347000Y271000D02*
D03*
X342000Y273500D02*
D03*
X336000Y276500D02*
D03*
X627000Y141500D02*
D03*
X623000Y200500D02*
D03*
X578000Y201000D02*
D03*
Y190500D02*
D03*
Y195500D02*
D03*
X629500Y146000D02*
D03*
X388000Y321000D02*
D03*
X386500Y325000D02*
D03*
X385500Y329000D02*
D03*
X349378Y205254D02*
D03*
X488000Y206158D02*
D03*
X443500Y206000D02*
D03*
X399500Y205500D02*
D03*
X342000Y216000D02*
D03*
X347000Y216055D02*
D03*
X335622Y179800D02*
D03*
X332500Y190000D02*
D03*
Y195000D02*
D03*
Y198500D02*
D03*
X242500Y214000D02*
D03*
X256500Y197500D02*
D03*
X171000Y119500D02*
D03*
X155500Y113500D02*
D03*
X172500Y162500D02*
D03*
X152500Y166000D02*
D03*
X133961Y185710D02*
D03*
X165500Y173899D02*
D03*
X280500Y188406D02*
D03*
X280000Y192500D02*
D03*
X280713Y196575D02*
D03*
X283500Y180500D02*
D03*
X206000Y220500D02*
D03*
X175500Y198000D02*
D03*
X203000Y218000D02*
D03*
X198500Y215000D02*
D03*
X179148Y197965D02*
D03*
X172000Y198000D02*
D03*
X611546Y127591D02*
D03*
X598000Y126000D02*
D03*
X609000Y124102D02*
D03*
X588000Y127500D02*
D03*
X372500Y199500D02*
D03*
X367887Y172028D02*
D03*
X322000Y179500D02*
D03*
X278500Y174000D02*
D03*
X188000Y157000D02*
D03*
X185500Y154500D02*
D03*
X162500Y185000D02*
D03*
X165290Y182710D02*
D03*
X194000Y330500D02*
D03*
X235500Y292000D02*
D03*
X210427Y312495D02*
D03*
X223683Y306105D02*
D03*
X332500Y387500D02*
D03*
X678000Y351500D02*
D03*
X663500Y406000D02*
D03*
X559000Y377500D02*
D03*
X426319Y382681D02*
D03*
X414319Y383182D02*
D03*
X677500Y373000D02*
D03*
X496951Y469021D02*
D03*
M02*
