G04*
G04 #@! TF.GenerationSoftware,Altium Limited,Altium Designer,20.2.5 (213)*
G04*
G04 Layer_Color=16711935*
%FSLAX25Y25*%
%MOIN*%
G70*
G04*
G04 #@! TF.SameCoordinates,7C5E352A-D8AC-4D21-BA38-630912A149F9*
G04*
G04*
G04 #@! TF.FilePolarity,Positive*
G04*
G01*
G75*
%ADD10C,0.00787*%
%ADD12C,0.00394*%
%ADD13C,0.02000*%
%ADD16C,0.00500*%
%ADD140C,0.00100*%
%ADD141C,0.00300*%
G36*
X253381Y459900D02*
X261281D01*
Y454000D01*
X253381D01*
Y459900D01*
D02*
G37*
D10*
X233394Y373260D02*
G03*
X233394Y373260I-394J0D01*
G01*
X627654Y379500D02*
G03*
X627654Y379500I-394J0D01*
G01*
X398913Y213071D02*
G03*
X398913Y213071I-394J0D01*
G01*
X191894Y403260D02*
G03*
X191894Y403260I-394J0D01*
G01*
X147394Y336260D02*
G03*
X147394Y336260I-394J0D01*
G01*
X157323Y106520D02*
G03*
X157323Y106520I-394J0D01*
G01*
X400634Y426000D02*
G03*
X400634Y426000I-394J0D01*
G01*
X370213Y343998D02*
G03*
X370213Y343998I-394J0D01*
G01*
X196614Y213071D02*
G03*
X196614Y213071I-394J0D01*
G01*
X298413D02*
G03*
X298413Y213071I-394J0D01*
G01*
X244693D02*
G03*
X244693Y213071I-394J0D01*
G01*
X538213D02*
G03*
X538213Y213071I-394J0D01*
G01*
X602823Y146520D02*
G03*
X602823Y146520I-394J0D01*
G01*
Y104520D02*
G03*
X602823Y104520I-394J0D01*
G01*
X239894Y328260D02*
G03*
X239894Y328260I-394J0D01*
G01*
X230194Y270260D02*
G03*
X230194Y270260I-394J0D01*
G01*
X201394Y286760D02*
G03*
X201394Y286760I-394J0D01*
G01*
X163194Y270260D02*
G03*
X163194Y270260I-394J0D01*
G01*
X487413Y213071D02*
G03*
X487413Y213071I-394J0D01*
G01*
X444413D02*
G03*
X444413Y213071I-394J0D01*
G01*
X349413D02*
G03*
X349413Y213071I-394J0D01*
G01*
X158823Y162020D02*
G03*
X158823Y162020I-394J0D01*
G01*
X576394Y400240D02*
G03*
X576394Y400240I-394J0D01*
G01*
X233394Y388260D02*
G03*
X233394Y388260I-394J0D01*
G01*
X469654Y444000D02*
G03*
X469654Y444000I-394J0D01*
G01*
X627654Y351000D02*
G03*
X627654Y351000I-394J0D01*
G01*
X262894Y427260D02*
G03*
X262894Y427260I-394J0D01*
G01*
X265228Y369937D02*
X270149D01*
X265228Y362063D02*
Y369937D01*
Y362063D02*
X270149D01*
Y369937D01*
X341157Y321669D02*
Y330331D01*
X335843Y321669D02*
X341157D01*
X335843D02*
Y330331D01*
X341157D01*
X369969Y340766D02*
Y342734D01*
X366032D02*
X369969D01*
X366032Y340766D02*
Y342734D01*
Y340766D02*
X369969D01*
X398532Y376984D02*
X402469D01*
Y375016D02*
Y376984D01*
X398532Y375016D02*
X402469D01*
X398532D02*
Y376984D01*
X527063Y424961D02*
X534937D01*
Y420039D02*
Y424961D01*
X527063Y420039D02*
X534937D01*
X527063D02*
Y424961D01*
X303895Y406952D02*
X311769D01*
X303895D02*
Y411873D01*
X311769D01*
Y406952D02*
Y411873D01*
X303635Y418452D02*
X311509D01*
X303635D02*
Y423373D01*
X311509D01*
Y418452D02*
Y423373D01*
X284280D02*
X292154D01*
Y418452D02*
Y423373D01*
X284280Y418452D02*
X292154D01*
X284280D02*
Y423373D01*
X223063Y459039D02*
X230937D01*
X223063D02*
Y463961D01*
X230937D01*
Y459039D02*
Y463961D01*
X223210Y471039D02*
X231084D01*
X223210D02*
Y475961D01*
X231084D01*
Y471039D02*
Y475961D01*
X145539Y358563D02*
Y366437D01*
X150461D01*
Y358563D02*
Y366437D01*
X145539Y358563D02*
X150461D01*
X182669Y361343D02*
Y366657D01*
Y361343D02*
X191331D01*
Y366657D01*
X182669D02*
X191331D01*
X155539Y142016D02*
Y149890D01*
X160461D01*
Y142016D02*
Y149890D01*
X155539Y142016D02*
X160461D01*
X531563Y287539D02*
Y292461D01*
Y287539D02*
X539437D01*
Y292461D01*
X531563D02*
X539437D01*
X502169Y445343D02*
Y450657D01*
Y445343D02*
X510831D01*
Y450657D01*
X502169D02*
X510831D01*
X502169Y435843D02*
Y441157D01*
Y435843D02*
X510831D01*
Y441157D01*
X502169D02*
X510831D01*
X444516Y364469D02*
X446484D01*
X444516Y360532D02*
Y364469D01*
Y360532D02*
X446484D01*
Y364469D01*
X380516Y336531D02*
Y340468D01*
X382484D01*
Y336531D02*
Y340468D01*
X380516Y336531D02*
X382484D01*
X547689Y286689D02*
Y310311D01*
X571311D01*
Y286689D02*
Y310311D01*
X547689Y286689D02*
X571311D01*
X345539Y329437D02*
X350461D01*
X345539Y321563D02*
Y329437D01*
Y321563D02*
X350461D01*
Y329437D01*
X674063Y403539D02*
X681937D01*
X674063D02*
Y408461D01*
X681937D01*
Y403539D02*
Y408461D01*
X385516Y351532D02*
Y355469D01*
X387484D01*
Y351532D02*
Y355469D01*
X385516Y351532D02*
X387484D01*
X362532Y366234D02*
X366469D01*
Y364266D02*
Y366234D01*
X362532Y364266D02*
X366469D01*
X362532D02*
Y366234D01*
X380984Y348282D02*
Y352219D01*
X379016Y348282D02*
X380984D01*
X379016D02*
Y352219D01*
X380984D01*
X314840Y304160D02*
X322714D01*
X314840D02*
Y309082D01*
X322714D01*
Y304160D02*
Y309082D01*
X293737Y278684D02*
Y286558D01*
X288816Y278684D02*
X293737D01*
X288816D02*
Y286558D01*
X293737D01*
X299789Y252539D02*
Y257461D01*
Y252539D02*
X307663D01*
Y257461D01*
X299789D02*
X307663D01*
X299340Y270082D02*
X307214D01*
Y265160D02*
Y270082D01*
X299340Y265160D02*
X307214D01*
X299340D02*
Y270082D01*
X390539Y315792D02*
X395461D01*
X390539Y307918D02*
Y315792D01*
Y307918D02*
X395461D01*
Y315792D01*
X378539Y307563D02*
Y315437D01*
X383461D01*
Y307563D02*
Y315437D01*
X378539Y307563D02*
X383461D01*
X266461Y307063D02*
Y314937D01*
X261539Y307063D02*
X266461D01*
X261539D02*
Y314937D01*
X266461D01*
X185461Y312563D02*
Y320437D01*
X180539Y312563D02*
X185461D01*
X180539D02*
Y320437D01*
X185461D01*
X591622Y131539D02*
X599496D01*
X591622D02*
Y136461D01*
X599496D01*
Y131539D02*
Y136461D01*
X302189Y322689D02*
Y346311D01*
Y322689D02*
X325811D01*
Y346311D01*
X302189D02*
X325811D01*
X386016Y336812D02*
Y340749D01*
X387984D01*
Y336812D02*
Y340749D01*
X386016Y336812D02*
X387984D01*
X414063Y300539D02*
X421937D01*
X414063D02*
Y305461D01*
X421937D01*
Y300539D02*
Y305461D01*
X433188Y310016D02*
Y311984D01*
X429251D02*
X433188D01*
X429251Y310016D02*
Y311984D01*
Y310016D02*
X433188D01*
Y317016D02*
Y318984D01*
X429251D02*
X433188D01*
X429251Y317016D02*
Y318984D01*
Y317016D02*
X433188D01*
X418343Y286035D02*
Y294697D01*
X423657D01*
Y286035D02*
Y294697D01*
X418343Y286035D02*
X423657D01*
X441843Y293035D02*
Y301697D01*
X447157D01*
Y293035D02*
Y301697D01*
X441843Y293035D02*
X447157D01*
X185339Y263292D02*
X190261D01*
X185339Y255418D02*
Y263292D01*
Y255418D02*
X190261D01*
Y263292D01*
X206839Y239516D02*
Y247390D01*
X211761D01*
Y239516D02*
Y247390D01*
X206839Y239516D02*
X211761D01*
X201457Y238669D02*
Y247331D01*
X196143Y238669D02*
X201457D01*
X196143D02*
Y247331D01*
X201457D01*
X229669Y337843D02*
Y343157D01*
Y337843D02*
X238331D01*
Y343157D01*
X229669D02*
X238331D01*
X181039Y328063D02*
Y335937D01*
X185961D01*
Y328063D02*
Y335937D01*
X181039Y328063D02*
X185961D01*
X211516Y325251D02*
Y329188D01*
X213484D01*
Y325251D02*
Y329188D01*
X211516Y325251D02*
X213484D01*
X162843Y301626D02*
X168157D01*
X162843Y292965D02*
Y301626D01*
Y292965D02*
X168157D01*
Y301626D01*
X175244Y301823D02*
X180756D01*
X175244Y293161D02*
Y301823D01*
Y293161D02*
X180756D01*
Y301823D01*
X204331Y309843D02*
Y315157D01*
X195669D02*
X204331D01*
X195669Y309843D02*
Y315157D01*
Y309843D02*
X204331D01*
X371843Y383169D02*
Y391831D01*
X377157D01*
Y383169D02*
Y391831D01*
X371843Y383169D02*
X377157D01*
X154261Y215063D02*
Y222937D01*
X149339Y215063D02*
X154261D01*
X149339D02*
Y222937D01*
X154261D01*
X226390Y216539D02*
Y221461D01*
X218516D02*
X226390D01*
X218516Y216539D02*
Y221461D01*
Y216539D02*
X226390D01*
X149039Y190937D02*
X153961D01*
X149039Y183063D02*
Y190937D01*
Y183063D02*
X153961D01*
Y190937D01*
X595039Y174563D02*
X599961D01*
Y182437D01*
X595039D02*
X599961D01*
X595039Y174563D02*
Y182437D01*
X569437Y217039D02*
Y221961D01*
X561563D02*
X569437D01*
X561563Y217039D02*
Y221961D01*
Y217039D02*
X569437D01*
X276169D02*
Y221961D01*
X268295D02*
X276169D01*
X268295Y217039D02*
Y221961D01*
Y217039D02*
X276169D01*
X327437Y217539D02*
Y222461D01*
X319563D02*
X327437D01*
X319563Y217539D02*
Y222461D01*
Y217539D02*
X327437D01*
X428437Y217039D02*
Y221961D01*
X420563D02*
X428437D01*
X420563Y217039D02*
Y221961D01*
Y217039D02*
X428437D01*
X379996D02*
Y221961D01*
X372122D02*
X379996D01*
X372122Y217039D02*
Y221961D01*
Y217039D02*
X379996D01*
X473437Y216539D02*
Y221461D01*
X465563D02*
X473437D01*
X465563Y216539D02*
Y221461D01*
Y216539D02*
X473437D01*
X517984Y217039D02*
Y221961D01*
X510110D02*
X517984D01*
X510110Y217039D02*
Y221961D01*
Y217039D02*
X517984D01*
X543217Y429678D02*
Y473025D01*
X522627Y429678D02*
X543217D01*
X522627D02*
Y473025D01*
X543217D01*
X276039Y370437D02*
X280961D01*
X276039Y362563D02*
Y370437D01*
Y362563D02*
X280961D01*
Y370437D01*
X276039Y379563D02*
X280961D01*
Y387437D01*
X276039D02*
X280961D01*
X276039Y379563D02*
Y387437D01*
X549197Y400343D02*
Y405657D01*
X540535D02*
X549197D01*
X540535Y400343D02*
Y405657D01*
Y400343D02*
X549197D01*
X559985Y348162D02*
Y356036D01*
X564906D01*
Y348162D02*
Y356036D01*
X559985Y348162D02*
X564906D01*
X284169Y397157D02*
X292831D01*
Y391843D02*
Y397157D01*
X284169Y391843D02*
X292831D01*
X284169D02*
Y397157D01*
X204937Y371039D02*
Y375961D01*
X197063D02*
X204937D01*
X197063Y371039D02*
Y375961D01*
Y371039D02*
X204937D01*
X472539Y448716D02*
X477461D01*
Y456590D01*
X472539D02*
X477461D01*
X472539Y448716D02*
Y456590D01*
X312039Y351563D02*
X316961D01*
Y359437D01*
X312039D02*
X316961D01*
X312039Y351563D02*
Y359437D01*
X664075Y287803D02*
Y294496D01*
X657382Y287803D02*
X664075D01*
X657382D02*
Y294496D01*
X664075D01*
X597034Y321571D02*
X604908D01*
Y316650D02*
Y321571D01*
X597034Y316650D02*
X604908D01*
X597034D02*
Y321571D01*
X597534Y291571D02*
X605408D01*
Y286650D02*
Y291571D01*
X597534Y286650D02*
X605408D01*
X597534D02*
Y291571D01*
Y262071D02*
X605408D01*
Y257150D02*
Y262071D01*
X597534Y257150D02*
X605408D01*
X597534D02*
Y262071D01*
X636010Y281015D02*
Y288889D01*
X640931D01*
Y281015D02*
Y288889D01*
X636010Y281015D02*
X640931D01*
X636039Y252063D02*
Y259937D01*
X640961D01*
Y252063D02*
Y259937D01*
X636039Y252063D02*
X640961D01*
X155169Y381343D02*
X163831D01*
X155169D02*
Y386657D01*
X163831D01*
Y381343D02*
Y386657D01*
X169343Y375169D02*
Y383831D01*
X174657D01*
Y375169D02*
Y383831D01*
X169343Y375169D02*
X174657D01*
X325539Y456063D02*
X330461D01*
Y463937D01*
X325539D02*
X330461D01*
X325539Y456063D02*
Y463937D01*
X402032Y316516D02*
X405969D01*
X402032D02*
Y318484D01*
X405969D01*
Y316516D02*
Y318484D01*
X378516Y366532D02*
Y370469D01*
X380484D01*
Y366532D02*
Y370469D01*
X378516Y366532D02*
X380484D01*
X385016D02*
Y370469D01*
X386984D01*
Y366532D02*
Y370469D01*
X385016Y366532D02*
X386984D01*
D12*
X199508Y323992D02*
G03*
X199508Y323992I-1969J0D01*
G01*
X401827Y363142D02*
G03*
X401827Y363142I-1969J0D01*
G01*
X243169Y217146D02*
X251831D01*
X243169Y222854D02*
X251831D01*
Y217146D02*
Y222854D01*
X243169Y217146D02*
Y222854D01*
X607854Y301280D02*
Y309941D01*
X602146Y301280D02*
Y309941D01*
X607854D01*
X602146Y301280D02*
X607854D01*
X381669Y388646D02*
X390331D01*
X381669Y394354D02*
X390331D01*
Y388646D02*
Y394354D01*
X381669Y388646D02*
Y394354D01*
X390134Y379843D02*
Y385157D01*
X381866Y379843D02*
Y385157D01*
Y379843D02*
X390134D01*
X381866Y385157D02*
X390134D01*
X516536Y354738D02*
Y360053D01*
X508269Y354738D02*
Y360053D01*
Y354738D02*
X516536D01*
X508269Y360053D02*
X516536D01*
X508269Y369053D02*
X516536D01*
X508269Y363738D02*
X516536D01*
X508269D02*
Y369053D01*
X516536Y363738D02*
Y369053D01*
X498288Y358030D02*
X503603D01*
X498288Y349762D02*
X503603D01*
Y358030D01*
X498288Y349762D02*
Y358030D01*
X510091Y466343D02*
Y471657D01*
X501823Y466343D02*
Y471657D01*
Y466343D02*
X510091D01*
X501823Y471657D02*
X510091D01*
X482146Y179169D02*
Y187831D01*
X487854Y179169D02*
Y187831D01*
X482146Y179169D02*
X487854D01*
X482146Y187831D02*
X487854D01*
X603843Y371909D02*
Y380177D01*
X609157Y371909D02*
Y380177D01*
X603843Y371909D02*
X609157D01*
X603843Y380177D02*
X609157D01*
X189656Y446319D02*
X190246Y446909D01*
Y446319D02*
Y448681D01*
X186309D02*
X190246D01*
X186309Y446319D02*
Y448681D01*
Y446319D02*
X190246D01*
X174783Y454934D02*
Y511627D01*
X210216D01*
Y454934D02*
Y511627D01*
X174783Y454934D02*
X210216D01*
X229539Y441154D02*
X234461D01*
X229539D02*
Y447846D01*
X234461D01*
Y441154D02*
Y447846D01*
X214866Y428343D02*
Y433657D01*
X223134Y428343D02*
Y433657D01*
X214866D02*
X223134D01*
X214866Y428343D02*
X223134D01*
X139091Y364969D02*
X139681Y364378D01*
X137319Y364969D02*
X139681D01*
X137319Y361032D02*
Y364969D01*
Y361032D02*
X139681D01*
Y364969D01*
X137319Y373484D02*
X137909Y372894D01*
X137319D02*
X139681D01*
Y376831D01*
X137319D02*
X139681D01*
X137319Y372894D02*
Y376831D01*
X192209Y375350D02*
Y381650D01*
X180791Y375350D02*
X192209D01*
X180791D02*
Y381650D01*
X192209D01*
X188469D02*
X192209Y377909D01*
X144854Y110169D02*
Y118831D01*
X139146Y110169D02*
Y118831D01*
X144854D01*
X139146Y110169D02*
X144854D01*
X583457Y127630D02*
X587394D01*
Y112669D02*
Y127630D01*
X583457Y112669D02*
X587394D01*
X583457D02*
Y127630D01*
X627169Y159646D02*
X635831D01*
X627169Y165354D02*
X635831D01*
Y159646D02*
Y165354D01*
X627169Y159646D02*
Y165354D01*
X608354Y271669D02*
Y280331D01*
X602646Y271669D02*
Y280331D01*
X608354D01*
X602646Y271669D02*
X608354D01*
Y242528D02*
Y251189D01*
X602646Y242528D02*
Y251189D01*
X608354D01*
X602646Y242528D02*
X608354D01*
X539929Y310966D02*
Y316281D01*
X531661Y310966D02*
Y316281D01*
Y310966D02*
X539929D01*
X531661Y316281D02*
X539929D01*
X540126Y300269D02*
Y305977D01*
X531464Y300269D02*
Y305977D01*
Y300269D02*
X540126D01*
X531464Y305977D02*
X540126D01*
X516536Y397738D02*
Y403053D01*
X508269Y397738D02*
Y403053D01*
Y397738D02*
X516536D01*
X508269Y403053D02*
X516536D01*
Y388238D02*
Y393553D01*
X508269Y388238D02*
Y393553D01*
Y388238D02*
X516536D01*
X508269Y393553D02*
X516536D01*
Y378738D02*
Y384053D01*
X508269Y378738D02*
Y384053D01*
Y378738D02*
X516536D01*
X508269Y384053D02*
X516536D01*
X498288Y365762D02*
X503603D01*
X498288Y374030D02*
X503603D01*
X498288Y365762D02*
Y374030D01*
X503603Y365762D02*
Y374030D01*
X502324Y378738D02*
Y384053D01*
X494056Y378738D02*
Y384053D01*
Y378738D02*
X502324D01*
X494056Y384053D02*
X502324D01*
X494056Y388238D02*
Y393553D01*
X502324Y388238D02*
Y393553D01*
X494056D02*
X502324D01*
X494056Y388238D02*
X502324D01*
X510091Y455343D02*
Y460657D01*
X501823Y455343D02*
Y460657D01*
Y455343D02*
X510091D01*
X501823Y460657D02*
X510091D01*
X358807Y162416D02*
Y166353D01*
X373768D01*
Y162416D02*
Y166353D01*
X358807Y162416D02*
X373768D01*
X299068Y282712D02*
X302808Y278971D01*
X299068D02*
X310485D01*
Y285271D01*
X299068D02*
X310485D01*
X299068Y278971D02*
Y285271D01*
X288866Y293343D02*
X297134D01*
X288866Y298657D02*
X297134D01*
Y293343D02*
Y298657D01*
X288866Y293343D02*
Y298657D01*
X272446Y293464D02*
Y298779D01*
X281107Y293464D02*
Y298779D01*
X272446D02*
X281107D01*
X272446Y293464D02*
X281107D01*
X271068Y310212D02*
X274808Y306471D01*
X271068D02*
X282485D01*
Y312771D01*
X271068D02*
X282485D01*
X271068Y306471D02*
Y312771D01*
X314088Y293267D02*
X322749D01*
X314088Y298975D02*
X322749D01*
Y293267D02*
Y298975D01*
X314088Y293267D02*
Y298975D01*
X313946Y270475D02*
X322607D01*
X313946Y264767D02*
X322607D01*
X313946D02*
Y270475D01*
X322607Y264767D02*
Y270475D01*
X147354Y165669D02*
Y174331D01*
X141646Y165669D02*
Y174331D01*
X147354D01*
X141646Y165669D02*
X147354D01*
X345169Y183146D02*
X353831D01*
X345169Y188854D02*
X353831D01*
Y183146D02*
Y188854D01*
X345169Y183146D02*
Y188854D01*
X297169Y186354D02*
X305831D01*
X297169Y180646D02*
X305831D01*
X297169D02*
Y186354D01*
X305831Y180646D02*
Y186354D01*
X629134Y124146D02*
X637795D01*
X629134Y129854D02*
X637795D01*
Y124146D02*
Y129854D01*
X629134Y124146D02*
Y129854D01*
X428866Y284343D02*
X437134D01*
X428866Y289657D02*
X437134D01*
Y284343D02*
Y289657D01*
X428866Y284343D02*
Y289657D01*
X437331Y296646D02*
Y302354D01*
X428669Y296646D02*
Y302354D01*
Y296646D02*
X437331D01*
X428669Y302354D02*
X437331D01*
X193996Y327535D02*
X206004D01*
Y319465D02*
Y327535D01*
X193996Y319465D02*
Y327535D01*
Y319465D02*
X206004D01*
X173643Y254866D02*
X178957D01*
X173643Y263134D02*
X178957D01*
X173643Y254866D02*
Y263134D01*
X178957Y254866D02*
Y263134D01*
X205769Y262650D02*
X209509Y258909D01*
X198091Y262650D02*
X209509D01*
X198091Y256350D02*
Y262650D01*
Y256350D02*
X209509D01*
Y262650D01*
X191343Y331409D02*
X196657D01*
X191343Y339677D02*
X196657D01*
X191343Y331409D02*
Y339677D01*
X196657Y331409D02*
Y339677D01*
X169843Y327866D02*
Y336134D01*
X175157Y327866D02*
Y336134D01*
X169843Y327866D02*
X175157D01*
X169843Y336134D02*
X175157D01*
X214929Y337843D02*
X223197D01*
X214929Y343157D02*
X223197D01*
Y337843D02*
Y343157D01*
X214929Y337843D02*
Y343157D01*
X201843Y334366D02*
X207157D01*
X201843Y342634D02*
X207157D01*
X201843Y334366D02*
Y342634D01*
X207157Y334366D02*
Y342634D01*
X214646Y302906D02*
X220354D01*
X214646Y294244D02*
X220354D01*
Y302906D01*
X214646Y294244D02*
Y302906D01*
X201343Y292669D02*
Y301331D01*
X206657Y292669D02*
Y301331D01*
X201343Y292669D02*
X206657D01*
X201343Y301331D02*
X206657D01*
X187843Y301528D02*
X193157D01*
X187843Y293260D02*
X193157D01*
Y301528D01*
X187843Y293260D02*
Y301528D01*
X169646Y312618D02*
X175354D01*
X169646Y321280D02*
X175354D01*
X169646Y312618D02*
Y321280D01*
X175354Y312618D02*
Y321280D01*
X140269Y222150D02*
X144009Y218409D01*
X132591Y222150D02*
X144009D01*
X132591Y215850D02*
Y222150D01*
Y215850D02*
X144009D01*
Y222150D01*
X187646Y198689D02*
X193354D01*
X187646Y190028D02*
X193354D01*
Y198689D01*
X187646Y190028D02*
Y198689D01*
X530646Y196189D02*
X536354D01*
X530646Y187528D02*
X536354D01*
Y196189D01*
X530646Y187528D02*
Y196189D01*
X348331Y245146D02*
Y250854D01*
X339669Y245146D02*
Y250854D01*
Y245146D02*
X348331D01*
X339669Y250854D02*
X348331D01*
Y235146D02*
Y240854D01*
X339669Y235146D02*
Y240854D01*
Y235146D02*
X348331D01*
X339669Y240854D02*
X348331D01*
X349331Y224646D02*
Y230354D01*
X340669Y224646D02*
Y230354D01*
Y224646D02*
X349331D01*
X340669Y230354D02*
X349331D01*
X391146Y201689D02*
X396854D01*
X391146Y193028D02*
X396854D01*
Y201689D01*
X391146Y193028D02*
Y201689D01*
X531146Y242795D02*
X536854D01*
X531146Y234134D02*
X536854D01*
Y242795D01*
X531146Y234134D02*
Y242795D01*
X517646D02*
X523354D01*
X517646Y234134D02*
X523354D01*
Y242795D01*
X517646Y234134D02*
Y242795D01*
X504146D02*
X509854D01*
X504146Y234134D02*
X509854D01*
Y242795D01*
X504146Y234134D02*
Y242795D01*
X437646Y201189D02*
X443354D01*
X437646Y192528D02*
X443354D01*
Y201189D01*
X437646Y192528D02*
Y201189D01*
X489638Y162416D02*
X504599D01*
Y166353D01*
X489638D02*
X504599D01*
X489638Y162416D02*
Y166353D01*
X446028Y162416D02*
X460988D01*
Y166353D01*
X446028D02*
X460988D01*
X446028Y162416D02*
Y166353D01*
X402418Y162416D02*
X417378D01*
Y166353D01*
X402418D02*
X417378D01*
X402418Y162416D02*
Y166353D01*
X315197Y162416D02*
X330158D01*
Y166353D01*
X315197D02*
X330158D01*
X315197Y162416D02*
Y166353D01*
X271587Y162416D02*
X286547D01*
Y166353D01*
X271587D02*
X286547D01*
X271587Y162416D02*
Y166353D01*
X533870Y162606D02*
Y166543D01*
X548831D01*
Y162606D02*
Y166543D01*
X533870Y162606D02*
X548831D01*
X583457Y150020D02*
Y164980D01*
Y150020D02*
X587394D01*
Y164980D01*
X583457D02*
X587394D01*
X196543Y112669D02*
Y127630D01*
X192606D02*
X196543D01*
X192606Y112669D02*
Y127630D01*
Y112669D02*
X196543D01*
X196894Y154319D02*
Y169280D01*
X192957D02*
X196894D01*
X192957Y154319D02*
Y169280D01*
Y154319D02*
X196894D01*
X245020Y166394D02*
X259980D01*
X245020Y162457D02*
Y166394D01*
Y162457D02*
X259980D01*
Y166394D01*
X265343Y379866D02*
X270657D01*
X265343Y388134D02*
X270657D01*
X265343Y379866D02*
Y388134D01*
X270657Y379866D02*
Y388134D01*
X632197Y342130D02*
X687512D01*
Y394098D01*
X632197D02*
X687512D01*
X632197Y342130D02*
Y394098D01*
X494056Y403053D02*
X502324D01*
X494056Y397738D02*
X502324D01*
X494056D02*
Y403053D01*
X502324Y397738D02*
Y403053D01*
X558894Y444520D02*
Y459480D01*
X554957D02*
X558894D01*
X554957Y444520D02*
Y459480D01*
Y444520D02*
X558894D01*
X398429Y400843D02*
Y406157D01*
X406697Y400843D02*
Y406157D01*
X398429D02*
X406697D01*
X398429Y400843D02*
X406697D01*
X424197D02*
Y406157D01*
X415929Y400843D02*
Y406157D01*
Y400843D02*
X424197D01*
X415929Y406157D02*
X424197D01*
X326646Y351528D02*
X332354D01*
X326646Y360189D02*
X332354D01*
X326646Y351528D02*
Y360189D01*
X332354Y351528D02*
Y360189D01*
X447146Y455519D02*
X452854D01*
X447146Y446858D02*
X452854D01*
Y455519D01*
X447146Y446858D02*
Y455519D01*
X641354Y310669D02*
Y319331D01*
X635646Y310669D02*
Y319331D01*
X641354D01*
X635646Y310669D02*
X641354D01*
X93535Y355531D02*
Y393720D01*
Y355531D02*
X134874D01*
Y393720D01*
X93535D02*
X134874D01*
X137319Y384669D02*
Y388606D01*
X139681D01*
Y384669D02*
Y388606D01*
X137319Y384669D02*
X139681D01*
X137319Y385260D02*
X137909Y384669D01*
X667157Y405866D02*
Y414134D01*
X661843Y405866D02*
Y414134D01*
X667157D01*
X661843Y405866D02*
X667157D01*
X396315Y327315D02*
X435685D01*
X396315Y366685D02*
X435685D01*
Y327315D02*
Y366685D01*
X396315Y327315D02*
Y366685D01*
X603843Y388866D02*
X609157D01*
X603843Y397134D02*
X609157D01*
X603843Y388866D02*
Y397134D01*
X609157Y388866D02*
Y397134D01*
X295343Y351866D02*
X300657D01*
X295343Y360134D02*
X300657D01*
X295343Y351866D02*
Y360134D01*
X300657Y351866D02*
Y360134D01*
X218488Y438453D02*
X222228Y442193D01*
Y438453D02*
Y450067D01*
X215929D02*
X222228D01*
X215929Y438453D02*
Y450067D01*
Y438453D02*
X222228D01*
X325611Y435975D02*
Y443849D01*
X330532Y435975D02*
Y443849D01*
X325611D02*
X330532D01*
X325611Y435975D02*
X330532D01*
D13*
X519268Y131890D02*
G03*
X519268Y131890I-1500J0D01*
G01*
D16*
X421150Y278228D02*
Y281772D01*
X414850D02*
X421150D01*
X414850Y278228D02*
Y281772D01*
Y278228D02*
X421150D01*
X153228Y317350D02*
X156772D01*
Y323650D01*
X153228D02*
X156772D01*
X153228Y317350D02*
Y323650D01*
X218402Y370701D02*
X237598D01*
Y362299D02*
Y370701D01*
X218402Y362299D02*
X237598D01*
X218402D02*
Y370701D01*
Y362299D02*
Y370701D01*
X552215Y434108D02*
Y437651D01*
X545916D02*
X552215D01*
X545916Y434108D02*
Y437651D01*
Y434108D02*
X552215D01*
X616299Y394098D02*
X624701D01*
X616299D02*
X624701D01*
X616299Y374902D02*
Y394098D01*
Y374902D02*
X624701D01*
Y394098D01*
X407339Y212343D02*
X424661D01*
X407339Y192657D02*
X424661D01*
X407339D02*
Y212343D01*
X424661Y192657D02*
Y212343D01*
X156850Y369228D02*
X163150D01*
X156850D02*
Y372772D01*
X163150D01*
Y369228D02*
Y372772D01*
X153728Y397350D02*
Y403650D01*
X157272D01*
Y397350D02*
Y403650D01*
X153728Y397350D02*
X157272D01*
X162728D02*
Y403650D01*
X166272D01*
Y397350D02*
Y403650D01*
X162728Y397350D02*
X166272D01*
X203228Y396850D02*
Y403150D01*
X206772D01*
Y396850D02*
Y403150D01*
X203228Y396850D02*
X206772D01*
X176902Y400701D02*
X196098D01*
Y392299D02*
Y400701D01*
X176902Y392299D02*
X196098D01*
X176902D02*
Y400701D01*
Y392299D02*
Y400701D01*
X240850Y349228D02*
X247150D01*
X240850D02*
Y352772D01*
X247150D01*
Y349228D02*
Y352772D01*
X134728Y309350D02*
Y315650D01*
X138272D01*
Y309350D02*
Y315650D01*
X134728Y309350D02*
X138272D01*
X132402Y325299D02*
Y333701D01*
Y325299D02*
Y333701D01*
Y325299D02*
X151598D01*
Y333701D01*
X132402D02*
X151598D01*
X160728Y277850D02*
Y284150D01*
X164272D01*
Y277850D02*
Y284150D01*
X160728Y277850D02*
X164272D01*
X163228Y309850D02*
Y316150D01*
X166772D01*
Y309850D02*
Y316150D01*
X163228Y309850D02*
X166772D01*
X141228Y237350D02*
Y243650D01*
X144772D01*
Y237350D02*
Y243650D01*
X141228Y237350D02*
X144772D01*
X128728Y235850D02*
Y242150D01*
X132272D01*
Y235850D02*
Y242150D01*
X128728Y235850D02*
X132272D01*
X157657Y132661D02*
X177343D01*
X157657Y115339D02*
X177343D01*
Y132661D01*
X157657Y115339D02*
Y132661D01*
X574350Y217728D02*
X580650D01*
X574350D02*
Y221272D01*
X580650D01*
Y217728D02*
Y221272D01*
X608350Y193228D02*
X614650D01*
X608350D02*
Y196772D01*
X614650D01*
Y193228D02*
Y196772D01*
X623728Y193850D02*
Y200150D01*
X627272D01*
Y193850D02*
Y200150D01*
X623728Y193850D02*
X627272D01*
X648850Y108228D02*
X655150D01*
X648850D02*
Y111772D01*
X655150D01*
Y108228D02*
Y111772D01*
X667728Y227350D02*
Y233650D01*
X671272D01*
Y227350D02*
Y233650D01*
X667728Y227350D02*
X671272D01*
X242772Y147850D02*
Y154150D01*
X239228Y147850D02*
X242772D01*
X239228D02*
Y154150D01*
X242772D01*
X172850Y278728D02*
X179150D01*
X172850D02*
Y282272D01*
X179150D01*
Y278728D02*
Y282272D01*
X216728Y279350D02*
Y285649D01*
X220272D01*
Y279350D02*
Y285649D01*
X216728Y279350D02*
X220272D01*
X133228Y196350D02*
Y202649D01*
X136772D01*
Y196350D02*
Y202649D01*
X133228Y196350D02*
X136772D01*
X123228Y162850D02*
Y169149D01*
X126772D01*
Y162850D02*
Y169149D01*
X123228Y162850D02*
X126772D01*
X119228Y107350D02*
Y113650D01*
X122772D01*
Y107350D02*
Y113650D01*
X119228Y107350D02*
X122772D01*
X307845Y220785D02*
Y227084D01*
X311388D01*
Y220785D02*
Y227084D01*
X307845Y220785D02*
X311388D01*
X239850Y231728D02*
X246150D01*
X239850D02*
Y235272D01*
X246150D01*
Y231728D02*
Y235272D01*
X581350Y187728D02*
X587650D01*
X581350D02*
Y191272D01*
X587650D01*
Y187728D02*
Y191272D01*
X253599Y372004D02*
Y378303D01*
X257142D01*
Y372004D02*
Y378303D01*
X253599Y372004D02*
X257142D01*
X669850Y435728D02*
X676150D01*
X669850D02*
Y439272D01*
X676150D01*
Y435728D02*
Y439272D01*
X264228Y147350D02*
Y153649D01*
X267772D01*
Y147350D02*
Y153649D01*
X264228Y147350D02*
X267772D01*
X618850Y403728D02*
X625150D01*
X618850D02*
Y407272D01*
X625150D01*
Y403728D02*
Y407272D01*
X618215Y332488D02*
Y338788D01*
X621758D01*
Y332488D02*
Y338788D01*
X618215Y332488D02*
X621758D01*
X558228Y371350D02*
Y377650D01*
X561772D01*
Y371350D02*
Y377650D01*
X558228Y371350D02*
X561772D01*
X200728Y431350D02*
Y437650D01*
X204272D01*
Y431350D02*
Y437650D01*
X200728Y431350D02*
X204272D01*
X402799Y411402D02*
X411201D01*
X402799D02*
X411201D01*
Y430598D01*
X402799D02*
X411201D01*
X402799Y411402D02*
Y430598D01*
X361079Y359549D02*
X370921D01*
X361079Y346951D02*
X370921D01*
Y359549D01*
X361079Y346951D02*
Y359549D01*
X222362Y192657D02*
Y212343D01*
X205039Y192657D02*
Y212343D01*
Y192657D02*
X222362D01*
X205039Y212343D02*
X222362D01*
X306839D02*
X324161D01*
X306839Y192657D02*
X324161D01*
X306839D02*
Y212343D01*
X324161Y192657D02*
Y212343D01*
X270441Y192657D02*
Y212343D01*
X253118Y192657D02*
Y212343D01*
Y192657D02*
X270441D01*
X253118Y212343D02*
X270441D01*
X563961Y192657D02*
Y212343D01*
X546638Y192657D02*
Y212343D01*
Y192657D02*
X563961D01*
X546638Y212343D02*
X563961D01*
X603157Y172661D02*
X622843D01*
X603157Y155339D02*
X622843D01*
Y172661D01*
X603157Y155339D02*
Y172661D01*
Y130661D02*
X622843D01*
X603157Y113339D02*
X622843D01*
Y130661D01*
X603157Y113339D02*
Y130661D01*
X224902Y325701D02*
X244098D01*
Y317299D02*
Y325701D01*
X224902Y317299D02*
X244098D01*
X224902D02*
Y325701D01*
Y317299D02*
Y325701D01*
X215202Y259299D02*
Y267701D01*
Y259299D02*
Y267701D01*
Y259299D02*
X234398D01*
Y267701D01*
X215202D02*
X234398D01*
X186402Y275799D02*
Y284201D01*
Y275799D02*
Y284201D01*
Y275799D02*
X205598D01*
Y284201D01*
X186402D02*
X205598D01*
X148202Y259299D02*
Y267701D01*
Y259299D02*
Y267701D01*
Y259299D02*
X167398D01*
Y267701D01*
X148202D02*
X167398D01*
X495839Y212343D02*
X513161D01*
X495839Y192657D02*
X513161D01*
X495839D02*
Y212343D01*
X513161Y192657D02*
Y212343D01*
X452839D02*
X470161D01*
X452839Y192657D02*
X470161D01*
X452839D02*
Y212343D01*
X470161Y192657D02*
Y212343D01*
X357839D02*
X375161D01*
X357839Y192657D02*
X375161D01*
X357839D02*
Y212343D01*
X375161Y192657D02*
Y212343D01*
X159157Y170839D02*
Y188161D01*
X178843Y170839D02*
Y188161D01*
X159157Y170839D02*
X178843D01*
X159157Y188161D02*
X178843D01*
X571402Y402799D02*
X590598D01*
X571402D02*
Y411201D01*
X590598D01*
Y402799D02*
Y411201D01*
Y402799D02*
Y411201D01*
X218402Y377299D02*
Y385701D01*
Y377299D02*
Y385701D01*
Y377299D02*
X237598D01*
Y385701D01*
X218402D02*
X237598D01*
X466701Y439402D02*
Y458598D01*
X458299Y439402D02*
X466701D01*
X458299D02*
Y458598D01*
X466701D01*
X458299D02*
X466701D01*
X624701Y346402D02*
Y365598D01*
X616299Y346402D02*
X624701D01*
X616299D02*
Y365598D01*
X624701D01*
X616299D02*
X624701D01*
X247902Y424701D02*
X267098D01*
Y416299D02*
Y424701D01*
X247902Y416299D02*
X267098D01*
X247902D02*
Y424701D01*
Y416299D02*
Y424701D01*
D140*
X221520Y77992D02*
X553016D01*
Y144409D01*
X221520D02*
X553016D01*
X221520Y77992D02*
Y144409D01*
X210555Y102323D02*
X563768D01*
X624211Y316960D02*
X626211D01*
Y319210D01*
X624211D02*
X626211D01*
X624211Y316960D02*
Y319210D01*
X616731Y316960D02*
X618731D01*
Y319210D01*
X616731D02*
X618731D01*
X616731Y316960D02*
Y319210D01*
X620471Y311260D02*
X622471D01*
X620471Y309010D02*
Y311260D01*
Y309010D02*
X622471D01*
Y311260D01*
X615771Y316960D02*
X627171D01*
X615771Y311260D02*
Y316960D01*
Y311260D02*
X627171D01*
Y316960D01*
X624211Y257460D02*
X626211D01*
Y259710D01*
X624211D02*
X626211D01*
X624211Y257460D02*
Y259710D01*
X616731Y257460D02*
X618731D01*
Y259710D01*
X616731D02*
X618731D01*
X616731Y257460D02*
Y259710D01*
X620471Y251760D02*
X622471D01*
X620471Y249510D02*
Y251760D01*
Y249510D02*
X622471D01*
Y251760D01*
X615771Y257460D02*
X627171D01*
X615771Y251760D02*
Y257460D01*
Y251760D02*
X627171D01*
Y257460D01*
X624211Y287210D02*
X626211D01*
Y289460D01*
X624211D02*
X626211D01*
X624211Y287210D02*
Y289460D01*
X616731Y287210D02*
X618731D01*
Y289460D01*
X616731D02*
X618731D01*
X616731Y287210D02*
Y289460D01*
X620471Y281510D02*
X622471D01*
X620471Y279260D02*
Y281510D01*
Y279260D02*
X622471D01*
Y281510D01*
X615771Y287210D02*
X627171D01*
X615771Y281510D02*
Y287210D01*
Y281510D02*
X627171D01*
Y287210D01*
X286522Y438512D02*
X289622D01*
X286522Y433512D02*
Y438512D01*
Y433512D02*
X289622D01*
Y438512D01*
X296522D02*
X299622D01*
X296522Y433512D02*
Y438512D01*
Y433512D02*
X299622D01*
Y438512D01*
X306522D02*
X309622D01*
X306522Y433512D02*
Y438512D01*
Y433512D02*
X309622D01*
Y438512D01*
X297322D02*
X298822D01*
X297322Y437012D02*
Y438512D01*
Y437012D02*
X298822D01*
Y438512D01*
X279322D02*
X316822D01*
Y475512D01*
X279322D02*
X316822D01*
X279322Y438512D02*
Y475512D01*
X268731Y430750D02*
Y477250D01*
X245931Y430750D02*
X268731D01*
X245931D02*
Y477250D01*
X268731D01*
X253381Y459900D02*
X261281D01*
X253381Y448100D02*
Y459900D01*
Y448100D02*
X261281D01*
Y459900D01*
D141*
X483587Y97028D02*
Y102026D01*
X486086D01*
X486919Y101193D01*
Y99527D01*
X486086Y98694D01*
X483587D01*
X491918Y101193D02*
X491084Y102026D01*
X489418D01*
X488585Y101193D01*
Y97861D01*
X489418Y97028D01*
X491084D01*
X491918Y97861D01*
X493584Y102026D02*
Y97028D01*
X496083D01*
X496916Y97861D01*
Y98694D01*
X496083Y99527D01*
X493584D01*
X496083D01*
X496916Y100360D01*
Y101193D01*
X496083Y102026D01*
X493584D01*
X506913D02*
X503580D01*
Y97028D01*
X506913D01*
X503580Y99527D02*
X505246D01*
X508579Y102026D02*
Y97028D01*
X511078D01*
X511911Y97861D01*
Y101193D01*
X511078Y102026D01*
X508579D01*
X516909Y101193D02*
X516076Y102026D01*
X514410D01*
X513577Y101193D01*
Y97861D01*
X514410Y97028D01*
X516076D01*
X516909Y97861D01*
Y99527D01*
X515243D01*
X521908Y102026D02*
X518575D01*
Y97028D01*
X521908D01*
X518575Y99527D02*
X520242D01*
X286822Y441178D02*
X290154Y437846D01*
X286822D02*
X290154Y441178D01*
X286822Y439512D02*
X290154D01*
X288488Y437846D02*
Y441178D01*
X268481Y444461D02*
X265148Y447793D01*
X268481D02*
X265148Y444461D01*
X268481Y446127D02*
X265148D01*
X266815Y447793D02*
Y444461D01*
M02*
