G04*
G04 #@! TF.GenerationSoftware,Altium Limited,Altium Designer,20.2.5 (213)*
G04*
G04 Layer_Physical_Order=3*
G04 Layer_Color=16440176*
%FSLAX25Y25*%
%MOIN*%
G70*
G04*
G04 #@! TF.SameCoordinates,DF9EC99C-6B6A-4A12-867B-CC6261A5A3E9*
G04*
G04*
G04 #@! TF.FilePolarity,Positive*
G04*
G01*
G75*
%ADD20C,0.01000*%
%ADD78C,0.05386*%
%ADD135R,0.04921X0.04921*%
%ADD136C,0.02756*%
G36*
X307000Y352000D02*
X240766D01*
X240417Y352500D01*
X240517Y353000D01*
X240363Y353772D01*
X239926Y354426D01*
X239272Y354863D01*
X238500Y355017D01*
X237728Y354863D01*
X237074Y354426D01*
X236637Y353772D01*
X236483Y353000D01*
X236583Y352500D01*
X236234Y352000D01*
X119500D01*
Y402000D01*
X307000D01*
Y352000D01*
D02*
G37*
G36*
X244000Y249000D02*
X148500D01*
Y272900D01*
X150100D01*
Y280100D01*
X148500D01*
Y324900D01*
X150600D01*
Y332100D01*
X148500D01*
Y347000D01*
X186367D01*
X186416Y346500D01*
X186119Y346441D01*
X185728Y346363D01*
X185074Y345926D01*
X184637Y345272D01*
X184483Y344500D01*
X184637Y343728D01*
X185074Y343074D01*
X185728Y342637D01*
X186500Y342483D01*
X187272Y342637D01*
X187926Y343074D01*
X188363Y343728D01*
X188517Y344500D01*
X188363Y345272D01*
X187926Y345926D01*
X187272Y346363D01*
X186584Y346500D01*
X186633Y347000D01*
X191367D01*
X191416Y346500D01*
X191119Y346441D01*
X190728Y346363D01*
X190074Y345926D01*
X189637Y345272D01*
X189483Y344500D01*
X189637Y343728D01*
X190074Y343074D01*
X190728Y342637D01*
X191500Y342483D01*
X192272Y342637D01*
X192926Y343074D01*
X193363Y343728D01*
X193517Y344500D01*
X193363Y345272D01*
X192926Y345926D01*
X192272Y346363D01*
X191584Y346500D01*
X191633Y347000D01*
X198867D01*
X198916Y346500D01*
X198619Y346441D01*
X198228Y346363D01*
X197574Y345926D01*
X197137Y345272D01*
X196983Y344500D01*
X197137Y343728D01*
X197574Y343074D01*
X198228Y342637D01*
X199000Y342483D01*
X199772Y342637D01*
X200426Y343074D01*
X200863Y343728D01*
X201017Y344500D01*
X200863Y345272D01*
X200426Y345926D01*
X199772Y346363D01*
X199084Y346500D01*
X199133Y347000D01*
X244000D01*
Y249000D01*
D02*
G37*
G36*
X256000Y255939D02*
X255500Y255787D01*
X255214Y256214D01*
X254428Y256740D01*
X254000Y256825D01*
Y254500D01*
Y252175D01*
X254428Y252260D01*
X255214Y252786D01*
X255500Y253213D01*
X256000Y253061D01*
Y231500D01*
X318416D01*
X318500Y231483D01*
X318584Y231500D01*
X329185D01*
X329728Y231137D01*
X330500Y230983D01*
X331272Y231137D01*
X331815Y231500D01*
X337500D01*
Y217978D01*
X337000Y217711D01*
X336772Y217863D01*
X336000Y218017D01*
X335228Y217863D01*
X334574Y217426D01*
X334137Y216772D01*
X333983Y216000D01*
X334137Y215228D01*
X334574Y214574D01*
X335228Y214137D01*
X336000Y213983D01*
X336772Y214137D01*
X337000Y214289D01*
X337500Y214022D01*
Y208000D01*
X348429D01*
X348478Y207500D01*
X348450Y207494D01*
X347663Y206969D01*
X347138Y206182D01*
X347053Y205754D01*
X351703D01*
X351618Y206182D01*
X351092Y206969D01*
X351046Y207000D01*
X351197Y207500D01*
X397381D01*
X397642Y207000D01*
X397260Y206428D01*
X397112Y205685D01*
X396592Y205564D01*
X396501Y205700D01*
X395847Y206137D01*
X395075Y206291D01*
X394303Y206137D01*
X393649Y205700D01*
X393212Y205046D01*
X393058Y204274D01*
X393212Y203502D01*
X393649Y202848D01*
X394303Y202411D01*
X395075Y202257D01*
X395847Y202411D01*
X396501Y202848D01*
X396938Y203502D01*
X397038Y204004D01*
X397569Y204110D01*
X397786Y203786D01*
X398572Y203260D01*
X399000Y203175D01*
Y205500D01*
X399500D01*
Y206000D01*
X401825D01*
X401740Y206428D01*
X401358Y207000D01*
X401618Y207500D01*
X441112D01*
X441348Y207059D01*
X441260Y206928D01*
X441175Y206500D01*
X445825D01*
X445740Y206928D01*
X445652Y207059D01*
X445888Y207500D01*
X485482D01*
X485743Y207000D01*
X485675Y206658D01*
X490325D01*
X490257Y207000D01*
X490519Y207500D01*
X496000D01*
Y201000D01*
X481794D01*
X481676Y201176D01*
X481022Y201613D01*
X480250Y201767D01*
X479478Y201613D01*
X478824Y201176D01*
X478706Y201000D01*
X445133D01*
X444816Y201386D01*
X444836Y201486D01*
X444682Y202258D01*
X444245Y202912D01*
X443897Y203145D01*
X444002Y203675D01*
X444428Y203760D01*
X445214Y204286D01*
X445740Y205072D01*
X445825Y205500D01*
X441175D01*
X441260Y205072D01*
X441786Y204286D01*
X442338Y203917D01*
X442232Y203386D01*
X442047Y203349D01*
X441393Y202912D01*
X440956Y202258D01*
X440802Y201486D01*
X440822Y201386D01*
X440505Y201000D01*
X438449D01*
X438142Y201375D01*
X437988Y202147D01*
X437551Y202801D01*
X436897Y203238D01*
X436125Y203392D01*
X435353Y203238D01*
X434699Y202801D01*
X434262Y202147D01*
X434108Y201375D01*
X433801Y201000D01*
X390311D01*
X389994Y201386D01*
X390017Y201500D01*
X389863Y202272D01*
X389426Y202926D01*
X388772Y203363D01*
X388000Y203517D01*
X387228Y203363D01*
X386574Y202926D01*
X386137Y202272D01*
X385983Y201500D01*
X386006Y201386D01*
X385689Y201000D01*
X373815D01*
X373272Y201363D01*
X372500Y201517D01*
X371728Y201363D01*
X371185Y201000D01*
X362441D01*
X362363Y201394D01*
X361926Y202048D01*
X361272Y202485D01*
X360500Y202639D01*
X359728Y202485D01*
X359074Y202048D01*
X358637Y201394D01*
X358559Y201000D01*
X352000D01*
Y201000D01*
X331500D01*
X331500Y226500D01*
X323645D01*
X323493Y227000D01*
X323767Y227183D01*
X324204Y227837D01*
X324358Y228609D01*
X324204Y229381D01*
X323767Y230035D01*
X323113Y230472D01*
X322341Y230626D01*
X321569Y230472D01*
X320915Y230035D01*
X320478Y229381D01*
X320325Y228609D01*
X320478Y227837D01*
X320915Y227183D01*
X321189Y227000D01*
X321037Y226500D01*
X249000Y226500D01*
Y296367D01*
X249500Y296416D01*
X249559Y296119D01*
X249637Y295728D01*
X250074Y295074D01*
X250728Y294637D01*
X251500Y294483D01*
X252272Y294637D01*
X252926Y295074D01*
X253363Y295728D01*
X253517Y296500D01*
X253363Y297272D01*
X252926Y297926D01*
X252272Y298363D01*
X251500Y298517D01*
X250728Y298363D01*
X250074Y297926D01*
X249637Y297272D01*
X249500Y296584D01*
X249000Y296633D01*
Y308500D01*
X251061D01*
X251213Y308000D01*
X250786Y307714D01*
X250260Y306928D01*
X250175Y306500D01*
X254825D01*
X254740Y306928D01*
X254214Y307714D01*
X253787Y308000D01*
X253939Y308500D01*
X256000D01*
Y255939D01*
D02*
G37*
%LPC*%
G36*
X298500Y400325D02*
Y398500D01*
X300325D01*
X300240Y398928D01*
X299714Y399714D01*
X298928Y400240D01*
X298500Y400325D01*
D02*
G37*
G36*
X297500D02*
X297072Y400240D01*
X296286Y399714D01*
X295760Y398928D01*
X295675Y398500D01*
X297500D01*
Y400325D01*
D02*
G37*
G36*
X300325Y397500D02*
X298500D01*
Y395675D01*
X298928Y395760D01*
X299714Y396286D01*
X300240Y397072D01*
X300325Y397500D01*
D02*
G37*
G36*
X297500D02*
X295675D01*
X295760Y397072D01*
X296286Y396286D01*
X297072Y395760D01*
X297500Y395675D01*
Y397500D01*
D02*
G37*
G36*
X195100Y400100D02*
X187900D01*
Y392900D01*
X195100D01*
Y400100D01*
D02*
G37*
G36*
X181500Y400131D02*
X180560Y400007D01*
X179684Y399645D01*
X178932Y399067D01*
X178355Y398316D01*
X177993Y397440D01*
X177869Y396500D01*
X177993Y395560D01*
X178355Y394685D01*
X178932Y393933D01*
X179684Y393355D01*
X180560Y392993D01*
X181500Y392869D01*
X182440Y392993D01*
X183316Y393355D01*
X184068Y393933D01*
X184645Y394685D01*
X185007Y395560D01*
X185131Y396500D01*
X185007Y397440D01*
X184645Y398316D01*
X184068Y399067D01*
X183316Y399645D01*
X182440Y400007D01*
X181500Y400131D01*
D02*
G37*
G36*
X304000Y394325D02*
Y392500D01*
X305825D01*
X305740Y392928D01*
X305214Y393714D01*
X304428Y394240D01*
X304000Y394325D01*
D02*
G37*
G36*
X303000D02*
X302572Y394240D01*
X301786Y393714D01*
X301260Y392928D01*
X301175Y392500D01*
X303000D01*
Y394325D01*
D02*
G37*
G36*
X138500Y394017D02*
X137728Y393863D01*
X137074Y393426D01*
X136637Y392772D01*
X136483Y392000D01*
X136637Y391228D01*
X137074Y390574D01*
X137728Y390137D01*
X138500Y389983D01*
X139272Y390137D01*
X139926Y390574D01*
X140363Y391228D01*
X140517Y392000D01*
X140363Y392772D01*
X139926Y393426D01*
X139272Y393863D01*
X138500Y394017D01*
D02*
G37*
G36*
X305825Y391500D02*
X304000D01*
Y389675D01*
X304428Y389760D01*
X305214Y390286D01*
X305740Y391072D01*
X305825Y391500D01*
D02*
G37*
G36*
X303000D02*
X301175D01*
X301260Y391072D01*
X301786Y390286D01*
X302572Y389760D01*
X303000Y389675D01*
Y391500D01*
D02*
G37*
G36*
X263000Y383825D02*
Y382000D01*
X264825D01*
X264740Y382428D01*
X264214Y383214D01*
X263428Y383740D01*
X263000Y383825D01*
D02*
G37*
G36*
X262000D02*
X261572Y383740D01*
X260786Y383214D01*
X260260Y382428D01*
X260175Y382000D01*
X262000D01*
Y383825D01*
D02*
G37*
G36*
X198500Y381825D02*
Y380000D01*
X200325D01*
X200240Y380428D01*
X199714Y381214D01*
X198928Y381740D01*
X198500Y381825D01*
D02*
G37*
G36*
X197500D02*
X197072Y381740D01*
X196286Y381214D01*
X195760Y380428D01*
X195675Y380000D01*
X197500D01*
Y381825D01*
D02*
G37*
G36*
X127000Y385587D02*
X126201Y385482D01*
X125457Y385174D01*
X124817Y384683D01*
X124327Y384044D01*
X124018Y383299D01*
X123913Y382500D01*
X124018Y381701D01*
X124327Y380957D01*
X124817Y380317D01*
X125457Y379826D01*
X126201Y379518D01*
X127000Y379413D01*
X127799Y379518D01*
X128543Y379826D01*
X129183Y380317D01*
X129674Y380957D01*
X129982Y381701D01*
X130087Y382500D01*
X129982Y383299D01*
X129674Y384044D01*
X129183Y384683D01*
X128543Y385174D01*
X127799Y385482D01*
X127000Y385587D01*
D02*
G37*
G36*
X264825Y381000D02*
X263000D01*
Y379175D01*
X263428Y379260D01*
X264214Y379786D01*
X264740Y380572D01*
X264825Y381000D01*
D02*
G37*
G36*
X262000D02*
X260175D01*
X260260Y380572D01*
X260786Y379786D01*
X261572Y379260D01*
X262000Y379175D01*
Y381000D01*
D02*
G37*
G36*
X236600Y385100D02*
X229400D01*
Y377900D01*
X236600D01*
Y385100D01*
D02*
G37*
G36*
X223000Y385131D02*
X222060Y385007D01*
X221184Y384645D01*
X220432Y384068D01*
X219855Y383315D01*
X219493Y382440D01*
X219369Y381500D01*
X219493Y380560D01*
X219855Y379684D01*
X220432Y378932D01*
X221184Y378355D01*
X222060Y377993D01*
X223000Y377869D01*
X223940Y377993D01*
X224816Y378355D01*
X225568Y378932D01*
X226145Y379684D01*
X226507Y380560D01*
X226631Y381500D01*
X226507Y382440D01*
X226145Y383315D01*
X225568Y384068D01*
X224816Y384645D01*
X223940Y385007D01*
X223000Y385131D01*
D02*
G37*
G36*
X200325Y379000D02*
X198500D01*
Y377175D01*
X198928Y377260D01*
X199714Y377786D01*
X200240Y378572D01*
X200325Y379000D01*
D02*
G37*
G36*
X197500D02*
X195675D01*
X195760Y378572D01*
X196286Y377786D01*
X197072Y377260D01*
X197500Y377175D01*
Y379000D01*
D02*
G37*
G36*
X138500Y381017D02*
X137728Y380863D01*
X137074Y380426D01*
X136637Y379772D01*
X136483Y379000D01*
X136637Y378228D01*
X137074Y377574D01*
X137728Y377137D01*
X138500Y376983D01*
X139272Y377137D01*
X139926Y377574D01*
X140363Y378228D01*
X140517Y379000D01*
X140363Y379772D01*
X139926Y380426D01*
X139272Y380863D01*
X138500Y381017D01*
D02*
G37*
G36*
X127000Y377713D02*
X126201Y377608D01*
X125457Y377299D01*
X124817Y376809D01*
X124327Y376169D01*
X124018Y375425D01*
X123913Y374626D01*
X124018Y373827D01*
X124327Y373082D01*
X124817Y372443D01*
X125457Y371953D01*
X126201Y371644D01*
X127000Y371539D01*
X127799Y371644D01*
X128543Y371953D01*
X129183Y372443D01*
X129674Y373082D01*
X129982Y373827D01*
X130087Y374626D01*
X129982Y375425D01*
X129674Y376169D01*
X129183Y376809D01*
X128543Y377299D01*
X127799Y377608D01*
X127000Y377713D01*
D02*
G37*
G36*
X210500Y375517D02*
X209728Y375363D01*
X209074Y374926D01*
X208637Y374272D01*
X208483Y373500D01*
X208637Y372728D01*
X209074Y372074D01*
X209728Y371637D01*
X210500Y371483D01*
X211272Y371637D01*
X211926Y372074D01*
X212363Y372728D01*
X212517Y373500D01*
X212363Y374272D01*
X211926Y374926D01*
X211272Y375363D01*
X210500Y375517D01*
D02*
G37*
G36*
X191000Y371825D02*
Y370000D01*
X192825D01*
X192740Y370428D01*
X192214Y371214D01*
X191428Y371740D01*
X191000Y371825D01*
D02*
G37*
G36*
X190000D02*
X189572Y371740D01*
X188786Y371214D01*
X188260Y370428D01*
X188175Y370000D01*
X190000D01*
Y371825D01*
D02*
G37*
G36*
X163000Y374017D02*
X162228Y373863D01*
X161574Y373426D01*
X161137Y372772D01*
X160983Y372000D01*
X161137Y371228D01*
X161574Y370574D01*
X162228Y370137D01*
X163000Y369983D01*
X163772Y370137D01*
X164426Y370574D01*
X164863Y371228D01*
X165017Y372000D01*
X164863Y372772D01*
X164426Y373426D01*
X163772Y373863D01*
X163000Y374017D01*
D02*
G37*
G36*
X198500Y369825D02*
Y368000D01*
X200325D01*
X200240Y368428D01*
X199714Y369214D01*
X198928Y369740D01*
X198500Y369825D01*
D02*
G37*
G36*
X197500D02*
X197072Y369740D01*
X196286Y369214D01*
X195760Y368428D01*
X195675Y368000D01*
X197500D01*
Y369825D01*
D02*
G37*
G36*
X130461Y370213D02*
X127500D01*
Y367252D01*
X130461D01*
Y370213D01*
D02*
G37*
G36*
X126500D02*
X123539D01*
Y367252D01*
X126500D01*
Y370213D01*
D02*
G37*
G36*
X192825Y369000D02*
X191000D01*
Y367175D01*
X191428Y367260D01*
X192214Y367786D01*
X192740Y368572D01*
X192825Y369000D01*
D02*
G37*
G36*
X190000D02*
X188175D01*
X188260Y368572D01*
X188786Y367786D01*
X189572Y367260D01*
X190000Y367175D01*
Y369000D01*
D02*
G37*
G36*
X200325Y367000D02*
X198500D01*
Y365175D01*
X198928Y365260D01*
X199714Y365786D01*
X200240Y366572D01*
X200325Y367000D01*
D02*
G37*
G36*
X197500D02*
X195675D01*
X195760Y366572D01*
X196286Y365786D01*
X197072Y365260D01*
X197500Y365175D01*
Y367000D01*
D02*
G37*
G36*
X130461Y366252D02*
X127500D01*
Y363291D01*
X130461D01*
Y366252D01*
D02*
G37*
G36*
X126500D02*
X123539D01*
Y363291D01*
X126500D01*
Y366252D01*
D02*
G37*
G36*
X236600Y370100D02*
X229400D01*
Y362900D01*
X236600D01*
Y370100D01*
D02*
G37*
G36*
X223000Y370131D02*
X222060Y370007D01*
X221184Y369645D01*
X220432Y369068D01*
X219855Y368316D01*
X219493Y367440D01*
X219369Y366500D01*
X219493Y365560D01*
X219855Y364685D01*
X220432Y363932D01*
X221184Y363355D01*
X222060Y362993D01*
X223000Y362869D01*
X223940Y362993D01*
X224816Y363355D01*
X225568Y363932D01*
X226145Y364685D01*
X226507Y365560D01*
X226631Y366500D01*
X226507Y367440D01*
X226145Y368316D01*
X225568Y369068D01*
X224816Y369645D01*
X223940Y370007D01*
X223000Y370131D01*
D02*
G37*
G36*
X156000Y362017D02*
X155228Y361863D01*
X154574Y361426D01*
X154137Y360772D01*
X153983Y360000D01*
X154137Y359228D01*
X154574Y358574D01*
X155228Y358137D01*
X156000Y357983D01*
X156772Y358137D01*
X157426Y358574D01*
X157863Y359228D01*
X158017Y360000D01*
X157863Y360772D01*
X157426Y361426D01*
X156772Y361863D01*
X156000Y362017D01*
D02*
G37*
G36*
X138500Y360517D02*
X137728Y360363D01*
X137074Y359926D01*
X136637Y359272D01*
X136483Y358500D01*
X136637Y357728D01*
X137074Y357074D01*
X137728Y356637D01*
X138500Y356483D01*
X139272Y356637D01*
X139926Y357074D01*
X140363Y357728D01*
X140517Y358500D01*
X140363Y359272D01*
X139926Y359926D01*
X139272Y360363D01*
X138500Y360517D01*
D02*
G37*
G36*
X224000Y344825D02*
Y343000D01*
X225825D01*
X225740Y343428D01*
X225214Y344214D01*
X224428Y344740D01*
X224000Y344825D01*
D02*
G37*
G36*
X223000D02*
X222572Y344740D01*
X221786Y344214D01*
X221260Y343428D01*
X221175Y343000D01*
X223000D01*
Y344825D01*
D02*
G37*
G36*
X225825Y342000D02*
X224000D01*
Y340175D01*
X224428Y340260D01*
X225214Y340786D01*
X225740Y341572D01*
X225825Y342000D01*
D02*
G37*
G36*
X223000D02*
X221175D01*
X221260Y341572D01*
X221786Y340786D01*
X222572Y340260D01*
X223000Y340175D01*
Y342000D01*
D02*
G37*
G36*
X163000Y343017D02*
X162228Y342863D01*
X161574Y342426D01*
X161137Y341772D01*
X160983Y341000D01*
X161137Y340228D01*
X161574Y339574D01*
X162228Y339137D01*
X163000Y338983D01*
X163772Y339137D01*
X164426Y339574D01*
X164863Y340228D01*
X165017Y341000D01*
X164863Y341772D01*
X164426Y342426D01*
X163772Y342863D01*
X163000Y343017D01*
D02*
G37*
G36*
X230000Y340325D02*
Y338500D01*
X231825D01*
X231740Y338928D01*
X231214Y339714D01*
X230428Y340240D01*
X230000Y340325D01*
D02*
G37*
G36*
X229000D02*
X228572Y340240D01*
X227786Y339714D01*
X227260Y338928D01*
X227175Y338500D01*
X229000D01*
Y340325D01*
D02*
G37*
G36*
X231825Y337500D02*
X230000D01*
Y335675D01*
X230428Y335760D01*
X231214Y336286D01*
X231740Y337072D01*
X231825Y337500D01*
D02*
G37*
G36*
X229000D02*
X227175D01*
X227260Y337072D01*
X227786Y336286D01*
X228572Y335760D01*
X229000Y335675D01*
Y337500D01*
D02*
G37*
G36*
X214000Y338517D02*
X213228Y338363D01*
X212574Y337926D01*
X212137Y337272D01*
X211983Y336500D01*
X212137Y335728D01*
X212574Y335074D01*
X213228Y334637D01*
X214000Y334483D01*
X214772Y334637D01*
X215426Y335074D01*
X215863Y335728D01*
X216017Y336500D01*
X215863Y337272D01*
X215426Y337926D01*
X214772Y338363D01*
X214000Y338517D01*
D02*
G37*
G36*
X222500Y330825D02*
Y329000D01*
X224325D01*
X224240Y329428D01*
X223714Y330214D01*
X222928Y330740D01*
X222500Y330825D01*
D02*
G37*
G36*
X221500D02*
X221072Y330740D01*
X220286Y330214D01*
X219760Y329428D01*
X219675Y329000D01*
X221500D01*
Y330825D01*
D02*
G37*
G36*
X224325Y328000D02*
X222500D01*
Y326175D01*
X222928Y326260D01*
X223714Y326786D01*
X224240Y327572D01*
X224325Y328000D01*
D02*
G37*
G36*
X221500D02*
X219675D01*
X219760Y327572D01*
X220286Y326786D01*
X221072Y326260D01*
X221500Y326175D01*
Y328000D01*
D02*
G37*
G36*
X243100Y326100D02*
X235900D01*
Y318900D01*
X243100D01*
Y326100D01*
D02*
G37*
G36*
X229500Y326131D02*
X228560Y326007D01*
X227684Y325645D01*
X226933Y325067D01*
X226355Y324316D01*
X225993Y323440D01*
X225869Y322500D01*
X225993Y321560D01*
X226355Y320685D01*
X226933Y319933D01*
X227684Y319355D01*
X228560Y318993D01*
X229500Y318869D01*
X230440Y318993D01*
X231315Y319355D01*
X232067Y319933D01*
X232645Y320685D01*
X233007Y321560D01*
X233131Y322500D01*
X233007Y323440D01*
X232645Y324316D01*
X232067Y325067D01*
X231315Y325645D01*
X230440Y326007D01*
X229500Y326131D01*
D02*
G37*
G36*
X210427Y314512D02*
X209655Y314358D01*
X209001Y313921D01*
X208563Y313267D01*
X208410Y312495D01*
X208563Y311723D01*
X209001Y311069D01*
X209655Y310632D01*
X210427Y310478D01*
X211198Y310632D01*
X211853Y311069D01*
X212290Y311723D01*
X212443Y312495D01*
X212290Y313267D01*
X211853Y313921D01*
X211198Y314358D01*
X210427Y314512D01*
D02*
G37*
G36*
X223683Y308122D02*
X222912Y307968D01*
X222257Y307531D01*
X221820Y306877D01*
X221667Y306105D01*
X221820Y305334D01*
X222257Y304679D01*
X222912Y304242D01*
X223683Y304089D01*
X224455Y304242D01*
X225109Y304679D01*
X225547Y305334D01*
X225700Y306105D01*
X225547Y306877D01*
X225109Y307531D01*
X224455Y307968D01*
X223683Y308122D01*
D02*
G37*
G36*
X193952Y307583D02*
X193180Y307430D01*
X192526Y306993D01*
X192089Y306339D01*
X191935Y305567D01*
X192089Y304795D01*
X192526Y304141D01*
X193180Y303703D01*
X193952Y303550D01*
X194724Y303703D01*
X195378Y304141D01*
X195815Y304795D01*
X195969Y305567D01*
X195815Y306339D01*
X195378Y306993D01*
X194724Y307430D01*
X193952Y307583D01*
D02*
G37*
G36*
X185500Y307017D02*
X184728Y306863D01*
X184074Y306426D01*
X183637Y305772D01*
X183483Y305000D01*
X183637Y304228D01*
X184074Y303574D01*
X184728Y303137D01*
X185500Y302983D01*
X186272Y303137D01*
X186926Y303574D01*
X187363Y304228D01*
X187517Y305000D01*
X187363Y305772D01*
X186926Y306426D01*
X186272Y306863D01*
X185500Y307017D01*
D02*
G37*
G36*
X175579Y307015D02*
X174808Y306862D01*
X174153Y306424D01*
X173716Y305770D01*
X173563Y304998D01*
X173716Y304227D01*
X174153Y303573D01*
X174808Y303135D01*
X175579Y302982D01*
X176351Y303135D01*
X177006Y303573D01*
X177443Y304227D01*
X177596Y304998D01*
X177443Y305770D01*
X177006Y306424D01*
X176351Y306862D01*
X175579Y307015D01*
D02*
G37*
G36*
X156500Y303825D02*
Y302000D01*
X158325D01*
X158240Y302428D01*
X157714Y303214D01*
X156928Y303740D01*
X156500Y303825D01*
D02*
G37*
G36*
X155500D02*
X155072Y303740D01*
X154286Y303214D01*
X153760Y302428D01*
X153675Y302000D01*
X155500D01*
Y303825D01*
D02*
G37*
G36*
X158325Y301000D02*
X156500D01*
Y299175D01*
X156928Y299260D01*
X157714Y299786D01*
X158240Y300572D01*
X158325Y301000D01*
D02*
G37*
G36*
X155500D02*
X153675D01*
X153760Y300572D01*
X154286Y299786D01*
X155072Y299260D01*
X155500Y299175D01*
Y301000D01*
D02*
G37*
G36*
X235500Y294017D02*
X234728Y293863D01*
X234074Y293426D01*
X233637Y292772D01*
X233483Y292000D01*
X233637Y291228D01*
X234074Y290574D01*
X234728Y290137D01*
X235500Y289983D01*
X236272Y290137D01*
X236926Y290574D01*
X237363Y291228D01*
X237517Y292000D01*
X237363Y292772D01*
X236926Y293426D01*
X236272Y293863D01*
X235500Y294017D01*
D02*
G37*
G36*
X205000Y286017D02*
X204228Y285863D01*
X203574Y285426D01*
X203137Y284772D01*
X202983Y284000D01*
X203137Y283228D01*
X203574Y282574D01*
X204228Y282137D01*
X205000Y281983D01*
X205772Y282137D01*
X206426Y282574D01*
X206863Y283228D01*
X207017Y284000D01*
X206863Y284772D01*
X206426Y285426D01*
X205772Y285863D01*
X205000Y286017D01*
D02*
G37*
G36*
X243350Y278600D02*
X236150D01*
Y271400D01*
X243350D01*
Y278600D01*
D02*
G37*
G36*
X229750Y278631D02*
X228810Y278507D01*
X227935Y278145D01*
X227183Y277568D01*
X226605Y276816D01*
X226243Y275940D01*
X226119Y275000D01*
X226243Y274060D01*
X226605Y273184D01*
X227183Y272432D01*
X227935Y271855D01*
X228810Y271493D01*
X229750Y271369D01*
X230690Y271493D01*
X231565Y271855D01*
X232317Y272432D01*
X232895Y273184D01*
X233257Y274060D01*
X233381Y275000D01*
X233257Y275940D01*
X232895Y276816D01*
X232317Y277568D01*
X231565Y278145D01*
X230690Y278507D01*
X229750Y278631D01*
D02*
G37*
G36*
X225500Y270825D02*
Y269000D01*
X227325D01*
X227240Y269428D01*
X226714Y270214D01*
X225928Y270740D01*
X225500Y270825D01*
D02*
G37*
G36*
X224500D02*
X224072Y270740D01*
X223286Y270214D01*
X222760Y269428D01*
X222675Y269000D01*
X224500D01*
Y270825D01*
D02*
G37*
G36*
X227325Y268000D02*
X225500D01*
Y266175D01*
X225928Y266260D01*
X226714Y266786D01*
X227240Y267572D01*
X227325Y268000D01*
D02*
G37*
G36*
X224500D02*
X222675D01*
X222760Y267572D01*
X223286Y266786D01*
X224072Y266260D01*
X224500Y266175D01*
Y268000D01*
D02*
G37*
G36*
X225000Y265517D02*
X224228Y265363D01*
X223574Y264926D01*
X223137Y264272D01*
X222983Y263500D01*
X223137Y262728D01*
X223574Y262074D01*
X224228Y261637D01*
X225000Y261483D01*
X225772Y261637D01*
X226426Y262074D01*
X226863Y262728D01*
X227017Y263500D01*
X226863Y264272D01*
X226426Y264926D01*
X225772Y265363D01*
X225000Y265517D01*
D02*
G37*
G36*
X185500Y260017D02*
X184728Y259863D01*
X184074Y259426D01*
X183637Y258772D01*
X183483Y258000D01*
X183637Y257228D01*
X184074Y256574D01*
X184728Y256137D01*
X185500Y255983D01*
X186272Y256137D01*
X186926Y256574D01*
X187363Y257228D01*
X187517Y258000D01*
X187363Y258772D01*
X186926Y259426D01*
X186272Y259863D01*
X185500Y260017D01*
D02*
G37*
G36*
X177773Y259876D02*
X177001Y259722D01*
X176347Y259285D01*
X175910Y258631D01*
X175756Y257859D01*
X175910Y257087D01*
X176347Y256433D01*
X177001Y255996D01*
X177773Y255842D01*
X178545Y255996D01*
X179199Y256433D01*
X179636Y257087D01*
X179790Y257859D01*
X179636Y258631D01*
X179199Y259285D01*
X178545Y259722D01*
X177773Y259876D01*
D02*
G37*
G36*
X254825Y305500D02*
X253000D01*
Y303675D01*
X253428Y303760D01*
X254214Y304286D01*
X254740Y305072D01*
X254825Y305500D01*
D02*
G37*
G36*
X252000D02*
X250175D01*
X250260Y305072D01*
X250786Y304286D01*
X251572Y303760D01*
X252000Y303675D01*
Y305500D01*
D02*
G37*
G36*
X253000Y256825D02*
X252572Y256740D01*
X251786Y256214D01*
X251260Y255428D01*
X251175Y255000D01*
X253000D01*
Y256825D01*
D02*
G37*
G36*
Y254000D02*
X251175D01*
X251260Y253572D01*
X251786Y252786D01*
X252572Y252260D01*
X253000Y252175D01*
Y254000D01*
D02*
G37*
G36*
X252000Y235017D02*
X251228Y234863D01*
X250574Y234426D01*
X250137Y233772D01*
X249983Y233000D01*
X250137Y232228D01*
X250574Y231574D01*
X251228Y231137D01*
X252000Y230983D01*
X252772Y231137D01*
X253426Y231574D01*
X253863Y232228D01*
X254017Y233000D01*
X253863Y233772D01*
X253426Y234426D01*
X252772Y234863D01*
X252000Y235017D01*
D02*
G37*
G36*
X490325Y205658D02*
X488500D01*
Y203833D01*
X488928Y203918D01*
X489714Y204443D01*
X490240Y205230D01*
X490325Y205658D01*
D02*
G37*
G36*
X487500D02*
X485675D01*
X485760Y205230D01*
X486286Y204443D01*
X487072Y203918D01*
X487500Y203833D01*
Y205658D01*
D02*
G37*
G36*
X401825Y205000D02*
X400000D01*
Y203175D01*
X400428Y203260D01*
X401214Y203786D01*
X401740Y204572D01*
X401825Y205000D01*
D02*
G37*
G36*
X351703Y204754D02*
X349878D01*
Y202929D01*
X350306Y203014D01*
X351092Y203540D01*
X351500Y204150D01*
X351618Y204327D01*
X351703Y204754D01*
D02*
G37*
G36*
X348878D02*
X347053D01*
X347138Y204327D01*
X347500Y203785D01*
X347663Y203540D01*
X348450Y203014D01*
X348878Y202929D01*
Y204754D01*
D02*
G37*
%LPD*%
D20*
X533000Y123000D02*
X540000Y130000D01*
X533000Y114237D02*
Y123000D01*
X534974Y137978D02*
X553022D01*
X522000Y125004D02*
X534974Y137978D01*
X553022D02*
X553500Y137500D01*
X469768Y112992D02*
X469768D01*
X474660Y108100D02*
X517100D01*
X469768Y112992D02*
X474660Y108100D01*
X464768Y110232D02*
X468500Y106500D01*
X519500D02*
X530500Y117500D01*
X468500Y106500D02*
X519500D01*
X449768Y108477D02*
X454728Y103517D01*
X522279D02*
X533000Y114237D01*
X454728Y103517D02*
X522279D01*
X517100Y108100D02*
X522000Y113000D01*
Y125004D01*
X530500Y117500D02*
Y130000D01*
X449768Y108477D02*
Y112992D01*
X464768Y110232D02*
Y120472D01*
D78*
D03*
X469768Y112992D02*
D03*
X449768D02*
D03*
D135*
X127000Y366752D02*
D03*
D136*
X540000Y130000D02*
D03*
X553500Y137500D02*
D03*
X530500Y130000D02*
D03*
X262500Y381500D02*
D03*
X253500Y254500D02*
D03*
X198000Y367500D02*
D03*
X190500Y369500D02*
D03*
X198000Y379500D02*
D03*
X222000Y328500D02*
D03*
X156000Y301500D02*
D03*
X252500Y306000D02*
D03*
X225000Y268500D02*
D03*
X223500Y342500D02*
D03*
X229500Y338000D02*
D03*
X303500Y392000D02*
D03*
X298000Y398000D02*
D03*
X349378Y205254D02*
D03*
X488000Y206158D02*
D03*
X443500Y206000D02*
D03*
X399500Y205500D02*
D03*
M02*
