G04*
G04 #@! TF.GenerationSoftware,Altium Limited,Altium Designer,20.2.5 (213)*
G04*
G04 Layer_Color=255*
%FSLAX25Y25*%
%MOIN*%
G70*
G04*
G04 #@! TF.SameCoordinates,7C5E352A-D8AC-4D21-BA38-630912A149F9*
G04*
G04*
G04 #@! TF.FilePolarity,Positive*
G04*
G01*
G75*
%ADD19R,0.04921X0.06102*%
%ADD20R,0.06102X0.04921*%
%ADD21R,0.07677X0.04331*%
%ADD22R,0.04331X0.07677*%
%ADD23R,0.05938X0.05534*%
%ADD24R,0.05118X0.03543*%
%ADD25R,0.02362X0.02362*%
%ADD26R,0.04528X0.05709*%
%ADD27R,0.03937X0.05315*%
%ADD28R,0.05315X0.03937*%
%ADD29R,0.05136X0.05733*%
G04:AMPARAMS|DCode=30|XSize=61.81mil|YSize=16.14mil|CornerRadius=2.02mil|HoleSize=0mil|Usage=FLASHONLY|Rotation=0.000|XOffset=0mil|YOffset=0mil|HoleType=Round|Shape=RoundedRectangle|*
%AMROUNDEDRECTD30*
21,1,0.06181,0.01211,0,0,0.0*
21,1,0.05778,0.01614,0,0,0.0*
1,1,0.00404,0.02889,-0.00605*
1,1,0.00404,-0.02889,-0.00605*
1,1,0.00404,-0.02889,0.00605*
1,1,0.00404,0.02889,0.00605*
%
%ADD30ROUNDEDRECTD30*%
%ADD31R,0.05534X0.05938*%
%ADD32R,0.05727X0.06127*%
%ADD33R,0.01280X0.01575*%
%ADD34R,0.03268X0.02953*%
%ADD35R,0.04724X0.05709*%
%ADD36R,0.05733X0.05136*%
%ADD37R,0.01181X0.03543*%
%ADD38R,0.02362X0.04528*%
%ADD39R,0.03543X0.05118*%
G04:AMPARAMS|DCode=40|XSize=61.81mil|YSize=16.14mil|CornerRadius=2.02mil|HoleSize=0mil|Usage=FLASHONLY|Rotation=90.000|XOffset=0mil|YOffset=0mil|HoleType=Round|Shape=RoundedRectangle|*
%AMROUNDEDRECTD40*
21,1,0.06181,0.01211,0,0,90.0*
21,1,0.05778,0.01614,0,0,90.0*
1,1,0.00404,0.00605,0.02889*
1,1,0.00404,0.00605,-0.02889*
1,1,0.00404,-0.00605,-0.02889*
1,1,0.00404,-0.00605,0.02889*
%
%ADD40ROUNDEDRECTD40*%
%ADD41R,0.01968X0.00984*%
%ADD42R,0.02362X0.02362*%
%ADD43R,0.00984X0.01968*%
%ADD44R,0.05118X0.06102*%
%ADD45R,0.04331X0.05118*%
%ADD46R,0.03567X0.05157*%
%ADD47R,0.02165X0.04134*%
%ADD48R,0.06127X0.05727*%
%ADD49R,0.04134X0.05512*%
%ADD50R,0.05756X0.05333*%
%ADD51R,0.06102X0.05118*%
%ADD52R,0.05354X0.05748*%
%ADD53R,0.02953X0.01181*%
%ADD54R,0.05709X0.04724*%
%ADD55R,0.05315X0.03740*%
%ADD56R,0.05512X0.04134*%
%ADD57R,0.05709X0.03740*%
%ADD58R,0.03661X0.03543*%
%ADD59R,0.03071X0.04134*%
%ADD60R,0.07205X0.04488*%
%ADD61R,0.12992X0.02756*%
%ADD62R,0.11024X0.03386*%
%ADD63R,0.04331X0.02756*%
%ADD64R,0.10906X0.02559*%
%ADD65R,0.06102X0.05315*%
%ADD66R,0.02165X0.03150*%
%ADD67R,0.05333X0.05756*%
%ADD68R,0.02200X0.04000*%
%ADD69O,0.00984X0.06102*%
%ADD70O,0.06102X0.00984*%
%ADD71R,0.03300X0.06900*%
%ADD72R,0.25800X0.34400*%
%ADD73R,0.03543X0.03150*%
%ADD74R,0.05118X0.04528*%
%ADD115C,0.05386*%
%ADD117R,0.06181X0.06181*%
%ADD118C,0.06181*%
%ADD122C,0.04000*%
%ADD125R,0.04882X0.04882*%
%ADD126C,0.04882*%
%ADD127R,0.04882X0.04882*%
%ADD128R,0.05906X0.08268*%
%ADD129R,0.08268X0.05906*%
%ADD130C,0.12874*%
%ADD131C,0.04921*%
%ADD132R,0.04921X0.04921*%
%ADD133C,0.05200*%
D19*
X251535Y220000D02*
D03*
X243465D02*
D03*
X635535Y162500D02*
D03*
X627465D02*
D03*
X539831Y303123D02*
D03*
X531760D02*
D03*
X322454Y296121D02*
D03*
X314383D02*
D03*
X314241Y267621D02*
D03*
X322312D02*
D03*
X353535Y186000D02*
D03*
X345465D02*
D03*
X297465Y183500D02*
D03*
X305535D02*
D03*
X637500Y127000D02*
D03*
X629429D02*
D03*
X348035Y248000D02*
D03*
X339965D02*
D03*
X348035Y238000D02*
D03*
X339965D02*
D03*
X349035Y227500D02*
D03*
X340965D02*
D03*
D20*
X605000Y309646D02*
D03*
Y301575D02*
D03*
X485000Y179465D02*
D03*
Y187535D02*
D03*
X142000Y118535D02*
D03*
Y110465D02*
D03*
X605500Y280035D02*
D03*
Y271965D02*
D03*
Y250894D02*
D03*
Y242823D02*
D03*
X144500Y174035D02*
D03*
Y165965D02*
D03*
X190500Y198394D02*
D03*
Y190323D02*
D03*
X533500Y195894D02*
D03*
Y187823D02*
D03*
X394000Y201394D02*
D03*
Y193323D02*
D03*
X534000Y242500D02*
D03*
Y234429D02*
D03*
X520500Y242500D02*
D03*
Y234429D02*
D03*
X507000Y242500D02*
D03*
Y234429D02*
D03*
X440500Y200894D02*
D03*
Y192823D02*
D03*
X329500Y351823D02*
D03*
Y359894D02*
D03*
X450000Y455224D02*
D03*
Y447153D02*
D03*
D21*
X418000Y280000D02*
D03*
X549066Y435879D02*
D03*
X160000Y371000D02*
D03*
X244000Y351000D02*
D03*
X577500Y219500D02*
D03*
X611500Y195000D02*
D03*
X652000Y110000D02*
D03*
X176000Y280500D02*
D03*
X243000Y233500D02*
D03*
X584500Y189500D02*
D03*
X673000Y437500D02*
D03*
X622000Y405500D02*
D03*
D22*
X155000Y320500D02*
D03*
X155500Y400500D02*
D03*
X164500D02*
D03*
X205000Y400000D02*
D03*
X136500Y312500D02*
D03*
X162500Y281000D02*
D03*
X165000Y313000D02*
D03*
X143000Y240500D02*
D03*
X130500Y239000D02*
D03*
X625500Y197000D02*
D03*
X669500Y230500D02*
D03*
X241000Y151000D02*
D03*
X218500Y282500D02*
D03*
X135000Y199500D02*
D03*
X125000Y166000D02*
D03*
X121000Y110500D02*
D03*
X309616Y223935D02*
D03*
X255371Y375153D02*
D03*
X266000Y150500D02*
D03*
X619987Y335638D02*
D03*
X560000Y374500D02*
D03*
X202500Y434500D02*
D03*
D23*
X267689Y362353D02*
D03*
Y369647D02*
D03*
X291277Y286268D02*
D03*
Y278974D02*
D03*
D24*
X338500Y330134D02*
D03*
Y321866D02*
D03*
X421000Y286232D02*
D03*
Y294500D02*
D03*
X444500Y293232D02*
D03*
Y301500D02*
D03*
X198800Y247134D02*
D03*
Y238866D02*
D03*
X165500Y293161D02*
D03*
Y301429D02*
D03*
X374500Y383366D02*
D03*
Y391634D02*
D03*
X172000Y375366D02*
D03*
Y383634D02*
D03*
D25*
X366220Y341750D02*
D03*
X369780D02*
D03*
X398720Y376000D02*
D03*
X402280D02*
D03*
X362720Y365250D02*
D03*
X366280D02*
D03*
X429440Y311000D02*
D03*
X433000D02*
D03*
X429440Y318000D02*
D03*
X433000D02*
D03*
X405780Y317500D02*
D03*
X402220D02*
D03*
D26*
X389445Y391500D02*
D03*
X382555D02*
D03*
X436445Y299500D02*
D03*
X429555D02*
D03*
D27*
X389543Y382500D02*
D03*
X382457D02*
D03*
X515946Y357396D02*
D03*
X508859D02*
D03*
Y366396D02*
D03*
X515946D02*
D03*
X509500Y469000D02*
D03*
X502413D02*
D03*
X539339Y313623D02*
D03*
X532252D02*
D03*
X515946Y400396D02*
D03*
X508859D02*
D03*
X515946Y390896D02*
D03*
X508859D02*
D03*
X515946Y381396D02*
D03*
X508859D02*
D03*
X501733D02*
D03*
X494647D02*
D03*
Y390896D02*
D03*
X501733D02*
D03*
X509500Y458000D02*
D03*
X502413D02*
D03*
X296543Y296000D02*
D03*
X289457D02*
D03*
X436543Y287000D02*
D03*
X429457D02*
D03*
X494647Y400396D02*
D03*
X501733D02*
D03*
D28*
X500946Y357439D02*
D03*
Y350352D02*
D03*
X606500Y372500D02*
D03*
Y379587D02*
D03*
X500946Y366352D02*
D03*
Y373439D02*
D03*
X194000Y332000D02*
D03*
Y339087D02*
D03*
X204500Y334957D02*
D03*
Y342043D02*
D03*
X190500Y300937D02*
D03*
Y293850D02*
D03*
X664500Y413543D02*
D03*
Y406457D02*
D03*
X606500Y389457D02*
D03*
Y396543D02*
D03*
X298000Y352457D02*
D03*
Y359543D02*
D03*
D29*
X527847Y422500D02*
D03*
X534153D02*
D03*
X538653Y290000D02*
D03*
X532347D02*
D03*
X681153Y406000D02*
D03*
X674847D02*
D03*
X300124Y267621D02*
D03*
X306429D02*
D03*
X598712Y134000D02*
D03*
X592406D02*
D03*
X421153Y303000D02*
D03*
X414847D02*
D03*
X219300Y219000D02*
D03*
X225605D02*
D03*
X562347Y219500D02*
D03*
X568653D02*
D03*
X269079D02*
D03*
X275385D02*
D03*
X320347Y220000D02*
D03*
X326653D02*
D03*
X421347Y219500D02*
D03*
X427653D02*
D03*
X372906D02*
D03*
X379211D02*
D03*
X466347Y219000D02*
D03*
X472653D02*
D03*
X510895Y219500D02*
D03*
X517200D02*
D03*
X197847Y373500D02*
D03*
X204153D02*
D03*
D30*
X404701Y211457D02*
D03*
Y208898D02*
D03*
Y206339D02*
D03*
Y203780D02*
D03*
Y201220D02*
D03*
Y198661D02*
D03*
Y196102D02*
D03*
Y193543D02*
D03*
X427299D02*
D03*
Y196102D02*
D03*
Y198661D02*
D03*
Y201220D02*
D03*
Y203780D02*
D03*
Y206339D02*
D03*
Y208898D02*
D03*
Y211457D02*
D03*
X225000D02*
D03*
Y208898D02*
D03*
Y206339D02*
D03*
Y203780D02*
D03*
Y201220D02*
D03*
Y198661D02*
D03*
Y196102D02*
D03*
Y193543D02*
D03*
X202402D02*
D03*
Y196102D02*
D03*
Y198661D02*
D03*
Y201220D02*
D03*
Y203780D02*
D03*
Y206339D02*
D03*
Y208898D02*
D03*
Y211457D02*
D03*
X304201D02*
D03*
Y208898D02*
D03*
Y206339D02*
D03*
Y203780D02*
D03*
Y201220D02*
D03*
Y198661D02*
D03*
Y196102D02*
D03*
Y193543D02*
D03*
X326799D02*
D03*
Y196102D02*
D03*
Y198661D02*
D03*
Y201220D02*
D03*
Y203780D02*
D03*
Y206339D02*
D03*
Y208898D02*
D03*
Y211457D02*
D03*
X273079D02*
D03*
Y208898D02*
D03*
Y206339D02*
D03*
Y203780D02*
D03*
Y201220D02*
D03*
Y198661D02*
D03*
Y196102D02*
D03*
Y193543D02*
D03*
X250480D02*
D03*
Y196102D02*
D03*
Y198661D02*
D03*
Y201220D02*
D03*
Y203780D02*
D03*
Y206339D02*
D03*
Y208898D02*
D03*
Y211457D02*
D03*
X566598D02*
D03*
Y208898D02*
D03*
Y206339D02*
D03*
Y203780D02*
D03*
Y201220D02*
D03*
Y198661D02*
D03*
Y196102D02*
D03*
Y193543D02*
D03*
X544000D02*
D03*
Y196102D02*
D03*
Y198661D02*
D03*
Y201220D02*
D03*
Y203780D02*
D03*
Y206339D02*
D03*
Y208898D02*
D03*
Y211457D02*
D03*
X493201D02*
D03*
Y208898D02*
D03*
Y206339D02*
D03*
Y203780D02*
D03*
Y201220D02*
D03*
Y198661D02*
D03*
Y196102D02*
D03*
Y193543D02*
D03*
X515799D02*
D03*
Y196102D02*
D03*
Y198661D02*
D03*
Y201220D02*
D03*
Y203780D02*
D03*
Y206339D02*
D03*
Y208898D02*
D03*
Y211457D02*
D03*
X450201D02*
D03*
Y208898D02*
D03*
Y206339D02*
D03*
Y203780D02*
D03*
Y201220D02*
D03*
Y198661D02*
D03*
Y196102D02*
D03*
Y193543D02*
D03*
X472799D02*
D03*
Y196102D02*
D03*
Y198661D02*
D03*
Y201220D02*
D03*
Y203780D02*
D03*
Y206339D02*
D03*
Y208898D02*
D03*
Y211457D02*
D03*
X355201D02*
D03*
Y208898D02*
D03*
Y206339D02*
D03*
Y203780D02*
D03*
Y201220D02*
D03*
Y198661D02*
D03*
Y196102D02*
D03*
Y193543D02*
D03*
X377799D02*
D03*
Y196102D02*
D03*
Y198661D02*
D03*
Y201220D02*
D03*
Y203780D02*
D03*
Y206339D02*
D03*
Y208898D02*
D03*
Y211457D02*
D03*
D31*
X311478Y409412D02*
D03*
X304185D02*
D03*
X311218Y420912D02*
D03*
X303925D02*
D03*
X230647Y461500D02*
D03*
X223353D02*
D03*
X230793Y473500D02*
D03*
X223500D02*
D03*
D32*
X284572Y420912D02*
D03*
X291861D02*
D03*
X307370Y255000D02*
D03*
X300081D02*
D03*
D33*
X190000Y447500D02*
D03*
X186555D02*
D03*
D34*
X232000Y448890D02*
D03*
Y440110D02*
D03*
D35*
X215063Y431000D02*
D03*
X222937D02*
D03*
X223000Y340500D02*
D03*
X215126D02*
D03*
X398626Y403500D02*
D03*
X406500D02*
D03*
X424000D02*
D03*
X416126D02*
D03*
D36*
X148000Y359347D02*
D03*
Y365653D02*
D03*
X158000Y142800D02*
D03*
Y149105D02*
D03*
X348000Y322347D02*
D03*
Y328653D02*
D03*
X264000Y314153D02*
D03*
Y307847D02*
D03*
X183000Y319653D02*
D03*
Y313347D02*
D03*
X209300Y240300D02*
D03*
Y246605D02*
D03*
X183500Y328847D02*
D03*
Y335153D02*
D03*
X151800Y222153D02*
D03*
Y215847D02*
D03*
X151500Y183847D02*
D03*
Y190153D02*
D03*
X597500Y181653D02*
D03*
Y175347D02*
D03*
X278500Y363347D02*
D03*
Y369653D02*
D03*
Y386653D02*
D03*
Y380347D02*
D03*
X475000Y455805D02*
D03*
Y449500D02*
D03*
X314500Y358653D02*
D03*
Y352347D02*
D03*
D37*
X138500Y360638D02*
D03*
Y365362D02*
D03*
Y377224D02*
D03*
Y372500D02*
D03*
Y384276D02*
D03*
Y389000D02*
D03*
D38*
X190240Y383421D02*
D03*
X186500D02*
D03*
X182760D02*
D03*
Y373579D02*
D03*
X190240D02*
D03*
X273037Y314542D02*
D03*
X280517D02*
D03*
Y304700D02*
D03*
X276777D02*
D03*
X273037D02*
D03*
X207540Y254579D02*
D03*
X200060D02*
D03*
Y264421D02*
D03*
X203800D02*
D03*
X207540D02*
D03*
X142040Y214079D02*
D03*
X134560D02*
D03*
Y223921D02*
D03*
X138300D02*
D03*
X142040D02*
D03*
D39*
X191134Y364000D02*
D03*
X182866D02*
D03*
X510634Y448000D02*
D03*
X502366D02*
D03*
X510634Y438500D02*
D03*
X502366D02*
D03*
X238134Y340500D02*
D03*
X229866D02*
D03*
X195866Y312500D02*
D03*
X204134D02*
D03*
X540732Y403000D02*
D03*
X549000D02*
D03*
X284366Y394500D02*
D03*
X292634D02*
D03*
X163634Y384000D02*
D03*
X155366D02*
D03*
D40*
X158543Y135299D02*
D03*
X161102D02*
D03*
X163661D02*
D03*
X166220D02*
D03*
X168780D02*
D03*
X171339D02*
D03*
X173898D02*
D03*
X176457D02*
D03*
Y112701D02*
D03*
X173898D02*
D03*
X171339D02*
D03*
X168780D02*
D03*
X166220D02*
D03*
X163661D02*
D03*
X161102D02*
D03*
X158543D02*
D03*
X604043Y175299D02*
D03*
X606602D02*
D03*
X609161D02*
D03*
X611720D02*
D03*
X614280D02*
D03*
X616839D02*
D03*
X619398D02*
D03*
X621957D02*
D03*
Y152701D02*
D03*
X619398D02*
D03*
X616839D02*
D03*
X614280D02*
D03*
X611720D02*
D03*
X609161D02*
D03*
X606602D02*
D03*
X604043D02*
D03*
Y133299D02*
D03*
X606602D02*
D03*
X609161D02*
D03*
X611720D02*
D03*
X614280D02*
D03*
X616839D02*
D03*
X619398D02*
D03*
X621957D02*
D03*
Y110701D02*
D03*
X619398D02*
D03*
X616839D02*
D03*
X614280D02*
D03*
X611720D02*
D03*
X609161D02*
D03*
X606602D02*
D03*
X604043D02*
D03*
X160043Y168201D02*
D03*
X162602D02*
D03*
X165161D02*
D03*
X167720D02*
D03*
X170280D02*
D03*
X172839D02*
D03*
X175398D02*
D03*
X177957D02*
D03*
Y190799D02*
D03*
X175398D02*
D03*
X172839D02*
D03*
X170280D02*
D03*
X167720D02*
D03*
X165161D02*
D03*
X162602D02*
D03*
X160043D02*
D03*
D41*
X587000Y124874D02*
D03*
Y121724D02*
D03*
Y118575D02*
D03*
Y115425D02*
D03*
X583850Y113850D02*
D03*
Y117000D02*
D03*
Y120150D02*
D03*
Y123299D02*
D03*
Y126449D02*
D03*
Y163799D02*
D03*
Y160650D02*
D03*
Y157500D02*
D03*
Y154350D02*
D03*
Y151201D02*
D03*
X587000Y152776D02*
D03*
Y155925D02*
D03*
Y159075D02*
D03*
Y162224D02*
D03*
X196150Y113850D02*
D03*
Y117000D02*
D03*
Y120150D02*
D03*
Y123299D02*
D03*
Y126449D02*
D03*
X193000Y124874D02*
D03*
Y121724D02*
D03*
Y118575D02*
D03*
Y115425D02*
D03*
X196500Y155500D02*
D03*
Y158650D02*
D03*
Y161799D02*
D03*
Y164949D02*
D03*
Y168098D02*
D03*
X193350Y166524D02*
D03*
Y163374D02*
D03*
Y160224D02*
D03*
Y157075D02*
D03*
X558500Y445701D02*
D03*
Y448850D02*
D03*
Y452000D02*
D03*
Y455150D02*
D03*
Y458299D02*
D03*
X555350Y456724D02*
D03*
Y453575D02*
D03*
Y450425D02*
D03*
Y447276D02*
D03*
D42*
X445500Y360720D02*
D03*
Y364280D02*
D03*
X381500Y336720D02*
D03*
Y340280D02*
D03*
X386500Y351720D02*
D03*
Y355280D02*
D03*
X380000Y352030D02*
D03*
Y348470D02*
D03*
X387000Y337000D02*
D03*
Y340560D02*
D03*
X212500Y325440D02*
D03*
Y329000D02*
D03*
X379500Y366720D02*
D03*
Y370280D02*
D03*
X386000Y366720D02*
D03*
Y370280D02*
D03*
D43*
X361563Y165959D02*
D03*
X364713D02*
D03*
X367862D02*
D03*
X371012D02*
D03*
X372587Y162809D02*
D03*
X369437D02*
D03*
X366288D02*
D03*
X363138D02*
D03*
X359988D02*
D03*
X490819D02*
D03*
X493969D02*
D03*
X497118D02*
D03*
X500268D02*
D03*
X503418D02*
D03*
X501843Y165959D02*
D03*
X498693D02*
D03*
X495544D02*
D03*
X492394D02*
D03*
X447209Y162809D02*
D03*
X450358D02*
D03*
X453508D02*
D03*
X456658D02*
D03*
X459807D02*
D03*
X458232Y165959D02*
D03*
X455083D02*
D03*
X451933D02*
D03*
X448784D02*
D03*
X403599Y162809D02*
D03*
X406748D02*
D03*
X409898D02*
D03*
X413047D02*
D03*
X416197D02*
D03*
X414622Y165959D02*
D03*
X411473D02*
D03*
X408323D02*
D03*
X405173D02*
D03*
X316378Y162809D02*
D03*
X319528D02*
D03*
X322677D02*
D03*
X325827D02*
D03*
X328977D02*
D03*
X327402Y165959D02*
D03*
X324252D02*
D03*
X321103D02*
D03*
X317953D02*
D03*
X272768Y162809D02*
D03*
X275918D02*
D03*
X279067D02*
D03*
X282217D02*
D03*
X285366D02*
D03*
X283792Y165959D02*
D03*
X280642D02*
D03*
X277492D02*
D03*
X274343D02*
D03*
X536626Y166150D02*
D03*
X539776D02*
D03*
X542925D02*
D03*
X546075D02*
D03*
X547650Y163000D02*
D03*
X544500D02*
D03*
X541350D02*
D03*
X538201D02*
D03*
X535051D02*
D03*
X258799Y166000D02*
D03*
X255650D02*
D03*
X252500D02*
D03*
X249350D02*
D03*
X246201D02*
D03*
X247776Y162850D02*
D03*
X250925D02*
D03*
X254075D02*
D03*
X257224D02*
D03*
D44*
X550642Y282850D02*
D03*
Y314150D02*
D03*
X568358Y282850D02*
D03*
Y314150D02*
D03*
D45*
X369543Y348722D02*
D03*
Y357778D02*
D03*
X362457D02*
D03*
Y348722D02*
D03*
D46*
X321832Y306621D02*
D03*
X315721D02*
D03*
D47*
X301037Y287239D02*
D03*
X304777D02*
D03*
X308517D02*
D03*
Y277003D02*
D03*
X304777D02*
D03*
X301037D02*
D03*
D48*
X393000Y308210D02*
D03*
Y315500D02*
D03*
X187800Y255710D02*
D03*
Y263000D02*
D03*
D49*
X273037Y296121D02*
D03*
X280517D02*
D03*
D50*
X381000Y307658D02*
D03*
Y315342D02*
D03*
X562446Y348257D02*
D03*
Y355940D02*
D03*
X638471Y281110D02*
D03*
Y288794D02*
D03*
X638500Y252158D02*
D03*
Y259842D02*
D03*
X328000Y463842D02*
D03*
Y456158D02*
D03*
D51*
X329650Y325642D02*
D03*
X298350D02*
D03*
X329650Y343358D02*
D03*
X298350D02*
D03*
D52*
X200000Y323500D02*
D03*
D53*
X194094Y326453D02*
D03*
Y324484D02*
D03*
Y322516D02*
D03*
Y320547D02*
D03*
X205906D02*
D03*
Y322516D02*
D03*
Y324484D02*
D03*
Y326453D02*
D03*
D54*
X176300Y255063D02*
D03*
Y262937D02*
D03*
X172500Y328063D02*
D03*
Y335937D02*
D03*
X268000Y380063D02*
D03*
Y387937D02*
D03*
D55*
X217500Y301626D02*
D03*
Y295524D02*
D03*
X172500Y313898D02*
D03*
Y320000D02*
D03*
D56*
X204000Y293260D02*
D03*
Y300740D02*
D03*
D57*
X178000Y293654D02*
D03*
Y301331D02*
D03*
D58*
X632925Y384531D02*
D03*
D59*
X632630Y367740D02*
D03*
D60*
X681941Y392760D02*
D03*
D61*
X637591Y393626D02*
D03*
Y342602D02*
D03*
D62*
X680032Y342917D02*
D03*
D63*
X682000Y377484D02*
D03*
Y373154D02*
D03*
Y368823D02*
D03*
Y364492D02*
D03*
Y360161D02*
D03*
Y355831D02*
D03*
Y351500D02*
D03*
Y347169D02*
D03*
D64*
X545500Y360000D02*
D03*
Y365000D02*
D03*
Y370000D02*
D03*
Y375000D02*
D03*
Y380000D02*
D03*
X529634Y360000D02*
D03*
Y365000D02*
D03*
Y370000D02*
D03*
Y375000D02*
D03*
Y380000D02*
D03*
D65*
X638500Y318839D02*
D03*
Y311161D02*
D03*
D66*
X658957Y294299D02*
D03*
Y288000D02*
D03*
X662500D02*
D03*
Y294299D02*
D03*
D67*
X597129Y319110D02*
D03*
X604812D02*
D03*
X597629Y289110D02*
D03*
X605312D02*
D03*
X597629Y259610D02*
D03*
X605312D02*
D03*
D68*
X625211Y318610D02*
D03*
X617731D02*
D03*
X621471Y309610D02*
D03*
X625211Y259110D02*
D03*
X617731D02*
D03*
X621471Y250110D02*
D03*
X625211Y288860D02*
D03*
X617731D02*
D03*
X621471Y279860D02*
D03*
D69*
X401236Y368752D02*
D03*
X403205D02*
D03*
X405173D02*
D03*
X407142D02*
D03*
X409110D02*
D03*
X411079D02*
D03*
X413047D02*
D03*
X415016D02*
D03*
X416984D02*
D03*
X418953D02*
D03*
X420921D02*
D03*
X422890D02*
D03*
X424858D02*
D03*
X426827D02*
D03*
X428795D02*
D03*
X430764D02*
D03*
Y325248D02*
D03*
X428795D02*
D03*
X426827D02*
D03*
X424858D02*
D03*
X422890D02*
D03*
X420921D02*
D03*
X418953D02*
D03*
X416984D02*
D03*
X415016D02*
D03*
X413047D02*
D03*
X411079D02*
D03*
X409110D02*
D03*
X407142D02*
D03*
X405173D02*
D03*
X403205D02*
D03*
X401236D02*
D03*
D70*
X437752Y361764D02*
D03*
Y359795D02*
D03*
Y357827D02*
D03*
Y355858D02*
D03*
Y353890D02*
D03*
Y351921D02*
D03*
Y349953D02*
D03*
Y347984D02*
D03*
Y346016D02*
D03*
Y344047D02*
D03*
Y342079D02*
D03*
Y340110D02*
D03*
Y338142D02*
D03*
Y336173D02*
D03*
Y334205D02*
D03*
Y332236D02*
D03*
X394248D02*
D03*
Y334205D02*
D03*
Y336173D02*
D03*
Y338142D02*
D03*
Y340110D02*
D03*
Y342079D02*
D03*
Y344047D02*
D03*
Y346016D02*
D03*
Y347984D02*
D03*
Y349953D02*
D03*
Y351921D02*
D03*
Y353890D02*
D03*
Y355858D02*
D03*
Y357827D02*
D03*
Y359795D02*
D03*
Y361764D02*
D03*
D71*
X288072Y435562D02*
D03*
X298072D02*
D03*
X308072D02*
D03*
D72*
X298072Y460412D02*
D03*
D73*
X214157Y444260D02*
D03*
X224000Y448000D02*
D03*
Y440520D02*
D03*
D74*
X328072Y444342D02*
D03*
Y435483D02*
D03*
D115*
X269768Y116929D02*
D03*
X279768D02*
D03*
X289768D02*
D03*
X299768D02*
D03*
X309768D02*
D03*
X319768D02*
D03*
X329768D02*
D03*
X339768D02*
D03*
X349768D02*
D03*
X359768D02*
D03*
X369768D02*
D03*
X379768D02*
D03*
X389768D02*
D03*
X399768D02*
D03*
X409768D02*
D03*
X419768D02*
D03*
X429768D02*
D03*
X439768D02*
D03*
X449768D02*
D03*
X459768D02*
D03*
X469768D02*
D03*
X479768D02*
D03*
X489768D02*
D03*
X499768D02*
D03*
X509768D02*
D03*
X264768Y124409D02*
D03*
X274768D02*
D03*
X284768D02*
D03*
X294768D02*
D03*
X304768D02*
D03*
X314768D02*
D03*
X324768D02*
D03*
X334768D02*
D03*
X344768D02*
D03*
X354768D02*
D03*
X364768D02*
D03*
X374768D02*
D03*
X384768D02*
D03*
X394768D02*
D03*
X404768D02*
D03*
X414768D02*
D03*
X424768D02*
D03*
X434768D02*
D03*
X444768D02*
D03*
X454768D02*
D03*
X464768D02*
D03*
X474768D02*
D03*
X484768D02*
D03*
X494768D02*
D03*
X504768D02*
D03*
X269768Y131890D02*
D03*
X279768D02*
D03*
X289768D02*
D03*
X299768D02*
D03*
X309768D02*
D03*
X319768D02*
D03*
X329768D02*
D03*
X339768D02*
D03*
X349768D02*
D03*
X359768D02*
D03*
X369768D02*
D03*
X379768D02*
D03*
X389768D02*
D03*
X399768D02*
D03*
X409768D02*
D03*
X419768D02*
D03*
X429768D02*
D03*
X439768D02*
D03*
X449768D02*
D03*
X459768D02*
D03*
X469768D02*
D03*
X479768D02*
D03*
X489768D02*
D03*
X499768D02*
D03*
X509768D02*
D03*
X264768Y139370D02*
D03*
X274768D02*
D03*
X284768D02*
D03*
X294768D02*
D03*
X304768D02*
D03*
X314768D02*
D03*
X324768D02*
D03*
X334768D02*
D03*
X344768D02*
D03*
X354768D02*
D03*
X364768D02*
D03*
X374768D02*
D03*
X384768D02*
D03*
X394768D02*
D03*
X404768D02*
D03*
X414768D02*
D03*
X424768D02*
D03*
X434768D02*
D03*
X444768D02*
D03*
X454768D02*
D03*
X464768D02*
D03*
X474768D02*
D03*
X484768D02*
D03*
X494768D02*
D03*
X504768D02*
D03*
D117*
X527922Y466351D02*
D03*
D118*
Y456351D02*
D03*
Y446351D02*
D03*
Y436351D02*
D03*
X537922Y466351D02*
D03*
Y456351D02*
D03*
Y446351D02*
D03*
Y436351D02*
D03*
D122*
X253000Y454000D02*
D03*
Y446126D02*
D03*
Y438252D02*
D03*
D125*
X233000Y366500D02*
D03*
X191500Y396500D02*
D03*
X147000Y329500D02*
D03*
X239500Y321500D02*
D03*
X229800Y263500D02*
D03*
X201000Y280000D02*
D03*
X162800Y263500D02*
D03*
X576000Y407000D02*
D03*
X233000Y381500D02*
D03*
X262500Y420500D02*
D03*
D126*
X223000Y366500D02*
D03*
X620500Y389500D02*
D03*
X181500Y396500D02*
D03*
X137000Y329500D02*
D03*
X407000Y416000D02*
D03*
X229500Y321500D02*
D03*
X219800Y263500D02*
D03*
X191000Y280000D02*
D03*
X152800Y263500D02*
D03*
X586000Y407000D02*
D03*
X223000Y381500D02*
D03*
X462500Y454000D02*
D03*
X620500Y361000D02*
D03*
X252500Y420500D02*
D03*
D127*
X620500Y379500D02*
D03*
X407000Y426000D02*
D03*
X462500Y444000D02*
D03*
X620500Y351000D02*
D03*
D128*
X173996Y469500D02*
D03*
D129*
X192500Y481311D02*
D03*
Y457689D02*
D03*
D130*
X233272Y124409D02*
D03*
X541264D02*
D03*
D131*
X127000Y374626D02*
D03*
Y382500D02*
D03*
D132*
Y366752D02*
D03*
D133*
X267764Y475654D02*
D03*
Y432346D02*
D03*
X246898Y475654D02*
D03*
Y432346D02*
D03*
M02*
